<svg height="466" viewBox="0 0 1010 500" fill="none" xmlns="http://www.w3.org/2000/svg"><g clip-path="url(#clip0_673_107)"><path d="M144.271 455c35.347 0 64-28.654 64-64 0-35.346-28.653-64-64-64-35.346 0-64 28.654-64 64 0 35.346 28.654 64 64 64z" fill="#FF6584"/><path d="M275.336 752.5h-.065a8.512 8.512 0 01-8.5-8.5V245a8.511 8.511 0 018.5-8.5h420.001a8.512 8.512 0 018.5 8.5v388a8.508 8.508 0 01-8.435 8.5l-420.001 111z" fill="#F2F2F2"/><path d="M585.772 166H390.771V53a9.009 9.009 0 019-9h177.001a9.009 9.009 0 019 9v113zm-193.001-2h191.001V53a7.008 7.008 0 00-7-7H399.771a7.008 7.008 0 00-7 7v111z" fill="#3F3D56"/><path d="M446.271 87h84.001a8 8 0 018 8v120H438.271V95a7.998 7.998 0 018-8z" fill="#E6E6E6"/><path d="M462.771 46h-41V5a5.006 5.006 0 015-5h31a5.005 5.005 0 015 5v41zm-39-2h37V5a3 3 0 00-3-3h-31a3.004 3.004 0 00-3 3v39zm375.911 604.84c-.399 0-.787 0-1.186-.01a101.526 101.526 0 01-66.894-26.147 137.394 137.394 0 01-2.021-1.879l-.31-.296V428.856l.096-.203a413.806 413.806 0 012.005-4.17c20.8-42.229 45.059-65.483 68.31-65.483 33.529 0 59.533 45.994 72.049 73.41 17.405 38.124 29.561 85.364 29.561 114.88a101.574 101.574 0 01-100.45 101.54c-.373.01-.772.01-1.16.01zm-68.411-29.189c.554.523 1.114 1.04 1.674 1.55a99.526 99.526 0 0065.587 25.629c.405.01.789-.001 1.176.01.363 0 .735 0 1.098-.009 54.312-.603 98.486-45.257 98.486-99.541 0-29.26-12.082-76.159-29.38-114.05-12.317-26.979-37.819-72.24-70.23-72.24-22.449 0-46.07 22.857-66.514 64.362-.633 1.305-1.269 2.615-1.897 3.942v190.347z" fill="#3F3D56"/><path d="M799.677 770.088a1.151 1.151 0 01-1.151-1.151V534.069a1.152 1.152 0 012.216-.442c.057.14.086.29.085.442v234.868a1.15 1.15 0 01-1.15 1.151zm-597 0a1.151 1.151 0 01-1.151-1.151V534.069a1.152 1.152 0 012.216-.442c.057.14.086.29.085.442v234.868a1.15 1.15 0 01-1.15 1.151z" fill="#CCC"/><path d="M799.677 577.951a1.146 1.146 0 01-.869-.397l-57.864-66.73a1.152 1.152 0 01.951-1.9c.304.021.587.162.788.392l57.863 66.73a1.155 1.155 0 01.178 1.232 1.16 1.16 0 01-1.047.673zm0 38.511a1.152 1.152 0 01-.814-1.964l32.879-32.88a1.153 1.153 0 011.625.002 1.15 1.15 0 01.002 1.625l-32.879 32.88a1.144 1.144 0 01-.813.337z" fill="#CCC"/><path d="M906.124 770.563h-86.005v-1a42.988 42.988 0 0112.587-30.42 43.009 43.009 0 0130.415-12.603 43.006 43.006 0 0139.735 26.561 42.989 42.989 0 013.268 16.462v1zm-83.993-2h81.981a41 41 0 00-81.981 0z" fill="#3F3D56"/><path d="M863.121 745.156a1.135 1.135 0 00-1.135 1.136v12.059l-11.748-10.083a1.144 1.144 0 00-.826-.272 1.127 1.127 0 00-.777.392 1.139 1.139 0 00.124 1.603l13.227 11.352v7.085a1.122 1.122 0 00.331.805 1.134 1.134 0 001.939-.805v-22.136a1.135 1.135 0 00-1.135-1.136zm-677.997 25.407H99.119v-1a42.992 42.992 0 0112.587-30.42 43.009 43.009 0 0130.415-12.603 43.006 43.006 0 0139.735 26.561 42.989 42.989 0 013.268 16.462v1zm-83.993-2h81.981a41 41 0 00-81.981 0z" fill="#3F3D56"/><path d="M142.121 745.156a1.135 1.135 0 00-1.135 1.136v12.059l-11.748-10.083a1.144 1.144 0 00-.826-.272 1.127 1.127 0 00-.777.392 1.139 1.139 0 00.124 1.603l13.227 11.352v7.085a1.122 1.122 0 00.331.805 1.134 1.134 0 001.939-.805v-22.136a1.135 1.135 0 00-1.135-1.136zm61.561-96.316c-.399 0-.787 0-1.186-.01a101.58 101.58 0 01-100.434-101.54c0-29.517 12.156-76.757 29.561-114.88C144.14 404.994 170.146 359 203.682 359c13.813 0 27.722 7.873 41.341 23.401a96.469 96.469 0 012.02 2.362l.228.278v253.986l-.564.273a53.16 53.16 0 01-2.038.928 100.62 100.62 0 01-39.827 8.602c-.373.01-.772.01-1.16.01zm0-287.84c-32.417 0-57.922 45.261-70.24 72.24-17.299 37.89-29.38 84.789-29.38 114.05 0 54.275 44.174 98.928 98.471 99.54.404.01.782.013 1.175.01.363 0 .735 0 1.098-.009a98.66 98.66 0 0039.061-8.436c.472-.204.94-.412 1.404-.627V385.761a94.446 94.446 0 00-1.75-2.04C230.297 368.644 216.893 361 203.682 361z" fill="#3F3D56"/><path d="M203.677 577.951a1.146 1.146 0 01-.869-.397l-57.864-66.73a1.152 1.152 0 01.951-1.9c.304.021.587.162.788.392l57.863 66.73a1.155 1.155 0 01.178 1.232 1.16 1.16 0 01-1.047.673zm0 38.511a1.154 1.154 0 01-1.063-.711 1.152 1.152 0 01.25-1.253l32.879-32.88a1.151 1.151 0 011.627 1.627l-32.879 32.88a1.14 1.14 0 01-.814.337z" fill="#CCC"/><path d="M294.031 174l.74 1.46c.329.63.5 1.33.5 2.04V217h35v-39.5c.001-.71.172-1.41.5-2.04l.741-1.46h-37.481zm34.24 3.5V215h-31v-37.5a6.219 6.219 0 00-.18-1.5h31.361a6.27 6.27 0 00-.181 1.5zm9.76-3.5l.74 1.46c.329.63.5 1.33.5 2.04V217h35v-39.5c.001-.71.172-1.41.5-2.04l.741-1.46h-37.481zm34.24 3.5V215h-31v-37.5a6.219 6.219 0 00-.18-1.5h31.361a6.27 6.27 0 00-.181 1.5zm9.76-3.5l.74 1.46c.329.63.5 1.33.5 2.04V217h35.001v-39.5c0-.71.171-1.41.5-2.04l.74-1.46h-37.481zm34.24 3.5V215h-31v-37.5a6.219 6.219 0 00-.18-1.5h31.361a6.27 6.27 0 00-.181 1.5zm9.76-3.5l.741 1.46c.328.63.499 1.33.5 2.04V217h35v-39.5c0-.71.171-1.41.5-2.04l.74-1.46h-37.481zm34.241 3.5V215h-31v-37.5a6.27 6.27 0 00-.181-1.5h31.361a6.219 6.219 0 00-.18 1.5zm9.759-3.5l.741 1.46c.328.63.499 1.33.5 2.04V217h35v-39.5c0-.71.171-1.41.5-2.04l.74-1.46h-37.481zm34.241 3.5V215h-31v-37.5a6.27 6.27 0 00-.181-1.5h31.361a6.219 6.219 0 00-.18 1.5zm9.759-3.5l.741 1.46c.328.63.499 1.33.5 2.04V217h35v-39.5c0-.71.171-1.41.5-2.04l.74-1.46h-37.481zm34.241 3.5V215h-31v-37.5a6.27 6.27 0 00-.181-1.5h31.361a6.219 6.219 0 00-.18 1.5zm9.759-3.5l.741 1.46c.328.63.499 1.33.5 2.04V217h35v-39.5c0-.71.171-1.41.5-2.04l.74-1.46h-37.481zm34.241 3.5V215h-31v-37.5a6.27 6.27 0 00-.181-1.5h31.361a6.219 6.219 0 00-.18 1.5zm9.759-3.5l.741 1.46c.328.63.499 1.33.5 2.04V217h35v-39.5c0-.71.171-1.41.5-2.04l.74-1.46h-37.481zm34.241 3.5V215h-31v-37.5a6.27 6.27 0 00-.181-1.5h31.361a6.219 6.219 0 00-.18 1.5zm9.759-3.5l.741 1.46c.328.63.499 1.33.5 2.04V217h35v-39.5c0-.71.171-1.41.5-2.04l.74-1.46h-37.481zm34.241 3.5V215h-31v-37.5a6.27 6.27 0 00-.181-1.5h31.361a6.219 6.219 0 00-.18 1.5zm-34.241-3.5l.741 1.46c.328.63.499 1.33.5 2.04V217h35v-39.5c0-.71.171-1.41.5-2.04l.74-1.46h-37.481zm34.241 3.5V215h-31v-37.5a6.27 6.27 0 00-.181-1.5h31.361a6.219 6.219 0 00-.18 1.5zm-78.241-3.5l.741 1.46c.328.63.499 1.33.5 2.04V217h35v-39.5c0-.71.171-1.41.5-2.04l.74-1.46h-37.481zm34.241 3.5V215h-31v-37.5a6.27 6.27 0 00-.181-1.5h31.361a6.219 6.219 0 00-.18 1.5zm-78.241-3.5l.741 1.46c.328.63.499 1.33.5 2.04V217h35v-39.5c0-.71.171-1.41.5-2.04l.74-1.46h-37.481zm34.241 3.5V215h-31v-37.5a6.27 6.27 0 00-.181-1.5h31.361a6.219 6.219 0 00-.18 1.5zm-78.241-3.5l.741 1.46c.328.63.499 1.33.5 2.04V217h35v-39.5c0-.71.171-1.41.5-2.04l.74-1.46h-37.481zm34.241 3.5V215h-31v-37.5a6.27 6.27 0 00-.181-1.5h31.361a6.219 6.219 0 00-.18 1.5zm-78.241-3.5l.741 1.46c.328.63.499 1.33.5 2.04V217h35v-39.5c0-.71.171-1.41.5-2.04l.74-1.46h-37.481zm34.241 3.5V215h-31v-37.5a6.27 6.27 0 00-.181-1.5h31.361a6.219 6.219 0 00-.18 1.5zm-78.241-3.5l.741 1.46c.328.63.499 1.33.5 2.04V217h35v-39.5c0-.71.171-1.41.5-2.04l.74-1.46h-37.481zm34.241 3.5V215h-31v-37.5a6.27 6.27 0 00-.181-1.5h31.361a6.219 6.219 0 00-.18 1.5zm-78.241-3.5l.74 1.46c.329.63.5 1.33.5 2.04V217h35.001v-39.5c0-.71.171-1.41.5-2.04l.74-1.46h-37.481zm34.24 3.5V215h-31v-37.5a6.219 6.219 0 00-.18-1.5h31.361a6.27 6.27 0 00-.181 1.5zm-78.24-3.5l.74 1.46c.329.63.5 1.33.5 2.04V217h35v-39.5c.001-.71.172-1.41.5-2.04l.741-1.46h-37.481zm34.24 3.5V215h-31v-37.5a6.219 6.219 0 00-.18-1.5h31.361a6.27 6.27 0 00-.181 1.5zm-78.24-3.5l.74 1.46c.329.63.5 1.33.5 2.04V217h35v-39.5c.001-.71.172-1.41.5-2.04l.741-1.46h-37.481zm34.24 3.5V215h-31v-37.5a6.219 6.219 0 00-.18-1.5h31.361a6.27 6.27 0 00-.181 1.5zm317.76-3.5l.741 1.46c.328.63.499 1.33.5 2.04V217h35v-39.5c0-.71.171-1.41.5-2.04l.74-1.46h-37.481zm34.241 3.5V215h-31v-37.5a6.27 6.27 0 00-.181-1.5h31.361a6.219 6.219 0 00-.18 1.5zm-78.241-3.5l.741 1.46c.328.63.499 1.33.5 2.04V217h35v-39.5c0-.71.171-1.41.5-2.04l.74-1.46h-37.481zm34.241 3.5V215h-31v-37.5a6.27 6.27 0 00-.181-1.5h31.361a6.219 6.219 0 00-.18 1.5zm-78.241-3.5l.741 1.46c.328.63.499 1.33.5 2.04V217h35v-39.5c0-.71.171-1.41.5-2.04l.74-1.46h-37.481zm34.241 3.5V215h-31v-37.5a6.27 6.27 0 00-.181-1.5h31.361a6.219 6.219 0 00-.18 1.5zm-78.241-3.5l.741 1.46c.328.63.499 1.33.5 2.04V217h35v-39.5c0-.71.171-1.41.5-2.04l.74-1.46h-37.481zm34.241 3.5V215h-31v-37.5a6.27 6.27 0 00-.181-1.5h31.361a6.219 6.219 0 00-.18 1.5zm-78.241-3.5l.741 1.46c.328.63.499 1.33.5 2.04V217h35v-39.5c0-.71.171-1.41.5-2.04l.74-1.46h-37.481zm34.241 3.5V215h-31v-37.5a6.27 6.27 0 00-.181-1.5h31.361a6.219 6.219 0 00-.18 1.5zm-78.241-3.5l.741 1.46c.328.63.499 1.33.5 2.04V217h35v-39.5c0-.71.171-1.41.5-2.04l.74-1.46h-37.481zm34.241 3.5V215h-31v-37.5a6.27 6.27 0 00-.181-1.5h31.361a6.219 6.219 0 00-.18 1.5zm-78.241-3.5l.74 1.46c.329.63.5 1.33.5 2.04V217h35.001v-39.5c0-.71.171-1.41.5-2.04l.74-1.46h-37.481zm34.24 3.5V215h-31v-37.5a6.219 6.219 0 00-.18-1.5h31.361a6.27 6.27 0 00-.181 1.5zm-78.24-3.5l.74 1.46c.329.63.5 1.33.5 2.04V217h35v-39.5c.001-.71.172-1.41.5-2.04l.741-1.46h-37.481zm34.24 3.5V215h-31v-37.5a6.219 6.219 0 00-.18-1.5h31.361a6.27 6.27 0 00-.181 1.5zm-78.24-3.5l.74 1.46c.329.63.5 1.33.5 2.04V217h35v-39.5c.001-.71.172-1.41.5-2.04l.741-1.46h-37.481zm34.24 3.5V215h-31v-37.5a6.219 6.219 0 00-.18-1.5h31.361a6.27 6.27 0 00-.181 1.5zm317.76-3.5l.741 1.46c.328.63.499 1.33.5 2.04V217h35v-39.5c0-.71.171-1.41.5-2.04l.74-1.46h-37.481zm34.241 3.5V215h-31v-37.5a6.27 6.27 0 00-.181-1.5h31.361a6.219 6.219 0 00-.18 1.5zm-78.241-3.5l.741 1.46c.328.63.499 1.33.5 2.04V217h35v-39.5c0-.71.171-1.41.5-2.04l.74-1.46h-37.481zm34.241 3.5V215h-31v-37.5a6.27 6.27 0 00-.181-1.5h31.361a6.219 6.219 0 00-.18 1.5zm-78.241-3.5l.741 1.46c.328.63.499 1.33.5 2.04V217h35v-39.5c0-.71.171-1.41.5-2.04l.74-1.46h-37.481zm34.241 3.5V215h-31v-37.5a6.27 6.27 0 00-.181-1.5h31.361a6.219 6.219 0 00-.18 1.5zm-78.241-3.5l.741 1.46c.328.63.499 1.33.5 2.04V217h35v-39.5c0-.71.171-1.41.5-2.04l.74-1.46h-37.481zm34.241 3.5V215h-31v-37.5a6.27 6.27 0 00-.181-1.5h31.361a6.219 6.219 0 00-.18 1.5zm-78.241-3.5l.741 1.46c.328.63.499 1.33.5 2.04V217h35v-39.5c0-.71.171-1.41.5-2.04l.74-1.46h-37.481zm34.241 3.5V215h-31v-37.5a6.27 6.27 0 00-.181-1.5h31.361a6.219 6.219 0 00-.18 1.5zm-78.241-3.5l.741 1.46c.328.63.499 1.33.5 2.04V217h35v-39.5c0-.71.171-1.41.5-2.04l.74-1.46h-37.481zm34.241 3.5V215h-31v-37.5a6.27 6.27 0 00-.181-1.5h31.361a6.219 6.219 0 00-.18 1.5zm-78.241-3.5l.74 1.46c.329.63.5 1.33.5 2.04V217h35.001v-39.5c0-.71.171-1.41.5-2.04l.74-1.46h-37.481zm34.24 3.5V215h-31v-37.5a6.219 6.219 0 00-.18-1.5h31.361a6.27 6.27 0 00-.181 1.5zm-78.24-3.5l.74 1.46c.329.63.5 1.33.5 2.04V217h35v-39.5c.001-.71.172-1.41.5-2.04l.741-1.46h-37.481zm34.24 3.5V215h-31v-37.5a6.219 6.219 0 00-.18-1.5h31.361a6.27 6.27 0 00-.181 1.5zm-78.24-3.5l.74 1.46c.329.63.5 1.33.5 2.04V217h35v-39.5c.001-.71.172-1.41.5-2.04l.741-1.46h-37.481zm34.24 3.5V215h-31v-37.5a6.219 6.219 0 00-.18-1.5h31.361a6.27 6.27 0 00-.181 1.5zm317.76-3.5l.741 1.46c.328.63.499 1.33.5 2.04V217h35v-39.5c0-.71.171-1.41.5-2.04l.74-1.46h-37.481zm34.241 3.5V215h-31v-37.5a6.27 6.27 0 00-.181-1.5h31.361a6.219 6.219 0 00-.18 1.5zm-78.241-3.5l.741 1.46c.328.63.499 1.33.5 2.04V217h35v-39.5c0-.71.171-1.41.5-2.04l.74-1.46h-37.481zm34.241 3.5V215h-31v-37.5a6.27 6.27 0 00-.181-1.5h31.361a6.219 6.219 0 00-.18 1.5zm-78.241-3.5l.741 1.46c.328.63.499 1.33.5 2.04V217h35v-39.5c0-.71.171-1.41.5-2.04l.74-1.46h-37.481zm34.241 3.5V215h-31v-37.5a6.27 6.27 0 00-.181-1.5h31.361a6.219 6.219 0 00-.18 1.5zm-78.241-3.5l.741 1.46c.328.63.499 1.33.5 2.04V217h35v-39.5c0-.71.171-1.41.5-2.04l.74-1.46h-37.481zm34.241 3.5V215h-31v-37.5a6.27 6.27 0 00-.181-1.5h31.361a6.219 6.219 0 00-.18 1.5zm-78.241-3.5l.741 1.46c.328.63.499 1.33.5 2.04V217h35v-39.5c0-.71.171-1.41.5-2.04l.74-1.46h-37.481zm34.241 3.5V215h-31v-37.5a6.27 6.27 0 00-.181-1.5h31.361a6.219 6.219 0 00-.18 1.5zm-78.241-3.5l.741 1.46c.328.63.499 1.33.5 2.04V217h35v-39.5c0-.71.171-1.41.5-2.04l.74-1.46h-37.481zm34.241 3.5V215h-31v-37.5a6.27 6.27 0 00-.181-1.5h31.361a6.219 6.219 0 00-.18 1.5zm-78.241-3.5l.74 1.46c.329.63.5 1.33.5 2.04V217h35.001v-39.5c0-.71.171-1.41.5-2.04l.74-1.46h-37.481zm34.24 3.5V215h-31v-37.5a6.219 6.219 0 00-.18-1.5h31.361a6.27 6.27 0 00-.181 1.5zm-78.24-3.5l.74 1.46c.329.63.5 1.33.5 2.04V217h35v-39.5c.001-.71.172-1.41.5-2.04l.741-1.46h-37.481zm34.24 3.5V215h-31v-37.5a6.219 6.219 0 00-.18-1.5h31.361a6.27 6.27 0 00-.181 1.5zm-78.24-3.5l.74 1.46c.329.63.5 1.33.5 2.04V217h35v-39.5c.001-.71.172-1.41.5-2.04l.741-1.46h-37.481zm34.24 3.5V215h-31v-37.5a6.219 6.219 0 00-.18-1.5h31.361a6.27 6.27 0 00-.181 1.5zm317.76-3.5l.741 1.46c.328.63.499 1.33.5 2.04V217h35v-39.5c0-.71.171-1.41.5-2.04l.74-1.46h-37.481zm34.241 3.5V215h-31v-37.5a6.27 6.27 0 00-.181-1.5h31.361a6.219 6.219 0 00-.18 1.5zm-77.5-2.04c.328.63.499 1.33.5 2.04V217h35v-39.5c0-.71.171-1.41.5-2.04l.74-1.46h-37.481l.741 1.46zm33.68.54a6.219 6.219 0 00-.18 1.5V215h-31v-37.5a6.27 6.27 0 00-.181-1.5h31.361zm-77.68-.54c.328.63.499 1.33.5 2.04V217h35v-39.5c0-.71.171-1.41.5-2.04l.74-1.46h-37.481l.741 1.46zm33.68.54a6.219 6.219 0 00-.18 1.5V215h-31v-37.5a6.27 6.27 0 00-.181-1.5h31.361zm-77.68-.54c.328.63.499 1.33.5 2.04V217h35v-39.5c0-.71.171-1.41.5-2.04l.74-1.46h-37.481l.741 1.46zm33.68.54a6.219 6.219 0 00-.18 1.5V215h-31v-37.5a6.27 6.27 0 00-.181-1.5h31.361zm-77.68-.54c.328.63.499 1.33.5 2.04V217h35v-39.5c0-.71.171-1.41.5-2.04l.74-1.46h-37.481l.741 1.46zm33.68.54a6.219 6.219 0 00-.18 1.5V215h-31v-37.5a6.27 6.27 0 00-.181-1.5h31.361zm-77.68-.54c.328.63.499 1.33.5 2.04V217h35v-39.5c0-.71.171-1.41.5-2.04l.74-1.46h-37.481l.741 1.46zm33.68.54a6.219 6.219 0 00-.18 1.5V215h-31v-37.5a6.27 6.27 0 00-.181-1.5h31.361zm-77.681-.54c.329.63.5 1.33.5 2.04V217h35.001v-39.5c0-.71.171-1.41.5-2.04l.74-1.46h-37.481l.74 1.46zm33.681.54a6.27 6.27 0 00-.181 1.5V215h-31v-37.5a6.219 6.219 0 00-.18-1.5h31.361zm-77.681-.54c.329.63.5 1.33.5 2.04V217h35v-39.5c.001-.71.172-1.41.5-2.04l.741-1.46h-37.481l.74 1.46zm33.681.54a6.27 6.27 0 00-.181 1.5V215h-31v-37.5a6.219 6.219 0 00-.18-1.5h31.361zm-77.681-.54c.329.63.5 1.33.5 2.04V217h35v-39.5c.001-.71.172-1.41.5-2.04l.741-1.46h-37.481l.74 1.46zm33.681.54a6.27 6.27 0 00-.181 1.5V215h-31v-37.5a6.219 6.219 0 00-.18-1.5h31.361zm318.32-.54c.328.63.499 1.33.5 2.04V217h35v-39.5c0-.71.171-1.41.5-2.04l.74-1.46h-37.481l.741 1.46zm33.68.54a6.219 6.219 0 00-.18 1.5V215h-31v-37.5a6.27 6.27 0 00-.181-1.5h31.361zm-77.68-.54c.328.63.499 1.33.5 2.04V217h35v-39.5c0-.71.171-1.41.5-2.04l.74-1.46h-37.481l.741 1.46zm33.68.54a6.219 6.219 0 00-.18 1.5V215h-31v-37.5a6.27 6.27 0 00-.181-1.5h31.361zm-77.68-.54c.328.63.499 1.33.5 2.04V217h35v-39.5c0-.71.171-1.41.5-2.04l.74-1.46h-37.481l.741 1.46zm33.68.54a6.219 6.219 0 00-.18 1.5V215h-31v-37.5a6.27 6.27 0 00-.181-1.5h31.361zm-77.68-.54c.328.63.499 1.33.5 2.04V217h35v-39.5c0-.71.171-1.41.5-2.04l.74-1.46h-37.481l.741 1.46zm33.68.54a6.219 6.219 0 00-.18 1.5V215h-31v-37.5a6.27 6.27 0 00-.181-1.5h31.361zm-77.68-.54c.328.63.499 1.33.5 2.04V217h35v-39.5c0-.71.171-1.41.5-2.04l.74-1.46h-37.481l.741 1.46zm33.68.54a6.219 6.219 0 00-.18 1.5V215h-31v-37.5a6.27 6.27 0 00-.181-1.5h31.361zm-77.68-.54c.328.63.499 1.33.5 2.04V217h35v-39.5c0-.71.171-1.41.5-2.04l.74-1.46h-37.481l.741 1.46zm33.68.54a6.219 6.219 0 00-.18 1.5V215h-31v-37.5a6.27 6.27 0 00-.181-1.5h31.361zm-77.681-.54c.329.63.5 1.33.5 2.04V217h35.001v-39.5c0-.71.171-1.41.5-2.04l.74-1.46h-37.481l.74 1.46zm33.681.54a6.27 6.27 0 00-.181 1.5V215h-31v-37.5a6.219 6.219 0 00-.18-1.5h31.361zm-77.681-.54c.329.63.5 1.33.5 2.04V217h35v-39.5c.001-.71.172-1.41.5-2.04l.741-1.46h-37.481l.74 1.46zm33.681.54a6.27 6.27 0 00-.181 1.5V215h-31v-37.5a6.219 6.219 0 00-.18-1.5h31.361zm-77.681-.54c.329.63.5 1.33.5 2.04V217h35v-39.5c.001-.71.172-1.41.5-2.04l.741-1.46h-37.481l.74 1.46zm33.681.54a6.27 6.27 0 00-.181 1.5V215h-31v-37.5a6.219 6.219 0 00-.18-1.5h31.361zm393.82 47h-11.92a11.034 11.034 0 00-10.58-8h-6.5v-37.5a6.264 6.264 0 00-.451-2.35 5.99 5.99 0 00.591-9.925 5.992 5.992 0 00-3.64-1.225H287.771a5.992 5.992 0 00-5.787 4.409 5.988 5.988 0 002.738 6.741 6.264 6.264 0 00-.451 2.35V215h-6.5a11.03 11.03 0 00-10.58 8h-12.92a9.015 9.015 0 00-9 9v528a9.018 9.018 0 009 9h468.001a9.013 9.013 0 009-9V232a9.015 9.015 0 00-9-9zm7 537a7.008 7.008 0 01-4.57 6.56c-.776.295-1.6.445-2.43.44H254.271a6.726 6.726 0 01-2.43-.44 7.008 7.008 0 01-4.57-6.56V232a7.012 7.012 0 017-7h14.521l.16-.8a9.03 9.03 0 018.819-7.2h8.5v-39.5a4.497 4.497 0 01.641-2.31l.619-1.03-1.13-.42a3.986 3.986 0 01-1.199-6.811 3.992 3.992 0 012.569-.929h402a3.988 3.988 0 013.465 5.985 3.985 3.985 0 01-2.094 1.755l-1.13.42.619 1.03c.419.698.64 1.496.64 2.31V217h8.5a9.034 9.034 0 018.82 7.2l.16.8h13.52a7.006 7.006 0 017 7l.001 528zM294.031 174l.74 1.46c.329.63.5 1.33.5 2.04V217h35v-39.5c.001-.71.172-1.41.5-2.04l.741-1.46h-37.481zm34.24 3.5V215h-31v-37.5a6.219 6.219 0 00-.18-1.5h31.361a6.27 6.27 0 00-.181 1.5zm9.76-3.5l.74 1.46c.329.63.5 1.33.5 2.04V217h35v-39.5c.001-.71.172-1.41.5-2.04l.741-1.46h-37.481zm34.24 3.5V215h-31v-37.5a6.219 6.219 0 00-.18-1.5h31.361a6.27 6.27 0 00-.181 1.5zm9.76-3.5l.74 1.46c.329.63.5 1.33.5 2.04V217h35.001v-39.5c0-.71.171-1.41.5-2.04l.74-1.46h-37.481zm34.24 3.5V215h-31v-37.5a6.219 6.219 0 00-.18-1.5h31.361a6.27 6.27 0 00-.181 1.5zm9.76-3.5l.741 1.46c.328.63.499 1.33.5 2.04V217h35v-39.5c0-.71.171-1.41.5-2.04l.74-1.46h-37.481zm34.241 3.5V215h-31v-37.5a6.27 6.27 0 00-.181-1.5h31.361a6.219 6.219 0 00-.18 1.5zm9.759-3.5l.741 1.46c.328.63.499 1.33.5 2.04V217h35v-39.5c0-.71.171-1.41.5-2.04l.74-1.46h-37.481zm34.241 3.5V215h-31v-37.5a6.27 6.27 0 00-.181-1.5h31.361a6.219 6.219 0 00-.18 1.5zm9.759-3.5l.741 1.46c.328.63.499 1.33.5 2.04V217h35v-39.5c0-.71.171-1.41.5-2.04l.74-1.46h-37.481zm34.241 3.5V215h-31v-37.5a6.27 6.27 0 00-.181-1.5h31.361a6.219 6.219 0 00-.18 1.5zm9.759-3.5l.741 1.46c.328.63.499 1.33.5 2.04V217h35v-39.5c0-.71.171-1.41.5-2.04l.74-1.46h-37.481zm34.241 3.5V215h-31v-37.5a6.27 6.27 0 00-.181-1.5h31.361a6.219 6.219 0 00-.18 1.5zm9.759-3.5l.741 1.46c.328.63.499 1.33.5 2.04V217h35v-39.5c0-.71.171-1.41.5-2.04l.74-1.46h-37.481zm34.241 3.5V215h-31v-37.5a6.27 6.27 0 00-.181-1.5h31.361a6.219 6.219 0 00-.18 1.5zm9.759-3.5l.741 1.46c.328.63.499 1.33.5 2.04V217h35v-39.5c0-.71.171-1.41.5-2.04l.74-1.46h-37.481zm34.241 3.5V215h-31v-37.5a6.27 6.27 0 00-.181-1.5h31.361a6.219 6.219 0 00-.18 1.5zM294.031 174l.74 1.46c.329.63.5 1.33.5 2.04V217h35v-39.5c.001-.71.172-1.41.5-2.04l.741-1.46h-37.481zm34.24 3.5V215h-31v-37.5a6.219 6.219 0 00-.18-1.5h31.361a6.27 6.27 0 00-.181 1.5zm9.76-3.5l.74 1.46c.329.63.5 1.33.5 2.04V217h35v-39.5c.001-.71.172-1.41.5-2.04l.741-1.46h-37.481zm34.24 3.5V215h-31v-37.5a6.219 6.219 0 00-.18-1.5h31.361a6.27 6.27 0 00-.181 1.5zm9.76-3.5l.74 1.46c.329.63.5 1.33.5 2.04V217h35.001v-39.5c0-.71.171-1.41.5-2.04l.74-1.46h-37.481zm34.24 3.5V215h-31v-37.5a6.219 6.219 0 00-.18-1.5h31.361a6.27 6.27 0 00-.181 1.5zm9.76-3.5l.741 1.46c.328.63.499 1.33.5 2.04V217h35v-39.5c0-.71.171-1.41.5-2.04l.74-1.46h-37.481zm34.241 3.5V215h-31v-37.5a6.27 6.27 0 00-.181-1.5h31.361a6.219 6.219 0 00-.18 1.5zm9.759-3.5l.741 1.46c.328.63.499 1.33.5 2.04V217h35v-39.5c0-.71.171-1.41.5-2.04l.74-1.46h-37.481zm34.241 3.5V215h-31v-37.5a6.27 6.27 0 00-.181-1.5h31.361a6.219 6.219 0 00-.18 1.5zm9.759-3.5l.741 1.46c.328.63.499 1.33.5 2.04V217h35v-39.5c0-.71.171-1.41.5-2.04l.74-1.46h-37.481zm34.241 3.5V215h-31v-37.5a6.27 6.27 0 00-.181-1.5h31.361a6.219 6.219 0 00-.18 1.5zm9.759-3.5l.741 1.46c.328.63.499 1.33.5 2.04V217h35v-39.5c0-.71.171-1.41.5-2.04l.74-1.46h-37.481zm34.241 3.5V215h-31v-37.5a6.27 6.27 0 00-.181-1.5h31.361a6.219 6.219 0 00-.18 1.5zm9.759-3.5l.741 1.46c.328.63.499 1.33.5 2.04V217h35v-39.5c0-.71.171-1.41.5-2.04l.74-1.46h-37.481zm34.241 3.5V215h-31v-37.5a6.27 6.27 0 00-.181-1.5h31.361a6.219 6.219 0 00-.18 1.5zm9.759-3.5l.741 1.46c.328.63.499 1.33.5 2.04V217h35v-39.5c0-.71.171-1.41.5-2.04l.74-1.46h-37.481zm34.241 3.5V215h-31v-37.5a6.27 6.27 0 00-.181-1.5h31.361a6.219 6.219 0 00-.18 1.5zM294.031 174l.74 1.46c.329.63.5 1.33.5 2.04V217h35v-39.5c.001-.71.172-1.41.5-2.04l.741-1.46h-37.481zm34.24 3.5V215h-31v-37.5a6.219 6.219 0 00-.18-1.5h31.361a6.27 6.27 0 00-.181 1.5zm9.76-3.5l.74 1.46c.329.63.5 1.33.5 2.04V217h35v-39.5c.001-.71.172-1.41.5-2.04l.741-1.46h-37.481zm34.24 3.5V215h-31v-37.5a6.219 6.219 0 00-.18-1.5h31.361a6.27 6.27 0 00-.181 1.5zm9.76-3.5l.74 1.46c.329.63.5 1.33.5 2.04V217h35.001v-39.5c0-.71.171-1.41.5-2.04l.74-1.46h-37.481zm34.24 3.5V215h-31v-37.5a6.219 6.219 0 00-.18-1.5h31.361a6.27 6.27 0 00-.181 1.5zm9.76-3.5l.741 1.46c.328.63.499 1.33.5 2.04V217h35v-39.5c0-.71.171-1.41.5-2.04l.74-1.46h-37.481zm34.241 3.5V215h-31v-37.5a6.27 6.27 0 00-.181-1.5h31.361a6.219 6.219 0 00-.18 1.5zm9.759-3.5l.741 1.46c.328.63.499 1.33.5 2.04V217h35v-39.5c0-.71.171-1.41.5-2.04l.74-1.46h-37.481zm34.241 3.5V215h-31v-37.5a6.27 6.27 0 00-.181-1.5h31.361a6.219 6.219 0 00-.18 1.5zm9.759-3.5l.741 1.46c.328.63.499 1.33.5 2.04V217h35v-39.5c0-.71.171-1.41.5-2.04l.74-1.46h-37.481zm34.241 3.5V215h-31v-37.5a6.27 6.27 0 00-.181-1.5h31.361a6.219 6.219 0 00-.18 1.5zm9.759-3.5l.741 1.46c.328.63.499 1.33.5 2.04V217h35v-39.5c0-.71.171-1.41.5-2.04l.74-1.46h-37.481zm34.241 3.5V215h-31v-37.5a6.27 6.27 0 00-.181-1.5h31.361a6.219 6.219 0 00-.18 1.5zm9.759-3.5l.741 1.46c.328.63.499 1.33.5 2.04V217h35v-39.5c0-.71.171-1.41.5-2.04l.74-1.46h-37.481zm34.241 3.5V215h-31v-37.5a6.27 6.27 0 00-.181-1.5h31.361a6.219 6.219 0 00-.18 1.5zm9.759-3.5l.741 1.46c.328.63.499 1.33.5 2.04V217h35v-39.5c0-.71.171-1.41.5-2.04l.74-1.46h-37.481zm34.241 3.5V215h-31v-37.5a6.27 6.27 0 00-.181-1.5h31.361a6.219 6.219 0 00-.18 1.5zM294.031 174l.74 1.46c.329.63.5 1.33.5 2.04V217h35v-39.5c.001-.71.172-1.41.5-2.04l.741-1.46h-37.481zm34.24 3.5V215h-31v-37.5a6.219 6.219 0 00-.18-1.5h31.361a6.27 6.27 0 00-.181 1.5zm9.76-3.5l.74 1.46c.329.63.5 1.33.5 2.04V217h35v-39.5c.001-.71.172-1.41.5-2.04l.741-1.46h-37.481zm34.24 3.5V215h-31v-37.5a6.219 6.219 0 00-.18-1.5h31.361a6.27 6.27 0 00-.181 1.5zm9.76-3.5l.74 1.46c.329.63.5 1.33.5 2.04V217h35.001v-39.5c0-.71.171-1.41.5-2.04l.74-1.46h-37.481zm34.24 3.5V215h-31v-37.5a6.219 6.219 0 00-.18-1.5h31.361a6.27 6.27 0 00-.181 1.5zm9.76-3.5l.741 1.46c.328.63.499 1.33.5 2.04V217h35v-39.5c0-.71.171-1.41.5-2.04l.74-1.46h-37.481zm34.241 3.5V215h-31v-37.5a6.27 6.27 0 00-.181-1.5h31.361a6.219 6.219 0 00-.18 1.5zm9.759-3.5l.741 1.46c.328.63.499 1.33.5 2.04V217h35v-39.5c0-.71.171-1.41.5-2.04l.74-1.46h-37.481zm34.241 3.5V215h-31v-37.5a6.27 6.27 0 00-.181-1.5h31.361a6.219 6.219 0 00-.18 1.5zm9.759-3.5l.741 1.46c.328.63.499 1.33.5 2.04V217h35v-39.5c0-.71.171-1.41.5-2.04l.74-1.46h-37.481zm34.241 3.5V215h-31v-37.5a6.27 6.27 0 00-.181-1.5h31.361a6.219 6.219 0 00-.18 1.5zm9.759-3.5l.741 1.46c.328.63.499 1.33.5 2.04V217h35v-39.5c0-.71.171-1.41.5-2.04l.74-1.46h-37.481zm34.241 3.5V215h-31v-37.5a6.27 6.27 0 00-.181-1.5h31.361a6.219 6.219 0 00-.18 1.5zm9.759-3.5l.741 1.46c.328.63.499 1.33.5 2.04V217h35v-39.5c0-.71.171-1.41.5-2.04l.74-1.46h-37.481zm34.241 3.5V215h-31v-37.5a6.27 6.27 0 00-.181-1.5h31.361a6.219 6.219 0 00-.18 1.5zm9.759-3.5l.741 1.46c.328.63.499 1.33.5 2.04V217h35v-39.5c0-.71.171-1.41.5-2.04l.74-1.46h-37.481zm34.241 3.5V215h-31v-37.5a6.27 6.27 0 00-.181-1.5h31.361a6.219 6.219 0 00-.18 1.5z" fill="#3F3D56"/><path d="M412.924 349H339.18a5.866 5.866 0 01-5.858-5.858v-39.284A5.866 5.866 0 01339.18 298h73.744a5.862 5.862 0 015.858 5.858v39.284a5.866 5.866 0 01-5.858 5.858zm112.219 0H451.4a5.866 5.866 0 01-5.858-5.858v-39.284A5.866 5.866 0 01451.4 298h73.743a5.862 5.862 0 015.858 5.858v39.284a5.86 5.86 0 01-5.858 5.858zm112.22 0h-73.744a5.866 5.866 0 01-5.858-5.858v-39.284a5.866 5.866 0 015.858-5.858h73.744a5.862 5.862 0 015.858 5.858v39.284a5.866 5.866 0 01-5.858 5.858zM412.924 480H339.18a5.862 5.862 0 01-5.858-5.858v-39.284A5.866 5.866 0 01339.18 429h73.744a5.862 5.862 0 015.858 5.858v39.284a5.866 5.866 0 01-5.858 5.858zm112.219 0H451.4a5.862 5.862 0 01-5.858-5.858v-39.284A5.866 5.866 0 01451.4 429h73.743a5.862 5.862 0 015.858 5.858v39.284a5.86 5.86 0 01-5.858 5.858zm112.22 0h-73.744a5.862 5.862 0 01-5.858-5.858v-39.284a5.866 5.866 0 015.858-5.858h73.744a5.862 5.862 0 015.858 5.858v39.284a5.866 5.866 0 01-5.858 5.858zM412.924 611H339.18a5.862 5.862 0 01-5.858-5.858v-39.284A5.866 5.866 0 01339.18 560h73.744a5.862 5.862 0 015.858 5.858v39.284a5.866 5.866 0 01-5.858 5.858zm112.219 0H451.4a5.862 5.862 0 01-5.858-5.858v-39.284A5.866 5.866 0 01451.4 560h73.743a5.862 5.862 0 015.858 5.858v39.284a5.86 5.86 0 01-5.858 5.858zm112.22 0h-73.744a5.862 5.862 0 01-5.858-5.858v-39.284a5.866 5.866 0 015.858-5.858h73.744a5.862 5.862 0 015.858 5.858v39.284a5.866 5.866 0 01-5.858 5.858z" fill="#96b0b7"/><path d="M400.985 354.041h-85.427a7.795 7.795 0 01-7.787-7.787v-45.508a7.798 7.798 0 017.787-7.787h85.427a7.795 7.795 0 017.786 7.787v45.508a7.793 7.793 0 01-7.786 7.787zm-85.427-59.082a5.795 5.795 0 00-5.787 5.787v45.508a5.795 5.795 0 005.787 5.787h85.427a5.795 5.795 0 005.786-5.787v-45.508a5.79 5.79 0 00-5.786-5.787h-85.427zm215.427 59.082h-85.427a7.795 7.795 0 01-7.787-7.787v-45.508a7.798 7.798 0 017.787-7.787h85.427a7.796 7.796 0 017.786 7.787v45.508a7.793 7.793 0 01-7.786 7.787zm-85.427-59.082a5.795 5.795 0 00-5.787 5.787v45.508a5.795 5.795 0 005.787 5.787h85.427a5.795 5.795 0 005.786-5.787v-45.508a5.79 5.79 0 00-5.786-5.787h-85.427zm215.427 59.082h-85.427a7.795 7.795 0 01-7.787-7.787v-45.508a7.798 7.798 0 017.787-7.787h85.427a7.796 7.796 0 017.786 7.787v45.508a7.793 7.793 0 01-7.786 7.787zm-85.427-59.082a5.795 5.795 0 00-5.787 5.787v45.508a5.795 5.795 0 005.787 5.787h85.427a5.795 5.795 0 005.786-5.787v-45.508a5.79 5.79 0 00-5.786-5.787h-85.427zM400.985 485.041h-85.427a7.795 7.795 0 01-7.787-7.787v-45.508a7.798 7.798 0 017.787-7.787h85.427a7.795 7.795 0 017.786 7.787v45.508a7.793 7.793 0 01-7.786 7.787zm-85.427-59.082a5.795 5.795 0 00-5.787 5.787v45.508a5.795 5.795 0 005.787 5.787h85.427a5.795 5.795 0 005.786-5.787v-45.508a5.79 5.79 0 00-5.786-5.787h-85.427zm215.427 59.082h-85.427a7.795 7.795 0 01-7.787-7.787v-45.508a7.798 7.798 0 017.787-7.787h85.427a7.796 7.796 0 017.786 7.787v45.508a7.793 7.793 0 01-7.786 7.787zm-85.427-59.082a5.795 5.795 0 00-5.787 5.787v45.508a5.795 5.795 0 005.787 5.787h85.427a5.795 5.795 0 005.786-5.787v-45.508a5.79 5.79 0 00-5.786-5.787h-85.427zm215.427 59.082h-85.427a7.795 7.795 0 01-7.787-7.787v-45.508a7.798 7.798 0 017.787-7.787h85.427a7.796 7.796 0 017.786 7.787v45.508a7.793 7.793 0 01-7.786 7.787zm-85.427-59.082a5.795 5.795 0 00-5.787 5.787v45.508a5.795 5.795 0 005.787 5.787h85.427a5.795 5.795 0 005.786-5.787v-45.508a5.79 5.79 0 00-5.786-5.787h-85.427zM400.985 616.041h-85.427a7.795 7.795 0 01-7.787-7.787v-45.508a7.798 7.798 0 017.787-7.787h85.427a7.795 7.795 0 017.786 7.787v45.508a7.793 7.793 0 01-7.786 7.787zm-85.427-59.082a5.795 5.795 0 00-5.787 5.787v45.508a5.795 5.795 0 005.787 5.787h85.427a5.795 5.795 0 005.786-5.787v-45.508a5.79 5.79 0 00-5.786-5.787h-85.427zm215.427 59.082h-85.427a7.795 7.795 0 01-7.787-7.787v-45.508a7.798 7.798 0 017.787-7.787h85.427a7.796 7.796 0 017.786 7.787v45.508a7.793 7.793 0 01-7.786 7.787zm-85.427-59.082a5.795 5.795 0 00-5.787 5.787v45.508a5.795 5.795 0 005.787 5.787h85.427a5.795 5.795 0 005.786-5.787v-45.508a5.79 5.79 0 00-5.786-5.787h-85.427zm215.427 59.082h-85.427a7.795 7.795 0 01-7.787-7.787v-45.508a7.798 7.798 0 017.787-7.787h85.427a7.796 7.796 0 017.786 7.787v45.508a7.793 7.793 0 01-7.786 7.787zm-85.427-59.082a5.795 5.795 0 00-5.787 5.787v45.508a5.795 5.795 0 005.787 5.787h85.427a5.795 5.795 0 005.786-5.787v-45.508a5.79 5.79 0 00-5.786-5.787h-85.427zM1009 770.5H1a.998.998 0 01-1-1 1 1 0 011-1h1008a1 1 0 01.71.293c.18.187.29.442.29.707 0 .265-.11.52-.29.707a1 1 0 01-.71.293z" fill="#3F3D56"/><path d="M538.771 673.71a8.605 8.605 0 00-8.5-8.71h-42v103.5h50.5v-94.79z" fill="#3F3D56"/><path d="M489.271 767.5h-52.5V674a9.51 9.51 0 019.5-9.5h43v103zm-50.5-2h48.5v-99h-41a7.506 7.506 0 00-7.5 7.5v91.5z" fill="#3F3D56"/><path d="M443.271 723a3 3 0 100-6 3 3 0 000 6z" fill="#3F3D56"/></g><defs><clipPath id="clip0_673_107"><rect width="100%" height="466" fill="#fff"/></clipPath></defs></svg>