<svg height="466" viewBox="0 0 909 453" fill="none" xmlns="http://www.w3.org/2000/svg"><g clip-path="url(#clip0_674_148)"><path d="M248.187 370.501c24.677 0 44.682-20.005 44.682-44.682 0-24.678-20.005-44.683-44.682-44.683-24.677 0-44.682 20.005-44.682 44.683 0 24.677 20.005 44.682 44.682 44.682z" fill="#E4E4E4"/><path opacity=".2" d="M215.195 295.974a44.686 44.686 0 0074.454 47.291 44.685 44.685 0 01-47.002 26.729 44.686 44.686 0 01-38.346-38.121 44.698 44.698 0 0110.894-35.899z" fill="#000"/><path d="M248.31 325.819h.122l2.21 126.681h-4.665l2.333-126.681z" fill="#3F3D56"/><path d="M157.782 287.175c49.754 0 90.087-40.334 90.087-90.088 0-49.753-40.333-90.087-90.087-90.087-49.754 0-90.088 40.334-90.088 90.087 0 49.754 40.334 90.088 90.088 90.088z" fill="#E4E4E4"/><path opacity=".2" d="M91.264 136.916a90.095 90.095 0 00150.112 95.346 90.092 90.092 0 01-131.149 40.64 90.092 90.092 0 01-18.963-135.986z" fill="#000"/><path d="M158.029 197.087h.248l4.455 255.413h-9.405l4.702-255.413z" fill="#3F3D56"/><path d="M751.731 320.3H338.809v122.407h412.922V320.3z" fill="#F0F0F0"/><path d="M569.343 345.597h-48.147v97.11h48.147v-97.11z" fill="#CACACA"/><path d="M727.657 175.859H362.882v112.615h364.775V175.859z" fill="#F0F0F0"/><path d="M764.639 182.795H325.901a3.673 3.673 0 01-2.545-6.319L443.263 61.22V11.017a3.678 3.678 0 013.673-3.673h23.665a3.678 3.678 0 013.672 3.673v20.396l9.057-8.705a81.374 81.374 0 01110.8-1.843l172.964 155.527a3.676 3.676 0 01.973 4.046 3.676 3.676 0 01-3.428 2.357z" fill="#CACACA"/><path d="M459.176 204.421a23.255 23.255 0 0123.258 23.257v31.418h-46.515v-31.418a23.245 23.245 0 016.812-16.445 23.256 23.256 0 0116.445-6.812zm86.094.408a23.256 23.256 0 0123.257 23.257v31.418h-46.515v-31.418a23.258 23.258 0 0123.258-23.257zm86.093.408a23.254 23.254 0 0123.257 23.257v31.418h-46.515v-31.418a23.258 23.258 0 0123.258-23.257zm34.274 139.136a23.26 23.26 0 0123.258 23.258v31.418H642.38v-31.418a23.256 23.256 0 0123.257-23.258zm-230.126 0a23.258 23.258 0 0123.257 23.258v31.418h-46.515v-31.418a23.256 23.256 0 0123.258-23.258z" fill="#fff"/><path d="M812.057 322.211l-77.46-34.274a3.261 3.261 0 00-1.32-.279H364.118c-.422 0-.839.081-1.229.24l-84.315 34.274a3.264 3.264 0 001.229 6.288h21.876v112.615h-2.448V452.5h492.078v-11.425h-4.08V328.46h23.507a3.267 3.267 0 003.194-2.589 3.269 3.269 0 00-1.873-3.66zM780.7 441.075H308.207V328.46H780.7v112.615zM488.146 254.608h-59.571v9.792h59.571v-9.792zm87.318 0h-59.572v9.792h59.572v-9.792zm87.317 0h-59.572v9.792h59.572v-9.792z" fill="#CACACA"/><path d="M695.423 395.784h-59.571v9.793h59.571v-9.793zm-230.942 0h-59.572v9.793h59.572v-9.793z" fill="#CACACA"/><path d="M908 453H1a.998.998 0 01-1-1 1 1 0 011-1h907a.997.997 0 011 1 .997.997 0 01-1 1z" fill="#3F3D56"/><path d="M679.866 174.18c0 .64-.01 1.29-.02 1.93a88.26 88.26 0 01-.159 4.29c-.121 2.21-.311 4.41-.571 6.62-.06.56-.129 1.11-.21 1.67-.06.43-.12.87-.19 1.31-.07.49-.14.98-.22 1.47a84.8 84.8 0 01-.54 3.12c-.1.52-.199 1.04-.31 1.56-.21 1.03-.44 2.07-.679 3.1-.02.08-.04.17-.061.25-.12.51-.24 1.01-.37 1.52-.04.15-.069.29-.119.44-.091.38-.191.76-.291 1.14-.139.53-.28 1.05-.429 1.58-.241.82-.48 1.63-.73 2.45a2.608 2.608 0 00-.081.26c-.48 1.55-.99 3.08-1.55 4.6a118.18 118.18 0 01-1.869 4.8c-.321.77-.651 1.54-.98 2.3-.08.18-.161.36-.25.54-.351.79-.711 1.56-1.081 2.33-.01.01-.01.03-.02.04-.29.62-.6 1.24-.91 1.85a.072.072 0 01-.02.05c-.3.6-.61 1.2-.93 1.79l-.51.97-.06.11a87.553 87.553 0 01-2 3.54c-.15.26-.299.52-.449.77-.15.26-.31.52-.471.77-.099.18-.209.36-.33.54-.21.34-.42.69-.64 1.03-.04.07-.09.14-.129.21-.381.59-.76 1.17-1.141 1.76-.47.71-.95 1.41-1.439 2.11l-10.861 17.38-.47-.39-.13-.12h-.01l-.43-.36-1.18-1c-.359.35-.71.7-1.07 1.04-.14.14-.289.27-.43.41-.109.1-.21.2-.32.3a104.717 104.717 0 01-69.98 29.75h-.029a114.3 114.3 0 01-57.03-13.46c-.391-.2-.77-.4-1.151-.63a110.51 110.51 0 01-6.7-3.95c-.01-.01-.02-.01-.03-.02-2.54-1.8-5.02-3.72-7.44-5.76a109.924 109.924 0 01-38.929-89.79c.03-.67.07-1.33.119-2 .161-2.42.407-4.83.74-7.23.09-.67.191-1.34.29-2h213.78c.42 3.06.71 6.136.87 9.23.1 1.93.15 3.85.15 5.78z" fill="#F0F0F0"/><path d="M678.847 159.17a108.09 108.09 0 00-213.78 0c-.1.66-.2 1.33-.29 2-.33 2.4-.577 4.81-.74 7.23h215.68c-.16-3.09-.45-6.167-.87-9.23zm-99.888 111.377h-61.938V221c1.143-22.643 20.496-24.471 38.681-23.256A23.254 23.254 0 01578.959 221v49.547z" fill="#96b0b7"/><path d="M517.016 235.32v.01c0 .01.01.01.02.01l-.02-.02zm-24.91-76.15c-.04.25-.09.5-.13.75.04-.25.09-.5.14-.75h-.01zm-1.24 9.23c-.03.38-.06.76-.08 1.14.02-.38.05-.76.09-1.14a1.64 1.64 0 01.01-.21c-.01.07-.01.14-.02.21zm26.15 66.93c0 .01.01.01.02.01l-.02-.02v.01zm-24.91-76.16c-.04.25-.09.5-.13.75.04-.25.09-.5.14-.75h-.01zm-1.32 10.37c.02-.38.05-.76.09-1.14a1.64 1.64 0 01.01-.21c-.01.07-.01.14-.02.21-.03.38-.06.76-.08 1.14zm308.94 183.96a6.669 6.669 0 00-.62-.58l-.01-.01-49.52-41.79-1.28-1.08-4.869-4.11-1.221-1.03-6.94-5.86-1.9-1.6-3.929-3.32-2.01-1.7-18.96-15.99-10.871-9.17-1.46-1.23-32.03-27.03c.49-.7.97-1.4 1.44-2.11.381-.59.76-1.17 1.141-1.76.039-.07.089-.14.129-.21.22-.34.43-.69.64-1.03.12-.18.23-.36.33-.54.161-.25.32-.51.471-.77.15-.25.299-.51.449-.77.7-1.17 1.36-2.35 2-3.54l.06-.11.51-.97c.32-.59.63-1.19.93-1.79a.072.072 0 00.02-.05c.31-.61.62-1.23.91-1.85.01-.01.01-.03.02-.04.37-.77.73-1.54 1.081-2.33.089-.18.169-.36.25-.54.329-.76.659-1.53.98-2.3a118.18 118.18 0 001.869-4.8c.55-1.53 1.067-3.063 1.55-4.6.023-.088.049-.175.08-.26.25-.82.49-1.63.731-2.45.149-.53.29-1.05.429-1.58.1-.38.2-.76.29-1.14.05-.15.08-.29.12-.44.13-.51.25-1.01.37-1.52l.06-.25c.24-1.03.47-2.07.68-3.1.111-.52.21-1.04.31-1.56.19-1.04.38-2.08.54-3.12.08-.49.15-.98.22-1.47.07-.44.13-.88.19-1.31.081-.56.15-1.11.21-1.67.26-2.21.45-4.41.57-6.62a88.26 88.26 0 00.16-4.29c.01-.64.02-1.29.02-1.93 0-1.93-.05-3.85-.15-5.78A110.047 110.047 0 00574.821 66.041a110.055 110.055 0 00-109.755 93.129c-.1.66-.2 1.33-.29 2-.329 2.4-.576 4.81-.74 7.23-.049.67-.089 1.33-.119 2a109.922 109.922 0 0038.929 89.79c2.42 2.04 4.9 3.96 7.44 5.76.01.01.02.01.03.02.85.6 1.7 1.19 2.56 1.77 1.37.9 2.75 1.78 4.14 2.62.11.06.221.13.33.19 1.2.72 2.411 1.41 3.62 2.08h.01a108.207 108.207 0 0013.99 6.44 110.4 110.4 0 0044.231 6.94h.029a109.748 109.748 0 0049.91-14.77c2.21-1.28 4.39-2.65 6.52-4.11.53-.36 1.07-.73 1.59-1.1.64-.45 1.28-.92 1.92-1.39.01 0 .01-.01.02-.01.048-.04.098-.077.15-.11.43-.33.87-.66 1.29-.98.111-.08.22-.16.33-.25a.484.484 0 00.08-.07c.25-.18.49-.38.74-.57.25-.19.49-.39.74-.59a.894.894 0 00.12-.09c.28-.23.56-.45.84-.68.29-.23.57-.47.84-.7.28-.23.55-.46.83-.7.24-.2.49-.41.73-.63.08-.06.15-.13.23-.2a.762.762 0 01.1-.08c.33-.28.65-.57.97-.86.081-.07.15-.14.23-.21.49-.44.98-.88 1.46-1.34l.34-.31c.11-.1.211-.2.32-.3.141-.14.29-.27.43-.41.36-.34.711-.69 1.07-1.04l1.18 1 .43.36h.01l.13.12.47.39 6.98 5.9.151.13.119.09.79.67 1.58 1.34 1.581 1.33.23.19 7.349 6.2 1.02.86 7.09 5.98 36.7 30.97 1.281 1.08 50.229 42.38 12.88 10.87 4.79 4.04a10.134 10.134 0 0014.29-1.2 9.83 9.83 0 001.69-2.84 10.088 10.088 0 00-2.27-10.87zm-289.67-231.81a82.455 82.455 0 0183.785-26.615 82.458 82.458 0 0139.338 23.359 82.459 82.459 0 0120.828 40.736c.129.67.25 1.33.359 2 .41 2.39.71 4.81.891 7.23.049.67.099 1.33.129 2 .09 1.5.13 3.01.13 4.51a82.062 82.062 0 01-4.46 26.74v.01a81.997 81.997 0 01-14.97 26.38c-.14.16-.28.33-.43.49a73.604 73.604 0 01-4.14 4.49c-.009.01-.02.03-.029.04-.491.49-.991.99-1.491 1.45-1.02.99-2.06 1.93-3.12 2.83a70.857 70.857 0 01-4.889 3.91c-.561.41-1.121.81-1.691 1.21-.559.4-1.13.78-1.7 1.16-1.14.76-2.3 1.49-3.47 2.18-.58.35-1.18.69-1.77 1.02-.59.34-1.19.66-1.79.97-.6.32-1.2.63-1.809.93a64.51 64.51 0 01-3.671 1.71c-.62.28-1.24.54-1.86.78-.39.16-.77.32-1.16.46-.152.07-.309.131-.47.18-.21.09-.42.17-.63.24a1.714 1.714 0 01-.21.08c-.43.17-.85.32-1.29.47-.63.23-1.26.44-1.9.64-.64.21-1.27.41-1.91.59-.64.2-1.29.38-1.93.55-.65.18-1.29.35-1.94.5-.69.18-1.38.34-2.08.49-.61.14-1.21.26-1.82.37-.57.12-1.15.22-1.72.32-.8.14-1.6.27-2.41.38-.44.07-.87.13-1.31.17-.19.03-.37.05-.55.07-.56.08-1.12.14-1.67.19-.15.01-.29.03-.43.04-.61.06-1.23.11-1.84.16-1.31.09-2.61.15-3.92.18-.66.01-1.33.02-1.99.02-.66 0-1.32-.01-1.98-.03 0 0 0 .01-.01 0-.01.01-.01.01-.02 0l-.004.003-.006.001-.005-.001c-.002 0-.003-.002-.005-.003a.17.17 0 01-.1 0c-.47 0-.94-.02-1.4-.05-.34-.01-.69-.02-1.04-.05-.469-.02-.939-.05-1.41-.09-.149 0-.3-.02-.45-.03a1.492 1.492 0 01-.21-.02c-.48-.04-.97-.08-1.45-.13-.24-.02-.489-.04-.73-.07-.73-.08-1.46-.17-2.18-.27-.82-.1-1.64-.22-2.45-.37-.38-.05-.75-.12-1.12-.19-.49-.08-.979-.17-1.47-.27-.51-.1-1.02-.2-1.53-.32-.41-.09-.83-.18-1.24-.28-.2-.04-.4-.09-.59-.14a64.92 64.92 0 01-3.12-.82c-.65-.18-1.3-.37-1.94-.57-.88-.27-1.75-.56-2.62-.87-.34-.11-.67-.23-1.01-.36-.34-.11-.67-.24-1.01-.37-.31-.11-.62-.23-.92-.35-.5-.19-.99-.39-1.48-.59-1.01-.41-2-.84-2.99-1.3-.56-.27-1.12-.53-1.67-.8a75.058 75.058 0 01-6.41-3.5c-.52-.31-1.04-.64-1.56-.97-.65-.4-1.28-.82-1.91-1.24-.35-.24-.69-.47-1.03-.71-.63-.44-1.25-.89-1.86-1.34-.32-.23-.64-.47-.95-.71-1.11-.84-2.2-1.72-3.27-2.62-.51-.43-1.02-.87-1.52-1.32-.21-.18-.42-.37-.63-.56-.24-.22-.48-.43-.71-.66l-.02-.02c-.35-.31-.7-.64-1.04-.97-.53-.5-1.05-1.01-1.55-1.53-.52-.51-1.02-1.04-1.51-1.56-.5-.52-.98-1.05-1.45-1.59-.48-.53-.95-1.07-1.41-1.62-.45-.52-.89-1.06-1.31-1.59a75.95 75.95 0 01-2.92-3.85c-.43-.6-.84-1.2-1.24-1.81-.43-.62-.84-1.25-1.23-1.88-.41-.63-.8-1.27-1.18-1.92a.197.197 0 00-.04-.06c-.75-1.27-1.47-2.55-2.14-3.85a78.84 78.84 0 01-1.95-4c-.31-.67-.61-1.35-.89-2.03-.58-1.37-1.12-2.74-1.62-4.13-.25-.67-.48-1.34-.71-2.02a.49.49 0 00-.04-.13c-.46-1.38-.88-2.77-1.25-4.17-.01-.02-.01-.04-.02-.06-.19-.69-.37-1.38-.53-2.08-.16-.61-.3-1.22-.43-1.84-.15-.69-.3-1.38-.43-2.08-.07-.36-.14-.72-.2-1.08-.06-.3-.11-.61-.16-.91-.05-.3-.1-.61-.15-.92a75.65 75.65 0 01-.53-4c-.09-.87-.17-1.74-.24-2.62-.05-.59-.08-1.19-.11-1.79-.03-.55-.06-1.1-.07-1.65a.139.139 0 010-.09l-.003-.004-.001-.006.001-.005a.022.022 0 01.003-.005c-.01-.01-.01-.01 0-.02l-.003-.004-.001-.006.001-.005a.022.022 0 01.003-.005c-.01-.22-.02-.44-.02-.66-.02-.65-.03-1.3-.03-1.95 0-.59.01-1.17.02-1.76.02-.82.05-1.64.09-2.46 0-.18.02-.35.03-.53l.03-.53c.02-.38.05-.76.09-1.14a1.64 1.64 0 01.01-.21c.03-.43.07-.86.11-1.29.08-.86.18-1.73.29-2.59.06-.43.11-.86.18-1.29.04-.3.09-.61.14-.92.04-.31.09-.62.15-.93.07-.41.14-.83.22-1.25.04-.25.09-.5.14-.75.19-1 .4-2 .63-3 .23-1.01.49-2.01.77-3.01.27-1.01.57-2.02.89-3.03.15-.51.31-1.01.49-1.51.33-1.01.68-2.01 1.07-3 .18-.49.37-.99.58-1.48.4-.99.82-1.98 1.25-2.95.22-.49.44-.98.68-1.47.45-.97.92-1.94 1.43-2.89.49-.97 1.02-1.92 1.56-2.86s1.1-1.88 1.69-2.81c.27-.46.57-.93.88-1.38a82.787 82.787 0 016.02-8.09zm-19.19 46.71c-.03.38-.06.76-.08 1.14.02-.38.05-.76.09-1.14a1.64 1.64 0 01.01-.21c-.01.07-.01.14-.02.21zm1.241-9.23c-.04.25-.091.5-.131.75.04-.25.09-.5.141-.75h-.01zm24.909 76.15v.01c0 .01.01.01.02.01l-.02-.02z" fill="#3F3D56"/><path opacity=".3" d="M519.898 237.879a82.45 82.45 0 01-13.991-110.84 82.459 82.459 0 00-23.714 65.12 82.451 82.451 0 00149.319 40.865 82.456 82.456 0 01-111.614 4.855z" fill="#000"/></g><defs><clipPath id="clip0_674_148"><rect width="100%" height="466" fill="#fff"/></clipPath></defs></svg>