<svg height="466" viewBox="0 0 998 500" fill="none" xmlns="http://www.w3.org/2000/svg"><g clip-path="url(#clip0_674_176)"><path d="M908.534 464.563H506.935c-10.924 0-19.811-9.831-19.811-21.916v-298.65a12.304 12.304 0 016.543-11.124l151.759-91.87a60.334 60.334 0 0153.543-.055l222.793 91.916a12.302 12.302 0 016.583 11.142v298.641c0 12.085-8.887 21.916-19.811 21.916z" fill="#F2F2F2"/><path d="M849.234 464.24H504.371c-9.42 0-17.083-6.94-17.083-15.47V240.011a8.676 8.676 0 015.692-7.927l160.576-64.232a62.51 62.51 0 0145.938-.023l161.121 64.258a8.68 8.68 0 015.702 7.931V448.77c0 8.53-7.664 15.47-17.083 15.47z" fill="#96b0b7"/><path d="M298.685 245.012c27.908 0 50.532-22.624 50.532-50.532 0-27.908-22.624-50.532-50.532-50.532-27.908 0-50.532 22.624-50.532 50.532 0 27.908 22.624 50.532 50.532 50.532z" fill="#FF6584"/><path d="M319.81 378.456c35.347 0 64.001-35.866 64.001-80.109 0-44.244-28.654-80.11-64.001-80.11-35.346 0-64 35.866-64 80.11 0 44.243 28.654 80.109 64 80.109z" fill="#F2F2F2"/><path d="M319.986 282.238h.176l3.165 181.452h-6.681l3.34-181.452z" fill="#CCC"/><path d="M330.903 402.365a1.586 1.586 0 01-.663 2.137l-9.18 4.833-1.474-2.801 9.179-4.832a1.58 1.58 0 012.138.663z" fill="#CCC"/><path d="M135.81 378.456c35.347 0 64.001-35.866 64.001-80.109 0-44.244-28.654-80.11-64.001-80.11-35.346 0-64 35.866-64 80.11 0 44.243 28.654 80.109 64 80.109z" fill="#F2F2F2"/><path d="M146.902 405.365a1.576 1.576 0 00-.931-.774 1.577 1.577 0 00-1.206.111l-6.409 3.374-2.194-125.838h-.176l-3.34 181.452h6.681l-.909-52.07 7.821-4.118c.372-.195.65-.53.774-.931a1.577 1.577 0 00-.111-1.206z" fill="#CCC"/><path d="M227.588 113.73c44.788 0 81.191 84.391 81.191 140.452 0 56.061-36.307 101.508-81.095 101.508s-81.096-45.447-81.096-101.508c0-56.061 36.212-140.452 81-140.452z" fill="#96b0b7"/><path d="M241.738 389.786a1.998 1.998 0 00-1.18-.981 2.008 2.008 0 00-1.528.14l-8.12 4.275-2.781-159.45h-.222l-4.233 229.92h8.466l-1.151-65.979 9.909-5.217a2 2 0 00.981-1.18 2.01 2.01 0 00-.141-1.528z" fill="#3F3D56"/><path d="M596.28 320.778v-21.591a10.62 10.62 0 00-3.109-7.508 10.62 10.62 0 00-7.508-3.109h-54.484a10.62 10.62 0 00-7.508 3.109 10.62 10.62 0 00-3.109 7.508v21.591h75.718zm-75.718 3.391v33.457a10.618 10.618 0 0010.617 10.618h54.484a10.62 10.62 0 0010.617-10.618v-33.457h-75.718z" fill="#fff"/><path d="M853.201 261.515l-163.576-59.963a44.732 44.732 0 00-30.796 0l-163.576 59.963a22.812 22.812 0 01-30.665-21.419 22.813 22.813 0 0114.961-21.42l179.28-65.72a44.743 44.743 0 0130.796 0l179.28 65.72a22.814 22.814 0 0114.961 21.42 22.817 22.817 0 01-9.749 18.702 22.815 22.815 0 01-20.916 2.717zM700.64 465.24h-43.719a17.523 17.523 0 01-17.5-17.5V341.864a17.522 17.522 0 0117.5-17.5h43.719a17.518 17.518 0 0117.5 17.5V447.74a17.523 17.523 0 01-17.5 17.5zm-43.719-137.876a14.515 14.515 0 00-14.5 14.5V447.74a14.514 14.514 0 0014.5 14.5h43.719a14.522 14.522 0 0010.248-4.252 14.522 14.522 0 004.252-10.248V341.864a14.517 14.517 0 00-14.5-14.5h-43.719z" fill="#3F3D56"/><path d="M704.88 99.182a31.636 31.636 0 00-52.863-20.528 31.64 31.64 0 00-10.16 20.528h63.023zm-63.141 3.39a31.637 31.637 0 0031.63 31.078 31.637 31.637 0 0031.629-31.078h-63.259z" fill="#fff"/><path d="M699.927 137.541h-53.116A9.538 9.538 0 01637.27 128a9.541 9.541 0 019.541-9.541h53.116a9.54 9.54 0 110 19.082zm-178.8 219.901a8.538 8.538 0 00-8.541 8.541 8.54 8.54 0 008.541 8.541h74.589a8.54 8.54 0 006.039-14.58 8.54 8.54 0 00-6.039-2.502h-74.589z" fill="#CCC"/><path d="M752.803 324.169v33.457a10.619 10.619 0 0010.618 10.618h54.483a10.619 10.619 0 0010.618-10.618v-33.457h-75.719zm75.719-3.391v-21.591a10.616 10.616 0 00-10.618-10.617h-54.483a10.618 10.618 0 00-10.618 10.617v21.591h75.719z" fill="#fff"/><path d="M704.773 398.192a6.216 6.216 0 100-12.432 6.216 6.216 0 000 12.432zm-208.787-2.215l-24.483-38.084 1.133-.729 23.232 36.139 18.931-36.087 1.192.625-20.005 38.136z" fill="#3F3D56"/><path d="M515.923 345.409h-58.242v-1.01a12.456 12.456 0 00-7.69-11.509 12.455 12.455 0 00-17.223 11.509v1.01h-5.724a12.457 12.457 0 100 24.913h5.724v94.135c24.82-.498-.18.502 24.913 0v-94.135h58.242a12.456 12.456 0 000-24.913z" fill="#3F3D56"/><path d="M444.887 362.242a4.713 4.713 0 100-9.426 4.713 4.713 0 000 9.426z" fill="#fff"/><path d="M523.324 419.974h-53.856a9.608 9.608 0 01-9.594-9.595v-17.497a9.602 9.602 0 019.594-9.594h53.856a9.61 9.61 0 016.782 2.813 9.61 9.61 0 012.813 6.781v17.497a9.61 9.61 0 01-2.813 6.782 9.61 9.61 0 01-6.782 2.813z" fill="#CCC"/><path d="M513.229 397.254H478.89a3.703 3.703 0 000 7.407h34.339a3.703 3.703 0 100-7.407z" fill="#96b0b7"/><path d="M996.402 465.459H.773a.773.773 0 110-1.546h995.629a.774.774 0 01.547 1.32.773.773 0 01-.547.226zm-169.01-89.935h-74.589a9.54 9.54 0 110-19.082h74.589a9.542 9.542 0 010 19.082zm100.196-221.565s-18.088-1.283-55-3c-44-77-187.004-95.56-187.004-150.959H861.35a66.308 66.308 0 0166.308 66.308l-.07 87.651z" fill="#CCC"/><path d="M775.143 20.244a1.504 1.504 0 00-1.5 1.5v50.08a1.5 1.5 0 001.5 1.5h31.195a1.502 1.502 0 001.5-1.5v-50.08a1.505 1.505 0 00-1.5-1.5h-31.195z" fill="#F2F2F2"/><path d="M861.785 149.921L698.209 51.329a44.738 44.738 0 00-30.796 0l-163.576 98.592a22.812 22.812 0 01-30.665-21.42 22.812 22.812 0 0114.961-21.419L667.413 2.733a44.738 44.738 0 0130.796 0l179.28 104.349a22.814 22.814 0 0114.961 21.419 22.818 22.818 0 01-9.749 18.703 22.815 22.815 0 01-20.916 2.717z" fill="#CCC"/></g><defs><clipPath id="clip0_674_176"><rect width="100%" height="466" fill="#fff"/></clipPath></defs></svg>