<svg width="60" height="60" viewBox="0 0 60 60" fill="none" xmlns="http://www.w3.org/2000/svg"><rect width="60" height="60" rx="30" fill="#F7F8FF"/><path d="M20.244 36.393l-4.493 4.494a2.575 2.575 0 003.642 3.642l4.494-4.494a15.023 15.023 0 01-3.643-3.642zm7.448-7.876h-2.504a.628.628 0 00-.625.626v3.091a7.869 7.869 0 003.755 3.455v-6.546a.628.628 0 00-.626-.626zm10.018-3.755h-2.504a.628.628 0 00-.626.626v10.301a7.87 7.87 0 003.755-3.455v-6.846a.627.627 0 00-.626-.626zm-5.008 1.878h-2.504a.628.628 0 00-.626.625v8.85c1.234.3 2.522.3 3.755 0v-8.85a.628.628 0 00-.625-.625z" fill="#9CA5F5"/><path d="M31.452 16a12.516 12.516 0 100 25.033 12.516 12.516 0 000-25.033zm6.885 18.888a9.388 9.388 0 11-13.769-12.765 9.388 9.388 0 0113.768 12.765z" fill="#9CA5F5"/></svg>