<svg width="60" height="60" viewBox="0 0 60 60" fill="none" xmlns="http://www.w3.org/2000/svg"><rect width="60" height="60" rx="30" fill="#F7F8FF"/><path d="M41.37 40.59h-.753V26.67a.705.705 0 00-.706-.705h-2.82a.705.705 0 00-.706.705v13.92h-1.41v-9.216a.705.705 0 00-.706-.705h-2.821a.705.705 0 00-.706.705v9.216h-1.41v-6.63a.705.705 0 00-.705-.705h-2.822a.705.705 0 00-.705.705v6.63h-1.41v-4.937a.705.705 0 00-.706-.705h-2.821a.705.705 0 00-.705.705v4.937h-.753a.705.705 0 000 1.41H41.37a.705.705 0 000-1.41zm-22.665-8.435c4.402 0 9.176-1.58 13.442-4.452 3.34-2.248 6.126-5.12 7.856-8.061l.685 2.556c.084.316.492.588.864.5a.699.699 0 00.498-.865l-1.154-4.31a.705.705 0 00-.864-.499l-4.31 1.155a.705.705 0 00.364 1.363l2.777-.744c-1.614 2.804-4.281 5.567-7.504 7.735-4.035 2.716-8.53 4.211-12.654 4.211a.705.705 0 000 1.411z" fill="#9CA5F5"/></svg>