<svg width="60" height="60" viewBox="0 0 60 60" fill="none" xmlns="http://www.w3.org/2000/svg"><rect width="60" height="60" rx="30" fill="#FEFBEF"/><path d="M16.792 25.794a.96.96 0 01-.792-.946v-1.056a.96.96 0 01.792-.946l1.247-.217a6.47 6.47 0 01.647-1.552l-.73-1.039a.96.96 0 01.107-1.23l.748-.748a.958.958 0 011.227-.108l1.039.734a6.461 6.461 0 011.552-.644l.217-1.247a.96.96 0 01.946-.795h1.059a.96.96 0 01.943.792l.217 1.247a6.457 6.457 0 011.555.647l1.036-.728a.958.958 0 011.227.108l.751.745a.961.961 0 01.108 1.23l-.729 1.036c.213.376.387.772.52 1.183-.31.383-.517.838-.604 1.323l-.101.58-.31.128-.48-.334a2.919 2.919 0 00-1.685-.53c-.096 0-.185.017-.29.026a2.846 2.846 0 10-3.574 3.568 2.928 2.928 0 00.517 1.967l.336.478a10.02 10.02 0 00-.128.31l-.58.102c-.484.087-.94.294-1.323.604a6.49 6.49 0 01-1.183-.52l-1.039.728a.957.957 0 01-1.224-.11l-.748-.748a.96.96 0 01-.108-1.23l.731-1.036a6.453 6.453 0 01-.644-1.552l-1.25-.22zM44 32.756v1.343a1.218 1.218 0 01-1.007 1.198l-1.58.29a8.194 8.194 0 01-.819 1.955l.923 1.317a1.218 1.218 0 01-.137 1.584l-.937.937a1.218 1.218 0 01-1.56.137l-1.34-.923a8.21 8.21 0 01-1.973.818l-.29 1.581A1.218 1.218 0 0134.082 44h-1.317a1.218 1.218 0 01-1.198-1.007l-.29-1.58a8.195 8.195 0 01-1.97-.819L28 41.517a1.218 1.218 0 01-1.56-.137l-.95-.937a1.218 1.218 0 01-.133-1.572l.923-1.329a8.201 8.201 0 01-.818-1.97l-1.581-.29a1.218 1.218 0 01-1.007-1.197v-1.32a1.218 1.218 0 011.004-1.198l1.581-.29a8.19 8.19 0 01.818-1.973L25.358 28a1.218 1.218 0 01.137-1.56l.948-.95a1.219 1.219 0 011.558-.133l1.317.923a8.19 8.19 0 011.97-.818l.29-1.581a1.218 1.218 0 011.198-1.007h1.343a1.218 1.218 0 011.19 1.004l.29 1.581c.68.189 1.334.465 1.944.821l1.328-.922a1.219 1.219 0 011.56.136l.95.948a1.218 1.218 0 01.136 1.561l-.923 1.317c.358.62.633 1.282.818 1.973l1.581.29A1.219 1.219 0 0144 32.764v-.008zm-6.94.682a3.624 3.624 0 10-7.247 0 3.624 3.624 0 007.248 0z" fill="#FFC000"/></svg>