<svg width="60" height="60" viewBox="0 0 60 60" fill="none" xmlns="http://www.w3.org/2000/svg"><rect width="60" height="60" rx="30" fill="#FEFBEF"/><path d="M42.28 39.305c.037.185.037.296.037.481 0 .48-.036.962-.185 1.405-.628 2.294-2.7 3.995-5.215 3.995a5.274 5.274 0 01-3.106-.999c-.63-.406-1.11-.998-1.517-1.627-.48-.814-.813-1.813-.813-2.811 0-2.7 2.034-4.956 4.586-5.363.074-.037.185-.037.259-.037.222-.037.407-.037.592-.037.443 0 .887.074 1.294.185a5.403 5.403 0 014.069 4.808zm-2.293 1.923c.296-.036.37-.48.185-.665-.259-.222-.48-.481-.74-.703-.073-.074-.406-.444-.591-.555 0-.036 0-.11.037-.148.037-.184.074-.406.11-.591.075-.333.112-.666.186-.999.074-.333-.26-.629-.592-.444-.518.296-1.072.555-1.59.85-.518-.295-1.073-.554-1.59-.85-.333-.185-.666.111-.592.444.074.333.11.666.185.999.037.185.037.407.11.591 0 .037 0 .112.037.148-.185.148-.48.481-.591.555-.222.222-.481.48-.74.703-.185.185-.148.629.185.665.333.037.665.111.999.148.147.037.665.111.85.111.037.185.296.629.37.74.148.296.296.592.444.925.148.258.555.258.703 0 .148-.296.296-.592.444-.925.074-.148.332-.592.37-.74.184 0 .702-.11.85-.11.296-.075.629-.112.962-.149zm.628-18.714c0 .776-.222 1.442-.63 2.034-.147.148-.221.259-.332.37a3.43 3.43 0 01-2.515 1.072c-.777 0-1.48-.222-2.071-.665.259-.703.444-1.443.444-2.256 0-1.073-.37-2.109-.888-3.033A3.46 3.46 0 0137.101 19c1.923 0 3.514 1.59 3.514 3.514zm-10.8-3.366a3.843 3.843 0 013.846 3.846 3.843 3.843 0 01-3.846 3.847 3.82 3.82 0 01-3.846-3.847 3.82 3.82 0 013.846-3.846zm-4.659.74a5.539 5.539 0 00-.999 3.217c0 .85.185 1.665.481 2.441-.48.37-1.146.555-1.812.555a3.43 3.43 0 01-2.515-1.072c-.074-.148-.185-.26-.333-.407a3.276 3.276 0 01-.666-2.035c0-1.923 1.59-3.513 3.514-3.513.924-.037 1.701.296 2.33.814zm.37 8.617a9.744 9.744 0 00-2.404 2.627c-1.517 2.293-2.442 5.288-2.404 7.951 0 .37 0 .666.074 1-1.628-.186-3.07-.63-3.773-1.296-.555-.48-.777-1.072-.777-1.812.037-5.807 3.92-9.357 6.658-9.357.813 0 1.775.296 2.626.887z" fill="#FFC000"/><path d="M35.437 32.722c-.185.036-.407.074-.592.148-2.959.887-5.178 3.661-5.178 6.953a7.02 7.02 0 00.629 2.922c-2.108.036-4.29-.222-5.77-.851a4.802 4.802 0 01-1.22-.703 2.978 2.978 0 01-.629-.888 2.53 2.53 0 01-.222-1.072c0-4.512 2.108-7.804 4.401-9.32.481-.37 1-.592 1.48-.777.48-.185.998-.26 1.442-.26.555 0 1.073.149 1.665.37.48.186.961.444 1.442.814.962.518 1.812 1.48 2.552 2.664zm8.323 4.253c0 .185 0 .296-.037.48-.888-2.662-3.366-4.66-6.362-4.881a6.078 6.078 0 00-.814-1.442 9.648 9.648 0 00-2.219-2.479c.962-.628 1.923-.998 2.811-.998 2.774 0 6.621 3.55 6.621 9.32z" fill="#FFC000"/></svg>