<svg width="60" height="60" viewBox="0 0 60 60" fill="none" xmlns="http://www.w3.org/2000/svg"><rect width="60" height="60" rx="30" fill="#F2FCFF"/><path fill-rule="evenodd" clip-rule="evenodd" d="M18.161 17.15c.269-.558.68-.927 1.216-1.085.373-.118.742-.088 2.704.2.265.038.625.092 1.049.155 1.235.184 3.009.447 4.517.669 5.199.765 5.204.768 5.515.917l.01.004c.363.17.726.528.91.891l.142.287.016 11.404L34.25 42h-4.735v-2.888c0-1.72-.021-2.995-.053-3.154a1.94 1.94 0 00-1.094-1.419l-.3-.143h-3.893l-.279.143c-.4.205-.731.517-.92.881l-.169.307-.016 3.134L22.776 42h-1.9c-1.347 0-1.962-.02-2.115-.062-.294-.087-.626-.42-.705-.706-.052-.18-.063-2.842-.052-12.008l.015-11.777.142-.297zm6.819 4.056c-.026-.333-.168-.559-.431-.681-.148-.067-.374-.082-1.258-.082-1.026 0-1.084.005-1.252.117-.258.164-.437.538-.39.81.048.281.337.588.621.665.127.03.584.046 1.163.036 1.068-.015 1.2-.056 1.442-.405.105-.143.12-.225.105-.46zm5.624-.036c-.026-.256-.152-.446-.405-.615-.168-.107-.221-.112-1.263-.112-1.041 0-1.094.005-1.262.112-.253.17-.38.359-.405.615a.794.794 0 00.389.763c.195.117.237.123 1.278.123 1.042 0 1.084-.006 1.279-.123a.793.793 0 00.39-.763zm-5.624 3.313c-.026-.333-.168-.559-.431-.681-.148-.067-.374-.082-1.258-.082-1.026 0-1.084.005-1.252.117-.258.164-.437.538-.39.81.048.281.337.588.621.665.127.03.584.046 1.163.036 1.068-.015 1.2-.056 1.442-.405.105-.143.12-.225.105-.46zm5.624-.036c-.026-.256-.152-.446-.405-.615-.168-.107-.221-.112-1.263-.112-1.041 0-1.094.005-1.262.112-.253.17-.38.359-.405.615a.794.794 0 00.389.763c.195.117.237.123 1.278.123 1.042 0 1.084-.005 1.279-.123a.793.793 0 00.39-.763zM24.98 27.76c-.026-.333-.168-.558-.431-.681-.148-.067-.374-.082-1.258-.082-1.026 0-1.084.005-1.252.118-.258.163-.437.537-.39.809.048.281.337.588.621.665.127.031.584.046 1.163.036 1.068-.015 1.2-.056 1.442-.404.105-.144.12-.226.105-.461zm5.624-.036c-.026-.256-.152-.446-.405-.615-.168-.107-.221-.112-1.263-.112-1.041 0-1.094.005-1.262.112-.253.17-.38.359-.405.615a.794.794 0 00.389.763c.195.118.237.123 1.278.123 1.042 0 1.084-.005 1.279-.123a.793.793 0 00.39-.763zm-5.624 3.313c-.026-.333-.168-.558-.431-.681-.148-.067-.374-.082-1.258-.082-1.026 0-1.084.005-1.252.118-.258.164-.437.537-.39.809.048.281.337.589.621.665.127.031.584.047 1.163.036 1.068-.015 1.2-.056 1.442-.404.105-.144.12-.226.105-.461zM30.604 31c-.026-.256-.152-.445-.405-.614-.168-.108-.221-.113-1.263-.113-1.041 0-1.094.005-1.262.113-.253.169-.38.358-.405.614a.794.794 0 00.389.763c.195.118.237.123 1.278.123 1.042 0 1.084-.005 1.279-.123a.793.793 0 00.39-.763zm4.73 11v-8.125c0-6.463.014-8.125.062-8.125.12 0 7.168 1.614 7.399 1.693.475.166.854.541 1.08 1.062l.125.292v11.719l-.149.338c-.192.438-.48.75-.874.953l-.321.167-3.66.016-3.663.01zm5.454-11.323a.962.962 0 00-.298-.27c-.22-.1-1.945-.1-2.156 0-.322.15-.504.551-.432.952.038.245.34.568.562.615.086.02.571.026 1.08.015.84-.015.932-.026 1.052-.125.25-.203.331-.37.331-.692 0-.25-.024-.334-.14-.495zm0 3.333a.964.964 0 00-.298-.27c-.22-.1-1.945-.1-2.156 0-.322.15-.504.552-.432.953.038.245.34.567.562.614.086.021.571.026 1.08.016.84-.016.932-.026 1.052-.125.25-.203.331-.37.331-.693 0-.25-.024-.333-.14-.495zm0 3.334a.966.966 0 00-.298-.271c-.22-.099-1.945-.099-2.156 0-.322.15-.504.552-.432.953.038.245.34.568.562.614.086.021.571.027 1.08.016.84-.015.932-.026 1.052-.125.25-.203.331-.37.331-.692 0-.25-.024-.334-.14-.495z" fill="#7DDBF9"/></svg>