<svg width="60" height="60" viewBox="0 0 60 60" fill="none" xmlns="http://www.w3.org/2000/svg"><rect width="60" height="60" rx="30" fill="#F7F8FF"/><path fill-rule="evenodd" clip-rule="evenodd" d="M30 19.071h9.714c.668 0 1.214.547 1.214 1.215v19.428c0 .668-.546 1.214-1.214 1.214h-3.643V38.5H38.5v-2.43h-2.43v-2.428h2.43v-2.429h-2.43v-.79a3.633 3.633 0 00-1.202-2.707l-6.071-5.464-.012-.012v-1.955c0-.668.546-1.215 1.214-1.215zm1.214 4.857h2.429V21.5h-2.429v2.428zm4.857 4.858H38.5v-2.429h-2.43v2.429zm0-4.858H38.5V21.5h-2.43v2.428zm-2.428 15.786v-9.29c0-.34-.146-.667-.401-.898l-6.071-5.464a1.166 1.166 0 00-.814-.316c-.291 0-.583.11-.814.316l-6.071 5.464c-.255.219-.4.547-.4.899v9.289c0 .668.546 1.214 1.214 1.214h4.452v-5.093a.69.69 0 01.237-.515.858.858 0 01.572-.213h1.62a.86.86 0 01.572.213.692.692 0 01.237.514v5.094h4.452c.668 0 1.215-.546 1.215-1.214z" fill="#9CA5F5"/></svg>