<svg width="60" height="60" viewBox="0 0 60 60" fill="none" xmlns="http://www.w3.org/2000/svg"><rect width="60" height="60" rx="30" fill="#F7F8FF"/><path d="M37.031 39.844h-2.306l-.468-1.407h-8.513l-.47 1.407H22.97a.703.703 0 100 1.406h14.06a.703.703 0 100-1.406zm2.813-21.094H20.109A2.111 2.111 0 0018 20.86v11.953h4.266v-2.11c0-.388.314-.703.703-.703h1.086a6.42 6.42 0 01.25-.602l-.768-.77a.703.703 0 010-.994l1.988-1.988a.703.703 0 01.994 0l.77.769a6.3 6.3 0 01.602-.25v-1.087c0-.388.314-.703.703-.703h2.812c.389 0 .703.315.703.703v1.087c.205.072.406.156.603.25l.769-.77a.703.703 0 01.994 0l1.988 1.99a.703.703 0 010 .994l-.768.769c.094.197.177.398.25.602h1.086c.389 0 .703.315.703.703v2.11H42V20.858c0-1.163-.993-2.109-2.156-2.109z" fill="#9CA5F5"/><path d="M27.89 32.11c0 .242.057.477.137.703h3.946c.08-.226.136-.46.136-.704a2.11 2.11 0 00-4.219.001z" fill="#9CA5F5"/><path d="M25.255 30.879a.703.703 0 01-.681.527h-.902v1.407h2.905a3.522 3.522 0 01-.093-.704A3.52 3.52 0 0130 28.594a3.52 3.52 0 013.516 3.515c0 .24-.046.472-.093.703h2.905v-1.406h-.902a.703.703 0 01-.681-.527 4.83 4.83 0 00-.52-1.253.704.704 0 01.108-.855l.639-.64-.994-.994-.64.64a.7.7 0 01-.855.108 4.831 4.831 0 00-1.252-.52.704.704 0 01-.528-.682v-.902h-1.406v.902a.705.705 0 01-.527.682 4.831 4.831 0 00-1.253.52.7.7 0 01-.855-.108l-.64-.64-.994.995.64.64a.704.704 0 01.108.854 4.83 4.83 0 00-.52 1.253zM18 34.922c0 1.163.946 2.11 2.11 2.11h19.734c1.163 0 2.156-.947 2.156-2.11v-.703H18v.703z" fill="#9CA5F5"/></svg>