<svg width="60" height="60" viewBox="0 0 60 60" fill="none" xmlns="http://www.w3.org/2000/svg"><rect width="60" height="60" rx="30" fill="#F2FCFF"/><path d="M36.703 34.103c.216-.201.431-.403.643-.614 5.055-5.055 6.007-14.157 6.045-14.543a.5.5 0 00-.535-.535c-.386.038-9.488.99-14.542 6.045-.212.212-.414.427-.615.643a11.705 11.705 0 00-10.85 3.178 11.666 11.666 0 00-2.14 2.933.49.49 0 00.66.66c2.495-1.286 5.42-1.529 8.116-.702-.14.292-.264.584-.375.875a.492.492 0 00.114.525l2.658 2.657 4.485-4.484c.208-.209.535-.223.726-.032.19.191.177.518-.031.726l-4.485 4.485 2.657 2.658a.492.492 0 00.525.115 12 12 0 00.875-.376c.827 2.696.584 5.621-.701 8.116a.49.49 0 00.66.66 11.665 11.665 0 002.932-2.14 11.705 11.705 0 003.178-10.85zm-1.789-7.215a2.457 2.457 0 013.474-3.474 2.457 2.457 0 01-3.474 3.474z" fill="#7DDBF9"/><path d="M25.53 36.267a2.457 2.457 0 00-3.474 0c-.82.82-1.695 4.093-1.866 4.742a.497.497 0 00.129.47.5.5 0 00.469.128c.65-.17 3.922-1.046 4.742-1.866a2.457 2.457 0 000-3.474z" fill="#7DDBF9"/></svg>