<svg width="60" height="60" viewBox="0 0 60 60" fill="none" xmlns="http://www.w3.org/2000/svg"><rect width="60" height="60" rx="30" fill="#F2FCFF"/><path fill-rule="evenodd" clip-rule="evenodd" d="M16.308 22.74l.758-4.935c.037-.24.22-.312.41-.16l3.896 3.124c.19.152.16.347-.067.435l-4.653 1.812c-.227.088-.38-.035-.344-.276zm5.211 23.193l1.566-4.741c.077-.231.27-.271.432-.09l3.323 3.728c.162.181.1.369-.139.418l-4.889 1.014c-.238.05-.37-.098-.293-.329zm19.997-13.027l2.545-4.296c.124-.21.322-.207.44.005l2.449 4.353c.119.212.018.381-.225.379l-4.993-.056c-.243-.003-.34-.175-.216-.385z" fill="#7DDBF9"/><path fill-rule="evenodd" clip-rule="evenodd" d="M29.405 14c-5.156 0-9.702 2.429-12.71 6.15h3.508c2.45-2.2 5.652-3.578 9.202-3.578 6.686 0 12.266 4.755 13.553 11.062h2.572C44.208 19.9 37.516 14 29.405 14zM14.122 24.547c-.7 1.825-1.122 3.787-1.122 5.858 0 6.665 3.995 12.377 9.705 14.944l1.403-2.175c-5.005-2.082-8.536-7.011-8.536-12.769 0-2.103.504-4.072 1.345-5.858h-2.795zm28.952 7.484c-.815 6.86-6.59 12.207-13.669 12.207-.24 0-.464-.058-.701-.07l-1.555 2.409c.743.103 1.484.234 2.256.234 8.503 0 15.415-6.495 16.242-14.78h-2.573z" fill="#7DDBF9"/><path d="M29.487 29.677v6.934l5.906-2.462v-6.933l-5.906 2.461zm-.269-5.258l-5.744 2.394 5.744 2.394 5.744-2.394-5.744-2.394zm-6.174 9.731l5.905 2.46v-6.933l-5.905-2.461v6.933z" fill="#7DDBF9"/></svg>