<svg width="60" height="60" viewBox="0 0 60 60" fill="none" xmlns="http://www.w3.org/2000/svg"><rect width="60" height="60" rx="30" fill="#FEFBEF"/><path d="M38.127 39.866V28.31c0-.423-.18-.83-.498-1.118l-7.553-6.798a1.45 1.45 0 00-1.012-.392c-.363 0-.725.136-1.012.392l-7.553 6.798c-.318.272-.499.68-.499 1.118v11.556c0 .831.68 1.511 1.51 1.511h3.022c.83 0 1.51-.68 1.51-1.51v-6.043h6.043v6.042c0 .831.68 1.511 1.51 1.511h3.022c.83 0 1.51-.68 1.51-1.51z" fill="#FFC000"/><path d="M37.12 28.703l-6.042-4.762a3.222 3.222 0 00-2.014-.691c-.743 0-1.46.246-2.014.691l-6.043 4.762c-.32.257-.575.573-.749.925a2.483 2.483 0 00-.258 1.12v7.913c0 .72.318 1.411.885 1.92a3.2 3.2 0 002.136.796h12.085c.801 0 1.57-.286 2.137-.796.566-.509.884-1.2.884-1.92V30.74a2.483 2.483 0 00-.26-1.116 2.75 2.75 0 00-.747-.921zm-6.042 12.674H27.05V35.04c0-.24.106-.47.295-.64.189-.17.445-.265.712-.265h2.014c.267 0 .523.095.712.265.189.17.295.4.295.64v6.337zm14.213-16.693a10.02 10.02 0 00-2.711-7.23 10.02 10.02 0 00-7.03-3.196 1.1 1.1 0 00-1.147 1.073c-.011.31.102.593.295.8.193.206.466.337.777.348 2.1.06 4.048.95 5.486 2.488a7.77 7.77 0 012.11 5.642 1.1 1.1 0 001.072 1.148 1.1 1.1 0 001.149-1.073z" fill="#FFC000"/><path d="M35.395 18.444a1.1 1.1 0 00-1.148 1.073c-.01.31.102.593.295.8.193.206.467.338.778.348 2.043.07 3.642 1.78 3.573 3.802a1.1 1.1 0 001.073 1.148 1.1 1.1 0 001.148-1.073 5.923 5.923 0 00-5.719-6.098z" fill="#FFC000"/><path d="M37.422 26.708a3.223 3.223 0 11-4.4-4.71 3.223 3.223 0 014.4 4.71z" fill="#FEFBEF"/><path d="M36.398 25.616a1.729 1.729 0 11-2.36-2.526 1.729 1.729 0 012.36 2.526z" fill="#FFC000"/></svg>