<svg width="673" height="620" viewBox="0 0 673 620" fill="none" xmlns="http://www.w3.org/2000/svg"><g clip-path="url(#clip0_1010_2)"><path d="M467 149.804c-46.62-7.44-99.71-11.41-155-11.41-50.6 0-99.35 3.32-142.98 9.58.01-.67.02-1.34.05-2.01a148.999 148.999 0 01297.91 1.82c.01.68.02 1.35.02 2.02z" fill="#6C63FF"/><path opacity=".1" d="M337.55 1.341A149.047 149.047 0 00168.619 144.57c-.03.67-.04 1.34-.05 2.01 12.962-1.86 26.385-3.453 40.165-4.784A149.026 149.026 0 01337.55 1.341z" fill="#fff"/><path d="M532.18 161.624a600.035 600.035 0 00-65.2-13.84 943.328 943.328 0 00-108.74-10.45 1133.585 1133.585 0 00-83.01-.34 973.38 973.38 0 00-106.16 8.97 624.354 624.354 0 00-77.25 15.66C32.61 177.994 0 199.934 0 223.394s32.61 45.4 91.82 61.77c41.64 11.52 92.98 19.37 148.92 22.97 23.09 1.5 46.96 2.26 71.26 2.26 24.38 0 48.33-.77 71.49-2.27 50.91-3.29 98.01-10.1 137.43-20 .21-.06.41-.11.62-.16 2.66-.66 5.28-1.35 7.87-2.04.93-.26 1.85-.51 2.77-.76a.99.99 0 01.16-.05c.88-.24 1.75-.49 2.62-.73 1.74-.5 3.46-.99 5.15-1.5.08-.02.15-.04.22-.06 1.47-.44 2.91-.88 4.34-1.32 1.17-.37 2.33-.73 3.48-1.1.84-.27 1.67-.54 2.49-.81.6-.2 1.19-.39 1.77-.59.79-.26 1.58-.53 2.36-.8.33-.11.66-.22.98-.34.75-.25 1.48-.51 2.21-.77.79-.28 1.58-.57 2.36-.85.65-.23 1.3-.47 1.94-.71.54-.21 1.07-.41 1.61-.61 1.47-.55 2.91-1.12 4.33-1.68.71-.29 1.42-.57 2.12-.86.69-.28 1.39-.57 2.07-.86 1.12-.47 2.22-.94 3.3-1.41.52-.24 1.05-.47 1.56-.69.39-.18.77-.35 1.16-.53.28-.12.56-.25.83-.38 1.01-.46 2.01-.93 2.99-1.4 3.76-1.8 7.27-3.64 10.53-5.52 20.45-11.71 31.24-24.7 31.24-38.2 0-23.46-32.61-45.4-91.82-61.77zm-.54 121.62c-41.69 11.53-93.17 19.38-149.26 22.95-22.81 1.45-46.39 2.2-70.38 2.2-23.91 0-47.41-.74-70.15-2.19-56.18-3.56-107.74-11.41-149.49-22.96C34.09 267.124 2 245.874 2 223.394c.003-1.986.252-3.965.74-5.89 5.1-20.28 36.47-39.26 89.62-53.96a623.705 623.705 0 0176.66-15.57 976.076 976.076 0 01106.8-9c11.92-.39 23.98-.583 36.18-.58 15.41 0 30.65.31 45.63.91a941.52 941.52 0 01109.37 10.5 598.966 598.966 0 0164.64 13.74c53.14 14.7 84.5 33.67 89.61 53.94.496 1.931.748 3.916.75 5.91 0 22.48-32.09 43.73-90.36 59.85z" fill="#3F3D56"/><path d="M623.43 224.304c0 13.36-11.01 26-30.67 37.29-3.27 1.88-6.79 3.72-10.53 5.52-.98.47-1.98.94-2.99 1.4-.27.13-.55.26-.83.38-.39.18-.77.35-1.16.53-.51.22-1.04.45-1.56.69-1.08.47-2.18.94-3.3 1.41-.68.29-1.38.58-2.07.86-.7.29-1.41.57-2.12.86-1.42.56-2.86 1.13-4.33 1.68-.54.2-1.07.4-1.61.61-.64.24-1.29.48-1.94.71-.78.28-1.57.57-2.36.85-.73.26-1.46.52-2.21.77-.32.12-.65.23-.98.34-.78.27-1.57.54-2.36.8-.58.2-1.17.39-1.77.59-.82.27-1.65.54-2.49.81-1.15.37-2.31.73-3.48 1.1-1.43.44-2.87.88-4.34 1.32-.07.02-.14.04-.22.06-1.69.51-3.41 1-5.15 1.5-.87.24-1.74.49-2.62.73a.99.99 0 00-.16.05c-.92.25-1.84.5-2.77.76-2.58.68-5.21 1.37-7.87 2.04-.21.05-.41.1-.62.16-38.35 9.58-85.4 16.56-137.47 19.93-22.81 1.47-46.59 2.25-71.02 2.25-24.65 0-48.63-.79-71.62-2.29-137.24-8.95-239.38-43.03-239.38-83.71a25.065 25.065 0 011.12-7.3c.06.17.12.33.19.5 14.27 37.48 115.54 67.77 246.94 75.16 20.13 1.14 40.98 1.73 62.32 1.73 21.43 0 42.36-.6 62.57-1.74 131.29-7.42 232.46-37.72 246.68-75.17.24-.6.45-1.2.63-1.8a25.302 25.302 0 011.55 8.62zM91.67 213.54c-16.643 0-34.331-3.581-34.331-10.217 0-6.636 17.688-10.217 34.33-10.217 16.643 0 34.331 3.581 34.331 10.217 0 6.636-17.688 10.217-34.33 10.217zm0-18.434c-19.054 0-32.331 4.331-32.331 8.217s13.277 8.217 32.33 8.217c19.053 0 32.331-4.331 32.331-8.217s-13.278-8.217-32.33-8.217z" fill="#3F3D56"/><path d="M162.669 260.54c-16.642 0-34.33-3.581-34.33-10.217 0-6.636 17.688-10.217 34.33-10.217 16.643 0 34.331 3.581 34.331 10.217 0 6.636-17.688 10.217-34.331 10.217zm0-18.434c-19.053 0-32.33 4.331-32.33 8.217s13.277 8.217 32.33 8.217c19.053 0 32.331-4.331 32.331-8.217s-13.278-8.217-32.331-8.217zm369-28.566c-16.642 0-34.33-3.581-34.33-10.217 0-6.636 17.688-10.217 34.33-10.217 16.643 0 34.331 3.581 34.331 10.217 0 6.636-17.688 10.217-34.331 10.217zm0-18.434c-19.053 0-32.33 4.331-32.33 8.217s13.277 8.217 32.33 8.217c19.053 0 32.331-4.331 32.331-8.217s-13.278-8.217-32.331-8.217zm-71 65.434c-16.642 0-34.33-3.581-34.33-10.217 0-6.636 17.688-10.217 34.33-10.217 16.643 0 34.331 3.581 34.331 10.217 0 6.636-17.688 10.217-34.331 10.217zm0-18.434c-19.053 0-32.33 4.331-32.33 8.217s13.277 8.217 32.33 8.217c19.053 0 32.331-4.331 32.331-8.217s-13.278-8.217-32.331-8.217zm-149 40.434c-16.642 0-34.33-3.581-34.33-10.217 0-6.636 17.688-10.217 34.33-10.217 16.643 0 34.331 3.581 34.331 10.217 0 6.636-17.688 10.217-34.331 10.217zm0-18.434c-19.053 0-32.33 4.331-32.33 8.217s13.277 8.217 32.33 8.217c19.053 0 32.331-4.331 32.331-8.217s-13.278-8.217-32.331-8.217z" fill="#3F3D56"/><path d="M336.978 492.717c23.203 0 42.012-18.81 42.012-42.013s-18.809-42.012-42.012-42.012-42.012 18.809-42.012 42.012 18.809 42.013 42.012 42.013z" fill="#2F2E41"/><path d="M321.002 478.307l-20.447 10.239 5.715 11.412 20.447-10.239-5.715-11.412z" fill="#2F2E41"/><path d="M308.966 498.8c1.212-1.839-1.78-5.951-6.684-9.184-4.904-3.234-9.863-4.364-11.075-2.525-1.213 1.839 1.78 5.951 6.684 9.184 4.904 3.234 9.862 4.364 11.075 2.525zm43.988-20.493l-5.715 11.412 20.447 10.24 5.715-11.413-20.447-10.239z" fill="#2F2E41"/><path d="M376.065 496.275c4.904-3.233 7.897-7.345 6.684-9.184-1.212-1.839-6.171-.709-11.075 2.524-4.904 3.234-7.897 7.346-6.684 9.185 1.212 1.839 6.171.709 11.075-2.525z" fill="#2F2E41"/><path d="M334.037 454.786c7.93 0 14.358-6.428 14.358-14.358 0-7.93-6.428-14.359-14.358-14.359-7.93 0-14.359 6.429-14.359 14.359s6.429 14.358 14.359 14.358z" fill="#fff"/><path d="M337.529 437.675c1.862-1.861 1.851-4.89-.024-6.764-1.874-1.875-4.903-1.885-6.764-.024-1.861 1.861-1.851 4.89.024 6.764 1.875 1.875 4.903 1.885 6.764.024z" fill="#3F3D56"/><path d="M370.12 404.999c.632-15.553-12.773-28.727-29.941-29.425-17.168-.697-31.597 11.346-32.229 26.9-.632 15.554 11.302 19.087 28.47 19.785 17.167.697 33.068-1.706 33.7-17.26z" fill="#6C63FF"/><path d="M394.337 472.703c2.763-2.372-1.123-11.431-8.68-20.234-7.556-8.802-15.923-14.015-18.686-11.643s1.122 11.432 8.679 20.234c7.557 8.803 15.923 14.016 18.687 11.643zm-95.914-11.643c7.557-8.802 11.443-17.862 8.679-20.234-2.763-2.372-11.129 2.841-18.686 11.643-7.557 8.803-11.443 17.862-8.679 20.234 2.763 2.373 11.129-2.84 18.686-11.643z" fill="#2F2E41"/><path d="M348.517 467.261a9.573 9.573 0 01-18.836 3.429l-.003-.019c-.942-5.202 3.08-7.043 8.282-7.985 5.203-.941 9.615-.627 10.557 4.575z" fill="#fff"/><path d="M266 495.394a2 2 0 01-2-2v-118a2 2 0 014 0v118a2 2 0 01-2 2zm-30 106a2 2 0 01-2-2v-86a2 2 0 014 0v86a2 2 0 01-2 2zm77-71a2 2 0 01-2-2v-118a2 2 0 014 0v118a2 2 0 01-2 2zm-29 85a2 2 0 01-2-2v-48a2 2 0 014 0v48a2 2 0 01-2 2zm41-246a2 2 0 01-2-2v-48a2 2 0 014 0v48a2 2 0 01-2 2zm-100 21a2 2 0 01-2-2v-48a2 2 0 014 0v48a2 2 0 01-2 2zm174 5a2 2 0 01-2-2v-48a2 2 0 014 0v48a2 2 0 01-2 2zm-4 150a2 2 0 01-2-2v-58a2 2 0 014 0v58a2 2 0 01-2 2zm-40 51a2 2 0 01-2-2v-86a2 2 0 014 0v86a2 2 0 01-2 2zm8-147a2 2 0 01-2-2v-118a2 2 0 014 0v118a2 2 0 01-2 2z" fill="#CCC"/><path d="M608.193 580.491c2.863-2.397-1.006-11.732-8.64-20.85-7.635-9.119-16.145-14.568-19.007-12.171-2.863 2.396 1.006 11.732 8.64 20.85 7.635 9.119 16.145 14.568 19.007 12.171z" fill="#2F2E41"/><path d="M589.419 570.121c7.522-22.564-4.673-46.954-27.238-54.476-22.565-7.522-46.954 4.673-54.476 27.238-7.522 22.565 4.673 46.955 27.238 54.477 22.565 7.521 46.955-4.674 54.476-27.239z" fill="#2F2E41"/><path d="M566.791 590.302h-13.084v23.442h13.084v-23.442zm-26.167 0H527.54v23.442h13.084v-23.442z" fill="#2F2E41"/><path d="M555.888 618.105c6.022 0 10.903-1.831 10.903-4.089 0-2.258-4.881-4.088-10.903-4.088s-10.903 1.83-10.903 4.088 4.881 4.089 10.903 4.089zm-26.168-.545c6.022 0 10.904-1.831 10.904-4.089 0-2.258-4.882-4.089-10.904-4.089-6.021 0-10.903 1.831-10.903 4.089 0 2.258 4.882 4.089 10.903 4.089z" fill="#2F2E41"/><path d="M535.039 502.365c3.846-15.487 20.821-24.6 37.915-20.356 17.094 4.245 27.834 20.241 23.989 35.728-3.846 15.487-16.604 15.537-33.698 11.292-17.094-4.245-32.051-11.176-28.206-26.664z" fill="#CCC"/><path d="M519.51 545.747c1.6-3.374-5.814-10.24-16.559-15.336-10.745-5.096-20.753-6.493-22.353-3.12-1.6 3.373 5.814 10.239 16.559 15.336 10.746 5.096 20.753 6.493 22.353 3.12z" fill="#2F2E41"/><path d="M542.124 561.773c7.93 0 14.358-6.428 14.358-14.358 0-7.93-6.428-14.359-14.358-14.359-7.93 0-14.359 6.429-14.359 14.359s6.429 14.358 14.359 14.358z" fill="#fff"/><path d="M536.222 547.054a4.786 4.786 0 100-9.571 4.786 4.786 0 000 9.571z" fill="#3F3D56"/><path d="M542 583.394a6 6 0 100-12 6 6 0 000 12z" fill="#fff"/><path d="M671.531 618.394h-236a1 1 0 110-2h236a1 1 0 110 2z" fill="#3F3D56"/></g><defs><clipPath id="clip0_1010_2"><path fill="#fff" d="M0 0h672.531v620H0z"/></clipPath></defs></svg>