<svg width="251" height="418" viewBox="0 0 251 418" fill="none" xmlns="http://www.w3.org/2000/svg"><g clip-path="url(#clip0_105_7)"><path fill-rule="evenodd" clip-rule="evenodd" d="M159.839 184.808c-78.74 13.232-133.65 58.19-133.65 129.971 0 86.038 68.215-3.358 115.254 46.805 47.038 50.162 147.253 51.584 152.047-46.805 4.487-92.105-54.911-143.203-133.651-129.971z" fill="#E9ECEF"/><path fill-rule="evenodd" clip-rule="evenodd" d="M167.093 177.551c-78.74 13.232-133.65 58.19-133.65 129.971 0 86.038 68.216-3.358 115.254 46.805 47.038 50.162 147.253 51.584 152.047-46.805 4.488-92.105-54.91-143.203-133.651-129.971z" fill="#5BC43A"/><path fill-rule="evenodd" clip-rule="evenodd" d="M207.343 316.641l-20.829-26.953-.479.379c-3.076 2.419-5.515 4.013-7.318 4.783l-.533.226c-8.66 3.644-14.615 4.882-13.658 5.738l1.185 1.065c7.654 6.912 18.134 16.964 31.44 30.154a11.413 11.413 0 006.93 3.561l2.744.328c26.934 3.189 44.214 3.464 50.546 2.062 1.322-.293 5.393.472 8.466 3.56 4.609 4.632 11.201 15.789 12.308 15.789 1.61 0 .093-7.39-4.549-22.17l-.491-1.718c-2.163-7.501-3.719-11.936-4.668-13.305-1.019-1.471-4.462 1.125-10.329 7.788l.159.866a40.173 40.173 0 00-2.708-2.82l-2.772-.332c-9.793-1.189-17.237-2.277-22.331-3.263l-.537-.105c-5.519-1.095-13.045-2.972-22.576-5.633zM77.636 288.718l-7.744 5.838a8.706 8.706 0 00-3.108 4.471l-1.467 4.916a3.058 3.058 0 001.37 4.005l2.734 2.031a3.051 3.051 0 004.366-2.003l1.54-5.478s6.526-1.984 7.394-9.754l-5.085-4.026" fill="#fff"/><path fill-rule="evenodd" clip-rule="evenodd" d="M114.964 192.832c-5.292.216-7.951 7.47-9.681 11.056-.589 1.222 3.555 37.326 4.91 46.565 2.412 16.453 9.702 21.67 14.278 22.79 0 0-.275 18.706 1.642 23.361 4.244 10.309 57.968 3.39 63.218-13.84 3.59-11.779-9.749-13.152-14.755-20.253-9.175-13.016-9.651-25.129-19.534-33.794-3.745-4.106-8.094-8.228-11.844-13.184l-1.526-2.008c-9.539-12.502-16.804-20.797-26.211-20.705l-.497.012z" fill="#fff"/><path fill-rule="evenodd" clip-rule="evenodd" d="M141.498 224.127c.876.423 2.159.554 2.616-.305 1.435-2.696 5.825-3.067 7.691-.649-1.791-.616-3.878-1.204-5.479-.192-.446.281-.831.676-1.212 1.066-.634.651-1.258 1.29-2.132 1.376-.649.063-1.268-.21-1.884-.483-.66-.292-1.318-.583-2.006-.453-.765.144-1.301.752-1.837 1.361-.535.607-1.07 1.214-1.831 1.361-.624.12-1.25-.103-1.87-.325-.694-.248-1.381-.493-2.048-.252-.797.287-1.161 1.108-1.526 1.931-.362.817-.725 1.636-1.515 1.931-.467.174-.972.111-1.471.014l-.495-.102c-1.165-.232-2.424-.252-3.491.273-.916.451-1.638 1.384-1.697 2.381a23.76 23.76 0 01-.063-.644l-.185-1.213a5.338 5.338 0 014.346-1.836c.279.019.558.059.837.1.536.078 1.07.157 1.603.076.808-.123 1.629-.812 1.493-1.618l-.012-.087c-.149-1.35 1.66-2.124 3.05-2.01.295.024.598.063.902.103 1.159.15 2.344.304 3.254-.362.352-.258.624-.618.893-.975.376-.5.748-.993 1.326-1.187.638-.214 1.288.011 1.917.31l.21.102.616.308zm10.08 9.389c-.603.81-1.845.356-2.804.006l-.049-.019c-2.571-.938-5.668-.206-7.547 1.784-1.03 1.091-2.554.786-4.132.471-1.318-.264-2.674-.535-3.811-.006-.531.247-1.024.665-1.508 1.075-.885.751-1.738 1.474-2.731 1.065-1.882-.776-4.193-.362-5.705.996l.005.428.007.944c1.502-1.506 3.936-1.994 5.902-1.183.993.409 1.845-.314 2.731-1.065.483-.41.977-.828 1.508-1.076 1.137-.529 2.493-.257 3.811.006 1.578.316 3.102.621 4.132-.47 1.841-1.95 4.852-2.692 7.392-1.838l.506.182c.904.32 1.961.612 2.502-.115 1.708-2.294 5.138-3.098 7.687-1.802l-.329-1.245-.151-.069c-2.516-1.109-5.768-.282-7.416 1.931zm5.853 10.228c.945.386 2.168.887 2.802.101 1.155-1.432 3.793-1.536 7.914-.313-.315.214-1.128.193-2.13.167-1.888-.049-4.448-.116-5.621 1.338-.569.706-1.613.374-2.504.019l-.499-.201c-2.505-.951-5.543-.325-7.457 1.553-1.071 1.051-2.583.688-4.147.311-1.307-.314-2.652-.637-3.808-.152-.54.227-1.049.626-1.548 1.017-.914.717-1.793 1.406-2.77.959l-.136-.06c-1.106-.467-3.232.321-5.158 1.034-1.402.519-2.698.999-3.42.929 4.466-2.628 7.317-3.66 8.551-3.095l.098.041c.938.36 1.789-.308 2.672-1 .499-.391 1.007-.79 1.548-1.017 1.156-.485 2.5-.162 3.808.152 1.564.376 3.075.74 4.147-.311 1.953-1.916 5.076-2.529 7.609-1.493l.049.021zm-8.755 43.396c-1.133.728-2.6 1.67-3.649 1.153-1.85-.914-5.186-.103-10.007 2.431l-.464.246c.473.087 1.533-.239 2.841-.641 2.464-.758 5.806-1.786 7.745-.829.941.464 2.22-.248 3.291-.924l.6-.382c2.829-1.737 6.651-2.323 9.613-1.504.949.396 2.271-.067 3.724-.576.989-.346 2.038-.713 3.071-.845 1.274-.164 1.93-.066 2.506.02.578.087 1.075.161 2.034-.053.742-.166 1.927-.685 3.555-1.556 2.887-1.387 8.003-1.219 10.696-.255l.145.05c2.879.952 2.855-.091-.04-1.177l-.219-.08-.173-.06c-3.077-1.025-8.774-.913-11.755 1.001l-.059.037c-1.133.728-2.601 1.67-3.649 1.153l-.077-.035c-.734-.301-2.449-.296-2.98-.261l-.098.008c-1.791.199-2.18.361-2.605.671l-.305.231-.174.067a31.2 31.2 0 00-2.059.895 4.294 4.294 0 01-1.053-.252l-.173-.06c-3.076-1.025-7.242-.424-10.223 1.489l-.059.038zm13.328-34.374c-.67.787-1.965.286-2.964-.101l-.052-.02c-2.679-1.037-5.983-.424-8.05 1.492-1.133 1.051-2.732.688-4.387.312-1.383-.315-2.806-.638-4.029-.153-.571.227-1.11.626-1.637 1.017-.935.693-1.835 1.36-2.827 1.001l-.104-.042c-1.306-.565-4.321.467-9.046 3.095.764.071 2.135-.41 3.618-.929 2.038-.713 4.287-1.5 5.457-1.033l.144.059c1.033.447 1.963-.242 2.93-.959.528-.391 1.066-.79 1.638-1.017 1.223-.485 2.645-.161 4.028.153 1.655.376 3.254.739 4.387-.312 2.026-1.878 5.24-2.503 7.889-1.552l.529.201c.942.355 2.047.686 2.649-.019 1.24-1.455 3.949-1.388 5.946-1.339 1.061.026 1.92.047 2.254-.167-4.361-1.223-7.151-1.119-8.373.313zm.68 9.712c1.15.387 2.639.888 3.411.102 1.405-1.432 4.616-1.537 9.633-.314-.384.214-1.373.193-2.593.167-2.298-.049-5.415-.115-6.842 1.339-.692.706-1.963.374-3.048.019l-.608-.201c-3.048-.951-6.746-.325-9.076 1.553-1.304 1.05-3.143.687-5.048.311-1.591-.314-3.227-.637-4.634-.152-.658.226-1.278.625-1.885 1.017-1.112.716-2.183 1.406-3.371.959l-.165-.06c-1.347-.467-3.934.32-6.279 1.034-1.706.519-3.284.999-4.163.929 5.436-2.629 8.906-3.661 10.408-3.095l.12.041c1.141.359 2.177-.308 3.252-1.001.607-.391 1.226-.79 1.884-1.016 1.407-.485 3.044-.162 4.635.152 1.904.376 3.743.739 5.047-.311 2.378-1.917 6.18-2.529 9.262-1.493l.06.02zm8.929 7.685c-.865.786-2.536.285-3.825-.102l-.067-.02c-3.457-1.036-7.721-.424-10.388 1.493-1.462 1.05-3.525.687-5.66.311-1.785-.314-3.62-.637-5.198-.152-.738.226-1.433.625-2.113 1.016-1.206.693-2.368 1.36-3.647 1.001l-.134-.041c-1.685-.566-5.576.466-11.673 3.095.986.07 2.755-.41 4.668-.929 2.63-.714 5.532-1.501 7.042-1.034l.185.06c1.333.447 2.534-.243 3.781-.959.681-.391 1.376-.791 2.114-1.017 1.578-.485 3.413-.162 5.197.152 2.136.376 4.199.739 5.661-.311 2.614-1.878 6.761-2.504 10.179-1.553l.682.201c1.216.355 2.642.687 3.419-.019 1.6-1.454 5.095-1.388 7.672-1.339 1.368.026 2.478.047 2.908-.167-5.626-1.223-9.227-1.118-10.803.314zm.188 6.589c1.29.387 2.96.888 3.825.102 1.576-1.432 5.177-1.537 10.803-.314-.43.214-1.539.193-2.908.167-2.577-.049-6.072-.115-7.672 1.339-.777.706-2.202.374-3.419.019l-.682-.201c-3.198-.89-7.033-.399-9.654 1.205-.804.642-2.203.561-3.74.473-1.045-.06-2.154-.124-3.184.034-1.27.194-1.873.469-2.403.711-.532.242-.989.45-1.97.509-1.138.067-3.847-.515-3.847-.515-3.157-.537-8.028 1.035-10.351 2.704l-.126.088c-2.567 1.751-2.781.648-.097-1.28l.15-.105c2.675-1.833 8.182-3.297 11.575-2.28l.067.02c1.29.387 2.96.888 3.825.102.603-.548 2.574-1.082 2.954-1.146 2.008-.343 2.281-.236 2.89.004l.155.06.186.017c.692.064 1.433.161 2.226.292.281-.109.591-.28.942-.532l.15-.106c2.675-1.833 6.845-2.404 10.238-1.387l.067.02z" fill="#3D5EB4"/><path fill-rule="evenodd" clip-rule="evenodd" d="M116.671 198.263c-7.523.026-13.46 6.411-12.953 13.927 0 0 8.773 38.178 4.327 51.748-1.721 5.249-26.556 21.586-25.506 23.264l3.504 8.4c1.246 1.988 39.365-23.519 39.365-23.519 3.657-2.904 4.337-60.644 4.337-60.644.072-7.272-5.811-13.201-13.074-13.176z" fill="#fff"/><path d="M77.186 288.718l4.48 9.227.09.247c.372.956 1.797 1.541 1.98 1.588h.027l2.645-1.566c.303-.255.47-1.683.149-3.012l-.076-.279s-2.097-7.37-3.834-9.231c-1.013-1.086-6.864 0-5.461 3.026z" fill="#fff"/><path fill-rule="evenodd" clip-rule="evenodd" d="M141.003 373.816h10.695s-12.552-32.599-12.552-41.153c0-2.653 9.867 1.344 8.435-2.653-1.968-5.497-8.778-15.326-7.1-20.261 1.754-5.16 8.297-7.03 13.995-9.121 1.092-.401-18.826.983-24.289-3.364-7.206-5.735-1.355-18.399-3.291-13.934-2.335 5.388-17.508 18.903-14.5 33.539 2.93 14.258 28.607 56.947 28.607 56.947z" fill="#fff"/><path fill-rule="evenodd" clip-rule="evenodd" d="M144.711 380.102l1.018-.339a.1.1 0 00.016-.182l-.975-.53v-1.227a.1.1 0 00-.166-.076l-.807.71-1.33-.701c-.087-.046-.182.05-.134.137l.757 1.381-1.461 1.527c-.071.073.002.193.1.165l2.01-.58.785 1.382c.05.089.187.053.187-.05v-1.617z" fill="#3D5EB4"/><path fill-rule="evenodd" clip-rule="evenodd" d="M173.206 309.618a173.08 173.08 0 00-1.384-1.46 310.838 310.838 0 00-5.627-5.729 33.29 33.29 0 00-.308-.262c-.514-.433-1.004-.846-1.361-1.353-.814-1.157-1.86-1.216-3.058-.874-.082.024-.164.05-.245.076-.103.032-.205.065-.309.093-.525.14-1.055.27-1.585.399v.001h-.001c-1.166.285-2.331.571-3.457.97-1.853.657-3.67 1.417-5.486 2.177l-.001.001h-.001c-.461.193-.922.386-1.384.577-.606.251-1.204.524-1.802.797h-.001c-.576.263-1.151.525-1.734.768-1.151.481-1.813 1.399-2.484 2.331-.225.312-.451.626-.696.925-1.119 1.361-1.52 2.821-1.533 4.448-.017 2.148.615 4.163 1.25 6.185.105.335.21.67.312 1.006.977 3.208 2.249 6.248 4.299 8.918.343.448.546.804.157 1.292-.38.477-.784.534-1.359.26-2.622-1.252-5.392-1.285-8.203-.911a1.56 1.56 0 01-.13.013c-.21.016-.294.023-.144.409.666 1.717 1.257 3.464 1.838 5.213.275.826.533 1.659.79 2.492.452 1.459.903 2.918 1.447 4.341.763 1.997 1.59 3.969 2.417 5.941h.001v.001a325.505 325.505 0 011.58 3.815c.151.374.312.747.473 1.12v.002c.521 1.206 1.044 2.419 1.244 3.679.19 1.193.549 2.327.908 3.461.289.912.577 1.823.777 2.763.434 2.045 1.107 4.048 1.785 6.032a21.244 21.244 0 001.618 3.587c.133.237.412.383.696.531.255.134.513.269.672.474 2.207 2.831 3.469 6.056 3.548 9.657.017.749-.117 1.5-.251 2.253a17.276 17.276 0 00-.228 1.54c-.043.506-.085.678-.659.677-4.933-.008-9.865-.011-14.797-.013-7.828-.005-15.656-.009-23.484-.035-.607-.003-1.371-.327-1.789-.763-1.107-1.156-.987-2.649-.58-4.039.637-2.174 1.832-3.926 4.213-4.483.477-.112.961-.19 1.446-.268.431-.07.862-.139 1.288-.232l.213-.047.006-.001c4.225-.924 8.449-1.848 12.665-2.811 1.538-.352 3.088-.802 4.086-2.147.92-1.242 1.151-1.87.355-3.218a133.056 133.056 0 01-2.77-4.915c-.624-1.168-1.228-2.346-1.833-3.524-.566-1.102-1.131-2.204-1.713-3.298a309.535 309.535 0 00-1.942-3.582c-.673-1.231-1.347-2.462-2.004-3.701l-.453-.852v-.001c-1.052-1.979-2.105-3.959-3.053-5.988-.658-1.408-1.237-2.854-1.816-4.3-.289-.723-.578-1.445-.877-2.163a961.662 961.662 0 00-2.495-5.921 198.225 198.225 0 00-1.512-3.476c-.296-.66-.607-1.315-.917-1.969-.645-1.359-1.289-2.718-1.805-4.125-.644-1.753-1.087-3.585-1.528-5.409l-.005-.017-.009-.037-.129-.533c-.71-2.92-1.034-5.871-.315-8.846.089-.368.23-.723.372-1.078v-.001c.053-.132.105-.264.155-.396.109-.29.206-.588.303-.886v-.001c.22-.68.441-1.36.81-1.945.727-1.155 1.519-2.27 2.31-3.385.525-.738 1.05-1.477 1.556-2.228a497.277 497.277 0 005.462-8.26c.092-.143.189-.285.286-.428l.017-.024c.507-.743 1.022-1.497 1.008-2.48-.046-3.079-.089-6.157-.132-9.236l-.047-3.356v-.053l-.001-.036c-.059-.797-.277-.924-1.02-.573a5.808 5.808 0 00-.721.408c-.574.382-1.146.767-1.718 1.151l-.002.002c-.82.551-1.64 1.103-2.466 1.646l-1.141.75-1.066.701a2337.974 2337.974 0 01-11.312 7.411l-.723.47c-2.397 1.558-4.795 3.117-7.256 4.566-1.972 1.162-3.978 2.265-5.984 3.369l-.001.001-.001.001h-.001l-.001.001c-1.21.666-2.42 1.331-3.623 2.01-.4.225-.945.551-1.029.921-.453 1.997-1.818 3.163-3.488 4.05-1.09.58-2.263.209-2.97-.797-.428-.608-.915-.934-1.618-.336a6.36 6.36 0 01-1.046.696c-1.342.747-2.502 1.672-3.204 3.087-.117.235-.224.481-.33.727v.001c-.275.633-.551 1.27-1.002 1.731-.626.641-.85 1.402-1.072 2.162-.076.261-.152.52-.245.775-.223.618-.385 1.258-.546 1.898-.116.463-.233.925-.373 1.38-.27.874-1.148 1.117-1.802.494-.17-.161-.268-.397-.366-.633l-.019-.046-.032-.077a3.053 3.053 0 00-.086-.186 5.4 5.4 0 01-.11-.231l-.002-.003-.049-.104-.021.03-.006.007-.039.054c-.05.068-.1.137-.155.199l-.029.033c-.09.1-.18.203-.286.281-.11.081-.22.179-.332.277-.277.246-.557.493-.822.481-.347-.017-.846-.531-.961-.92-.172-.581-.238-1.193-.305-1.805v-.001a25.543 25.543 0 00-.105-.876l-.01-.099-.012-.108a.573.573 0 01-.054.03l-.03.015a.575.575 0 00-.165.109c-.531.575-1.082.49-1.45-.105-.34-.553-.712-1.21-.715-1.823a25.008 25.008 0 01.35-4.396c.186-1.071.512-2.191 1.075-3.105.204-.33.39-.675.575-1.02.506-.94 1.015-1.887 1.912-2.574.436-.334.831-.721 1.227-1.108.394-.386.789-.772 1.223-1.105.427-.327.917-.57 1.408-.813.255-.127.51-.253.758-.392 1.157-.649 2.313-1.3 3.456-1.975.078-.046.167-.095.26-.147.388-.214.842-.465.833-.675-.028-.671.29-1.153.606-1.628.173-.262.345-.522.458-.811.562-1.443 1.749-1.634 3.249-1.127.184.062.363.156.542.25.52.272 1.044.546 1.718.06a29.411 29.411 0 011.743-1.138h.001c.57-.354 1.142-.707 1.687-1.097 1.158-.828 2.266-1.729 3.36-2.643.8-.668 1.587-1.351 2.375-2.034.78-.676 1.559-1.352 2.35-2.014.882-.737 1.773-1.465 2.663-2.193a230.574 230.574 0 003.503-2.9c.353-.301.656-.661.959-1.021h.001c.243-.29.487-.579.758-.839.396-.38.812-.74 1.227-1.101.594-.515 1.187-1.029 1.722-1.6 1.028-1.095 2.064-2.263 2.402-3.775.411-1.84.766-3.708.932-5.583.166-1.88.179-3.775.191-5.667l.003-.456.003-.401a35.829 35.829 0 00-.068-2.148v-.002c-.029-.564-.059-1.127-.067-1.69-.011-.746-.002-1.492.006-2.238v-.002c.015-1.351.029-2.701-.069-4.043-.156-2.147-.425-4.306-.891-6.405-.544-2.449-1.217-4.871-1.889-7.292v-.003l-.001-.001-.516-1.868a27.358 27.358 0 00-.507-1.596v-.001c-.22-.647-.44-1.293-.6-1.954-.345-1.429-.634-2.871-.924-4.313-.095-.477-.191-.954-.288-1.43-.092-.449-.194-.897-.296-1.345-.253-1.112-.506-2.226-.609-3.353-.096-1.053-.076-2.116-.055-3.181.013-.673.026-1.347.009-2.019-.033-1.356.397-2.589.83-3.828l.089-.255.037-.105c.312-.895.605-1.736.153-2.758-.819-1.852-1.832-3.529-3.226-5.006-.39-.413-.538-.327-.832-.032-.198.2-.386.42-.575.639-.421.49-.843.981-1.375 1.254-1.875.962-3.818 1.832-5.81 2.511-1.755.599-3.643.576-5.46.195-2.122-.444-3.583-1.8-4.69-3.644-.613-1.018-1.067-2.039-1.025-3.233.01-.31.044-.621.076-.931v-.001c.053-.499.106-.997.066-1.489a4.649 4.649 0 00-.597-1.878c-.142-.248-.391-.43-.643-.613a3.347 3.347 0 01-.505-.421c-.846-.919-1.2-2.027-.695-3.197.743-1.725 1.122-3.509 1.024-5.363-.034-.647-.138-1.29-.243-1.933v-.001c-.11-.678-.22-1.357-.248-2.039-.113-2.81-.027-5.61 1.124-8.265.112-.259-.016-.866-.219-.98-1.527-.863-2.879-1.892-4.04-3.237-1.428-1.655-1.594-3.521-1.286-5.53.252-1.649.988-3.093 1.896-4.477.806-1.229 1.653-2.305 3.3-2.36.493-.017.544.213.617.541a52.23 52.23 0 01.103.455v.002c.28 1.252.566 2.524 1.678 3.344.538.397 1.077.767 1.873.809a222 222 0 002.443.063c4.032.095 11.668.274 12.756.462 2.946.508 6.587 1.156 8.786 3.217 2.553 2.393 4.918 4.942 6.181 8.312.103.277.212.552.32.827.594 1.506 1.186 3.006.959 4.714-.064.48-.085.965-.105 1.451-.02.473-.041.947-.101 1.415a9.053 9.053 0 01-.494 1.931l-.327.901c-.723 1.995-1.446 3.991-2.257 5.95-.242.586-.313 1.192-.385 1.804-.064.541-.128 1.087-.311 1.628-.304.895-.13 1.953.044 3.01l.001.001c.074.453.149.907.186 1.347.038.461.147.543.557.198 2.161-1.821 4.837-1.85 7.412-1.797 1.22.025 2.459.557 3.641 1.065v.001l.441.188c.619.262 1.188.637 1.759 1.013.362.239.724.478 1.1.688 2.466 1.38 4.737 3.037 6.72 5.036 1.337 1.346 2.6 2.766 3.863 4.186l.001.002h.001v.001c.537.603 1.075 1.207 1.617 1.806.033.035.055.079.078.123a.873.873 0 00.051.09c.343.499.678 1.004 1.013 1.509v.001c.752 1.133 1.505 2.267 2.339 3.336 2.1 2.69 4.238 5.356 6.485 7.922 1.917 2.19 3.901 4.322 5.884 6.455a655.22 655.22 0 012.409 2.598 44.457 44.457 0 002.028 2.056c.24.232.481.464.717.7.19.189.391.371.591.554h.001v.001c.48.436.961.873 1.293 1.403.463.742.845 1.535 1.226 2.328v.001h.001a36.5 36.5 0 00.78 1.558c.257.475.543.935.828 1.395h.001c.389.626.777 1.251 1.092 1.913.399.836.752 1.696 1.105 2.554v.001c.399.972.798 1.943 1.263 2.882 1.616 3.259 3.238 6.523 5.045 9.677.199.347.396.694.594 1.042l.003.004c1.869 3.286 3.746 6.584 6.439 9.31l.171.173v.001c.598.608 1.211 1.231 1.928 1.659.927.555 1.88 1.068 2.832 1.582h.001c1.285.693 2.57 1.385 3.791 2.177 1.98 1.284 3.441 3.073 4.139 5.434.499 1.687.655 3.391.269 5.065-.286 1.244-.794 2.443-1.297 3.631l-.075.178-.123.291c-.627 1.493-1.784 2.581-2.93 3.659l-.345.325c-.439.417-.319.71-.028 1.062.169.205.363.394.565.569.399.345.807.682 1.215 1.019.863.713 1.726 1.425 2.508 2.218 1.434 1.456 2.757 3.025 4.076 4.589l.075.089c.575.682 1.049 1.457 1.515 2.223.198.326.371.669.545 1.012.226.448.452.896.735 1.306a178.872 178.872 0 004.09 5.705c.271.362.589.692.906 1.022h.001c.451.469.9.935 1.206 1.485.637 1.141 1.397 1.888 2.664 2.284.537.168 1.066.361 1.594.553 1.315.48 2.628.959 4.07 1.056 1.07.072 2.138.386 3.174.699 1.359.411 1.725 1.953.656 2.881-.476.413-1.035.73-1.594 1.046l-.001.001c-.244.138-.489.277-.726.423-.078.048-.159.09-.24.132l-.054.028-.058.03c.108.028.215.056.322.082l2.059.5.001.001h.001c1.632.397 3.265.795 4.9 1.18l.56.132c1.547.365 3.095.73 4.655 1.03 1.219.234 2.447.426 3.674.618h.002v.001h.003c.636.1 1.272.199 1.907.305.785.13 1.57.267 2.354.403l.001.001c1.655.288 3.31.576 4.973.805.914.126 1.838.18 2.762.234h.001c.692.04 1.383.08 2.072.151 1.001.102 2.008.11 3.016.118 1.564.013 3.129.025 4.675.392.695.165 1.407.259 2.119.353v.001c.466.061.932.123 1.394.204.958.169 1.717-.086 2.152-.796 1.641-2.678 3.876-4.689 6.781-5.882 1.537-.63 3.154-1.043 4.838-.976.233.01.576.298.659.531.253.713.474 1.437.695 2.161v.001c.133.436.266.873.406 1.307l.883 2.737c1.041 3.231 2.082 6.461 3.149 9.683 1.526 4.614 3.066 9.222 4.606 13.831l.001.003 2.21 6.617c.252.756-.318 2.666-1.025 2.851-.36.094-.714.217-1.067.339v.001h-.001c-.954.33-1.91.662-3.027.449-2.246-.429-3.812-1.588-4.856-3.582l-.423-.811-.001-.001v-.001l-.002-.004c-.79-1.516-1.58-3.033-2.467-4.491-.669-1.101-1.385-2.174-2.101-3.246a98.19 98.19 0 01-1.959-3.013c-1.182-1.92-2.379-3.794-4.334-5.039l-.107-.069c-1.489-.95-2.958-1.887-4.857-1.026-.342.155-.761.17-1.155.184l-.1.003a340.1 340.1 0 01-5.801.182c-3.447.072-17.255.072-21.429-.535a695.728 695.728 0 01-11.546-1.794c-1.761-.307-3.525-.626-5.253-1.074a212.604 212.604 0 01-8.395-2.377c-.404-.122-.788-.328-1.17-.533-.479-.257-.956-.513-1.466-.6-1.784-.304-3.172-1.289-4.561-2.274a57.241 57.241 0 00-.432-.306c-2.723-1.912-5.434-3.846-8.081-5.86a152.698 152.698 0 01-6.858-5.549c-1.8-1.543-3.512-3.192-5.207-4.851a90.997 90.997 0 01-2.645-2.734zm-45.53-35.14c.085.422.169.843.228 1.268.073.534.106 1.074.14 1.613v.001c.014.239.029.479.047.717.033.743.061 1.473.089 2.193.075 1.913.147 3.757.284 5.596.149 1.996.412 3.985.674 5.97v.002l.033.243c.124.941.274 1.898.576 2.792.519 1.535 1.835 2.231 3.256 2.736 2.115.752 4.263 1.348 6.53 1.438.834.032 1.667.09 2.5.148h.001c1.314.091 2.626.183 3.939.175 2.919-.016 5.842-.136 8.753-.354 1.316-.098 2.626-.271 3.937-.443 1.175-.155 2.351-.31 3.53-.411 4.511-.387 8.801-1.714 13.067-3.08 3.318-1.063 6.394-2.717 9.04-5.024 2.385-2.078 4.721-4.259 6.197-7.112 1.199-2.318 1.639-4.844.78-7.387-.7-2.072-2.122-3.644-3.92-4.89-.554-.384-1.109-.766-1.664-1.148l-.001-.001h-.001l-.001-.001h-.001c-2.131-1.466-4.263-2.933-6.311-4.508-1.571-1.208-2.686-2.868-3.801-4.526l-.152-.227c-2.082-3.092-3.806-6.368-5.372-9.73a480.8 480.8 0 01-2.842-6.251c-1.044-2.323-2.087-4.646-3.17-6.95-1.174-2.499-2.829-4.712-4.586-6.834-.229-.276-.514-.506-.799-.736-.237-.192-.476-.384-.682-.604-2.427-2.583-4.854-5.166-7.238-7.788a171.685 171.685 0 01-5.094-5.825c-.909-1.094-1.776-2.222-2.644-3.35a170.358 170.358 0 00-1.735-2.229 360.737 360.737 0 00-4.07-5.001c-.174-.21-.347-.421-.52-.633-.796-.97-1.593-1.942-2.449-2.856-.92-.983-1.93-1.887-2.94-2.78a65.158 65.158 0 00-3.114-2.587c-1.817-1.415-3.836-2.422-6.117-2.855-.401-.077-.802-.16-1.203-.244-.834-.174-1.667-.347-2.509-.456-2.321-.298-4.282.631-6.152 1.901-3.243 2.201-5.117 5.294-6.198 9.001-.723 2.482-1.441 4.968-1.533 7.548-.026.714.157 1.432.34 2.153.124.49.249.982.31 1.476.277 2.266.931 4.433 1.585 6.599.261.865.522 1.731.759 2.602.329 1.212.702 2.412 1.075 3.612.471 1.516.942 3.033 1.325 4.571.439 1.765.706 3.575.972 5.381v.006l.001.005.001.005c.054.364.107.728.162 1.091.285 1.886.501 3.783.712 5.68.044.389.032.785.021 1.181-.006.181-.011.362-.011.543 0 .769.008 1.539.015 2.309.017 1.788.034 3.576-.041 5.36-.056 1.321-.222 2.637-.388 3.953v.003l-.001.001c-.081.643-.162 1.286-.23 1.93-.025.238-.057.477-.088.716-.088.661-.175 1.324-.131 1.976.072 1.067-.415 1.879-.903 2.691-.168.28-.336.56-.481.85-1.059 2.119-2.736 3.723-4.406 5.32-.277.265-.553.529-.826.795-1.963 1.913-3.967 3.796-6.076 5.544-2.265 1.876-4.594 3.675-6.923 5.473v.001h-.001l-.001.001c-.692.534-1.382 1.067-2.071 1.603a30.208 30.208 0 01-2.415 1.696c-.447.282-.944.49-1.436.695l-.198.083c-1.178.496-1.298.759-.45 1.632 1.124 1.157 1.783 2.545 2.304 4.031l.08.234c.134.392.27.787.477 1.136.088.147.513.24.698.159.318-.14.638-.277.957-.414 1.246-.536 2.495-1.072 3.672-1.733 2.477-1.39 4.898-2.882 7.317-4.373l.249-.153c1.32-.813 2.624-1.652 3.928-2.491.734-.472 1.468-.945 2.205-1.412.764-.485 1.533-.963 2.302-1.44l.002-.001.002-.001.002-.002.002-.001c1.594-.989 3.187-1.978 4.735-3.034 1.733-1.181 3.419-2.431 5.105-3.681l.004-.003.001-.001c.67-.497 1.341-.994 2.014-1.486.323-.236.652-.466.981-.696v-.001c.833-.583 1.666-1.166 2.405-1.85 1.012-.938 1.716-2.122 1.866-3.584.118-1.151.276-2.298.434-3.445.09-.656.181-1.312.264-1.969.059-.468.12-.936.181-1.403v-.004l.001-.003c.193-1.481.386-2.963.518-4.45.181-2.026.31-4.061.358-6.094.064-2.727.098-5.454.131-8.181.019-1.5.037-2.999.061-4.499.035-2.266.079-4.531.122-6.797.018-.95.037-1.9.054-2.851l.02-1.082c.053-2.825.105-5.651.161-8.476.002-.136.021-.271.041-.407l.009-.069.007-.047.009-.073c.011.057.023.113.036.17.026.122.053.244.072.367l.17 1.062c.242 1.515.485 3.029.718 4.545.083.537.152 1.079.177 1.62l.05 1.117v.001c.114 2.521.228 5.042.291 7.565.009.38-.077.762-.163 1.145a6.566 6.566 0 00-.154.85c-.023.258.041.525.104.791.023.096.046.192.065.288.016.084.045.168.073.252.045.131.089.261.087.391l-.017.868v.001c-.04 2.064-.08 4.129-.161 6.192a248.184 248.184 0 01-.353 6.452l-.015.238-.043.668v.003l-.001.001v.001c-.138 2.151-.276 4.303-.483 6.448a174.941 174.941 0 01-.893 7.389c-.066.467-.19.928-.315 1.388-.153.567-.307 1.134-.348 1.71-.08 1.112.043 2.247.163 3.365v.001l.016.145c.056.522.159 1.039.262 1.555zm75.214 55.514c.106.048.323-.007.418-.093.651-.588 1.293-1.187 1.934-1.785l.57-.531.162-.209c.76-.981 1.458-1.882 2.125-2.804.163-.225.329-.447.496-.67.543-.726 1.088-1.454 1.494-2.252.624-1.23 1.677-1.941 2.75-2.601.22-.136.436-.284.652-.434.814-.559 1.641-1.129 2.749-1.05.109.007.231-.177.353-.361.057-.085.114-.171.169-.237-.051-.032-.101-.07-.151-.107-.108-.081-.215-.161-.335-.188a49.119 49.119 0 00-1.423-.291h-.001c-.868-.169-1.735-.338-2.578-.589l-.637-.188h-.002c-2.294-.672-4.618-1.353-6.323-3.181-1.735-1.859-3.397-3.767-4.469-6.162-.48-1.074-1.182-2.049-1.883-3.023a41.762 41.762 0 01-1.55-2.279c-.636-.984-1.273-1.969-2.022-2.859-1.158-1.378-2.47-2.636-3.791-3.864-.281-.26-.568-.515-.856-.769-1.259-1.114-2.513-2.224-3.187-3.853-.018-.044-.186-.085-.222-.054a28.327 28.327 0 01-7.764 4.694c-3.078 1.245-6.228 2.318-9.373 3.389l-.387.132c-.76.259-1.543.449-2.326.64-.618.15-1.236.3-1.843.484-.144.044-.302.738-.176.877a163.125 163.125 0 003.28 3.477l.379.394.533.556 1.249 1.307.006.006.013.014a443.721 443.721 0 003.467 3.607c.826.855 1.652 1.711 2.53 2.508.566.514 1.129 1.031 1.692 1.549h.001c2.889 2.655 5.778 5.31 9.073 7.49 1.511.999 2.998 2.034 4.486 3.069h.001c1.896 1.319 3.792 2.638 5.735 3.883 1.088.698 2.296 1.208 3.504 1.718h.001c.495.209.99.418 1.477.64zm-56.4-26.825c.723-.275 1.445-.55 2.123-.911.281-.149.58-.264.878-.379.09-.034.179-.068.268-.104l.071-.028.073-.03c.101-.073.173-.107.229-.133l.047-.023a.406.406 0 00.041-.025c.119-.086.233-.18.347-.273h.001l.063-.053.073-.058a3.238 3.238 0 01-.224-.06c-.162-.047-.324-.094-.48-.079a67.79 67.79 0 00-1.736.2c-1.068.132-2.136.264-3.207.299-1.781.058-3.583.025-5.352-.178-3.068-.352-6.069-.979-8.863-2.445-2.026-1.063-3.056-2.716-3.458-4.867-.069-.371-.12-.746-.17-1.12-.059-.44-.118-.88-.208-1.314-.039-.187-.171-.354-.303-.522a3.27 3.27 0 01-.171-.231 4.845 4.845 0 01-.158.163c-.114.116-.229.232-.318.366-.921 1.382-1.841 2.766-2.76 4.151l-.01.014-.002.003-.002.004-.003.003-.002.004a2307.61 2307.61 0 01-3.916 5.881c-.165.248-.356.48-.547.712-.244.297-.488.594-.678.923l-.143.247c-.817 1.405-1.634 2.809-1.671 4.534-.009.44-.083.881-.157 1.321-.093.553-.185 1.105-.149 1.65.123 1.812.321 3.637.711 5.407.458 2.072 1.109 4.107 1.766 6.129.449 1.382.941 2.774 1.637 4.039.272.496.957.809 1.562 1.085l.216.1c1.77.825 3.659 1.106 5.603 1.088.743-.007 1.486-.002 2.228.002 1.078.007 2.155.014 3.232-.015 1.716-.046 3.432-.11 5.147-.174h.001c1.558-.059 3.115-.117 4.673-.162.579-.016.469-.198.258-.538-1.816-2.926-2.684-6.236-3.539-9.497l-.124-.473c-.642-2.441-.808-5.075-.077-7.62.041-.14.079-.281.118-.422.267-.969.534-1.943 1.308-2.671.234-.22.482-.427.729-.634.381-.319.761-.637 1.091-1.001 1.086-1.201 2.511-1.743 3.934-2.285zm-32.65-132.351c-.344-1.981-1.025-3.864-2.154-5.516-.637-.932-1.377-1.793-2.116-2.654a66.032 66.032 0 01-.976-1.152c-2.881-3.019-6.691-3.816-8.912-4.28-.466-.097-.862-.18-1.165-.266-.834-.236-4.957-.62-6.148-.614-.498.002-.603-.017-.686-.032-.18-.034-.263-.049-4.044.213-5.524.382-7.85-2.081-7.991-3.668-.014-.159-.188-.396-.324-.425-.151-.033-.375.095-.516.214-1.891 1.597-5.178 8.858 1.21 11.164 4.577 1.651 4.108 1.546 4.035 1.53l-.006-.002h-.001l.041.013.405.126c1.384.434 2.704 1.086 4.019 1.735a131.254 131.254 0 001.335.65v.001h.002l.003.002c.918.437 1.854.883 2.612 1.524 1.013.858 1.873 1.929 2.672 3.003 1.024 1.378 1.532 2.998 2.038 4.613.097.308.194.615.294.921a.779.779 0 00.045.103.933.933 0 01.023.047l.014-.035.01-.03.009-.023c.023-.063.046-.126.077-.184.679-1.238 1.63-2.25 2.953-2.71 1.157-.402 2.401-.188 3.23.771.828.96 1.133 2.17.411 3.358a12.358 12.358 0 01-1.704 2.226c-.481.489-.753.777-.28 1.477 1.741 2.579 4.788 3.781 7.592 2.793.595-.21 1.133-.599 1.37-1.431.385-1.346.84-2.672 1.296-3.998l.001-.001c.393-1.146.787-2.292 1.135-3.452.59-1.964.541-3.999.191-6.011zm-16.941 12.627c-.16-.79-.322-1.579-.322-2.382 0-3.606-2.79-8.449-3.769-9.411-1.088-1.07-2.506-1.882-3.907-2.537-1.33-.622-2.726-1.104-4.12-1.587-.502-.173-1.003-.346-1.5-.526-.797-.287-1.408.025-1.661.803-.108.33-.23.659-.35.988-.282.765-.564 1.53-.678 2.319-.18 1.232-.105 2.515-.027 3.769.123 1.95.308 3.899.53 5.841.18 1.576-.245 2.996-.897 4.39-.431.923-.278 1.253.672 1.59 1.64.583 1.64.583 1.64 2.453 0 1.429.17 1.516 1.56.89.757-.341 1.474-.667 1.68-1.613l.004-.009c.208-.484 1.163.073 1.053.588-.268 1.254-1.283 1.676-2.306 2.102l-.198.082c-1.939.816-2.2 1.406-1.572 3.436.657 2.119 2.134 3.264 4.286 3.617 3.805.625 7.242-.34 10.433-2.394.207-.133.412-.273.616-.412.489-.333.978-.667 1.505-.918.499-.238.334-.379.11-.571l-.058-.049c-.036-.032-.093-.047-.147-.062-.063-.017-.123-.033-.144-.073-.12-.23-.22-.47-.322-.709a24.145 24.145 0 00-.112-.263c.09.036.187.066.283.095.208.064.416.128.567.258a114.864 114.864 0 013.444 3.084c.465.436.914.889 1.363 1.343.384.387.767.774 1.161 1.15.077.074.399.034.479-.061.307-.365.604-.739.9-1.113l.001-.001c.432-.545.864-1.089 1.327-1.606.282-.314.622-.575.963-.836l.001-.001c.185-.142.371-.284.547-.435.138-.118.355-.305.334-.424-.35-1.965-.214-3.911.204-5.843.154-.712-.233-.776-.718-.856l-.045-.007-.067-.012-1.092-.186c-1.543-.261-3.087-.523-4.602-.899-1.666-.413-3.381-2.712-3.239-4.347.076-.869.379-1.756 1.311-2.288.568-.323 1.045-.88 1.434-1.424.411-.575.107-1.367-.527-1.697-1.112-.58-3.372-.059-3.911 1.046-.467.955-.748 2.016-1 3.057-.21.869-.365 1.751-.52 2.633v.001c-.068.39-.136.78-.209 1.168-.01.056-.025.111-.04.166l-.006.023-.014.054a1.537 1.537 0 00-.042-.08.542.542 0 01-.072-.173c-.06-.381-.137-.761-.214-1.141zm112.91 148.564l1.773.394c.148.033.293.076.438.119l.202.058c1.165.276 2.295.564 3.409.847h.001c1.52.387 3.009.765 4.507 1.096 1.93.426 3.889.723 5.845 1.02h.001l.386.059c.765.116 1.538.183 2.311.25h.002c.426.037.852.074 1.276.119.694.074 1.387.156 2.08.238h.001c1.492.177 2.984.354 4.481.447.954.059 1.916-.007 2.879-.072.44-.03.88-.06 1.319-.078.089-.004.178-.003.267-.001.089.001.178.002.267-.001l3.75-.156h.003a3888.4 3888.4 0 014.824-.199c.427-.018.854-.038 1.282-.058h.002c1.12-.052 2.24-.104 3.36-.112 2.176-.017 4.329-.206 6.386-.934.451-.16.953-.674 1.094-1.129.732-2.373-.22-4.801-3.063-5.417-.883-.192-1.783-.301-2.684-.41-.788-.096-1.577-.191-2.355-.342-2.466-.479-4.935-.75-7.453-.722-.986.011-1.972-.089-2.959-.19h-.002c-.507-.051-1.014-.103-1.521-.139-1.043-.075-13.015-2.135-15.394-2.677-1.451-.331-2.916-.601-4.38-.871-2.808-.517-5.616-1.034-8.328-1.982-.638-.223-1.015.034-1.346.642l-.017.031c-.673 1.233-1.355 2.483-2.213 3.586-.868 1.115-1.818 2.166-2.769 3.217l-.001.002-.001.001h-.001v.001c-.389.43-.778.86-1.161 1.294l-.007.009c-.135.153-.273.31-.436.429-.147.108-.308.198-.468.288h-.001l-.088.05-.074.042-.044.026.053.026.024.013.09.048.073.04c.172.095.345.191.529.233 1.282.296 2.567.581 3.851.865zm-68.712 37.587a85.072 85.072 0 002.638 4.058c.483.694 1.217 1.087 2.073 1.206.941.06 1.806.107 2.644-.023.751-.116 1.022-1.009.714-1.965l-.405-1.248-.002-.003c-.376-1.154-.753-2.309-1.095-3.474-.109-.371-.22-.742-.331-1.114-.46-1.539-.921-3.081-1.233-4.651a43.54 43.54 0 00-3.128-9.698c-1.521-3.31-2.901-6.645-4.023-10.102a602.394 602.394 0 00-2.699-8.151c-.37-1.087-.794-2.157-1.217-3.226l-.186-.47c-.051-.128-.248-.286-.373-.283-.676.016-1.351.043-2.027.069h-.004a78.59 78.59 0 01-3.145.083 64.373 64.373 0 01-5.085-.189c-.452-.036-.894-.197-1.336-.358a11.272 11.272 0 00-.641-.219c-.107-.032-.218-.051-.329-.07l-.072-.012-.08-.015.03.138c.022.099.043.197.076.292.214.61.416 1.223.619 1.836.624 1.888 1.248 3.775 2.189 5.561.586 1.111 1.026 2.298 1.467 3.486.287.773.574 1.547.902 2.301.433.997.937 1.963 1.442 2.929l.001.002.001.002c.183.351.367.702.546 1.055.384.751.779 1.496 1.174 2.241.829 1.564 1.658 3.127 2.374 4.741 1.243 2.801 2.791 5.428 4.34 8.053.667 1.132 1.334 2.263 1.976 3.409.718 1.279 1.436 2.56 2.205 3.809zm121.938-32.146c1.89.413 2.847 1.798 3.776 3.327a660.928 660.928 0 005.195 8.361c.697 1.111 1.395 2.221 2.089 3.333a38.88 38.88 0 002.531 3.403c.28.333.699.577 1.098.772.239.117.612.158.831.046.144-.073.196-.49.159-.733-.707-4.599-2.201-8.976-4.05-13.208-.803-1.838-1.358-3.742-1.913-5.646a83.28 83.28 0 00-.963-3.148 226.826 226.826 0 01-1.222-3.798 224.826 224.826 0 00-1.155-3.599c-.362-1.089-.771-2.162-1.18-3.235l-.386-1.019c-.294-.782-.975-1.048-1.715-.6-1.887 1.143-3.599 2.462-4.89 4.326-.573.827-.23 1.249.341 1.529 1.926.946 2.475 2.606 2.537 4.552.005.162.014.327.023.493.034.644.07 1.299-.111 1.879-.168.537-.564 1.009-.952 1.472-.109.129-.216.257-.318.386-.465.588-.426.953.275 1.107zm-126.557 39.25c-.169.041-.338.082-.506.125-.441.112-.879.237-1.317.363l-.317.09-.117.033-.165.047c-4.11.966-8.047 1.917-11.973 2.911-1.063.269-2.15.56-3.119 1.053-.486.246-.87.701-1.248 1.15a13.32 13.32 0 01-.373.432c-.029.032.206.417.383.499.136.063.308.048.48.033.075-.006.15-.013.222-.013h34.36c1.916 0 2.246-.376 1.638-2.18l-.048-.143c-.564-1.674-1.131-3.356-2.237-4.798-.683-.891-.969-.957-1.845-.241-1.797 1.47-3.791 1.378-5.841.651a9.841 9.841 0 01-1.214-.507c-.731-.375-1.189-1.006-1.559-1.725-.427-.83-.798-.887-1.221-.132-.897 1.601-2.435 1.975-3.983 2.352zm-68.103-65.545c.18-.113.36-.226.4-.377.214-.794.384-1.601.554-2.407v-.001c.06-.285.12-.57.182-.855.18-.563.315-1.091.446-1.603.072-.281.143-.558.22-.833.035-.13.137-.241.238-.352a3.105 3.105 0 00.134-.156c.06.062.136.126.213.189.167.137.334.275.323.395l-.009.089v.001c-.095.98-.192 1.976-.46 2.917-.339 1.184-.202 2.279.251 3.369.044.106.171.179.298.251.058.033.117.067.167.104l.045-.141v-.001c.033-.102.066-.203.094-.307.077-.283.147-.569.218-.854v-.002c.148-.602.297-1.204.504-1.786l.084-.236c1.076-3.02 2.159-6.062 4.56-8.337.816-.774 1.833-1.411 2.867-1.855.965-.413.65-1.161.472-1.584l-.002-.005a2.654 2.654 0 01-.03-.07c-.454-1.108-.983-2.185-1.512-3.263v-.001c-.34-.69-.68-1.381-.999-2.079-.17-.372-.36-.263-.522-.171l-.046.025a169.17 169.17 0 00-4.12 2.297 65.11 65.11 0 01-.674.383c-.843.476-1.69.953-2.425 1.561a9.708 9.708 0 00-2.122 2.476c-.867 1.462-1.588 3.018-2.268 4.579-.223.513-.285 1.103-.346 1.682-.013.128-.026.256-.041.382a22.29 22.29 0 00-.168 2.421c-.002.178.1.357.204.537l.034.059a4.46 4.46 0 01.096.187c.087-.04.188-.072.288-.104.22-.071.438-.141.51-.285.41-.811.765-1.651 1.12-2.49l.003-.008.14-.33.075-.179c.053-.122.09-.255.126-.386v-.001c.061-.222.122-.441.254-.606.15-.188.377-.312.605-.437.1-.055.199-.11.292-.17-.016.161.084.264.19.372.144.149.299.308.17.641-.519 1.332-.975 2.705-1.265 4.102-.148.714-.098 1.474-.048 2.225.013.194.026.387.035.578.007.143.13.281.252.419.056.063.113.127.158.19.07-.055.152-.107.235-.159zm10.918-19.473c.153.295.305.591.433.899.24.578.523 1.137.806 1.696v.002h.001c.126.249.252.498.374.748.441.925.837 1.811 1.226 2.681l.001.001c.186.417.37.829.558 1.241.274.603.725.756 1.335.448 1.156-.584 2.195-1.273 2.471-2.666.046-.232.08-.502.01-.718a80.66 80.66 0 01-.362-1.145v-.001c-.346-1.115-.692-2.232-1.173-3.286-.763-1.675-2.08-2.982-3.507-4.108-.627-.496-1.431-.236-2.137.195-.666.407-.816.85-.797 1.676.02.903.39 1.62.76 2.337zm199.625 59.169c.51 1.565 1.115 3.102 1.752 4.62.425 1.013.68 1.005 1.349.122-.461-1.432-.969-2.828-1.474-4.216-.361-.995-.722-1.986-1.062-2.983-.547-1.602-1.017-3.23-1.487-4.858v-.003h-.001c-.111-.386-.222-.773-.335-1.159-.307-1.053-.605-2.11-.904-3.166v-.001a280.518 280.518 0 00-1.245-4.322 116.378 116.378 0 00-1.348-4.131l-.249-.732-.222-.66-.001-.001c-.444-1.317-.889-2.634-1.387-3.93-.541-1.409-1.153-2.79-1.78-4.163-.066-.145-.247-.237-.429-.329-.083-.043-.167-.085-.239-.133a2.237 2.237 0 01-.088.209c-.071.153-.142.306-.107.429.235.827.496 1.648.757 2.468.099.308.197.617.294.926l1.101 3.522v.001c.815 2.613 1.631 5.227 2.467 7.834a307.32 307.32 0 001.377 4.165 293.86 293.86 0 011.47 4.457c.303.95.575 1.91.848 2.869.301 1.059.602 2.119.943 3.165zM128.48 386.634c.404.03.809.06 1.214.088 7.649.089 15.209.092 22.769.081a7.546 7.546 0 001.612-.19c.19-.043.498-.404.465-.464a2.559 2.559 0 00-.636-.751c-.074-.06-.209-.044-.343-.029a1.44 1.44 0 01-.179.015h-35.399l-.051-.002a2.536 2.536 0 01-.087-.005h-.001c-.105-.008-.21-.016-.302.016-.118.04-.226.112-.333.185-.046.031-.092.062-.139.091l.055.049c.036.035.072.072.108.11.117.123.234.245.357.252 1.558.082 3.116.15 4.675.218 1.179.051 2.358.103 3.537.16.893.044 1.785.11 2.678.176zm-49.797 2.841c-1.423-.56-2.85-1.121-4.278-1.697a996.472 996.472 0 00-3.653-2.207l-.012-.008-.01-.005-.013-.009-.008-.004-.006-.004c-1.329-.8-2.65-1.595-3.966-2.397-1.847-1.126-3.117-2.712-3.752-4.796-.35-1.147.124-2.244 1.268-2.487.72-.153 1.506-.098 2.248-.013l.333.038.142.015.14.015c1.09.119 2.189.238 3.221.555 5.698 1.749 11.228 3.953 16.703 6.302l.245.106c.959.414 1.968.85 2.97.902 3.16.161 6.327.184 9.492.207h.001l1.117.009c3.739.029 7.48.018 11.219-.007.525-.003.769.084.666.653-.025.134-.019.273-.014.412v.001c.004.099.007.198 0 .296-.004.07-.083.191-.131.193-.759.028-1.518.053-2.277.055-2.219.004-4.438.003-6.657.002h-4.91c-2.981.001-5.963.002-8.944-.009a2.879 2.879 0 01-1.064-.216c-.941-.392-1.878-.794-2.815-1.196l-.004-.002h-.001l-.001-.001h-.001a214.957 214.957 0 00-3.767-1.589 545.106 545.106 0 00-9.404-3.729c-2.164-.833-4.34-1.66-6.724-1.608-.768.017-1.195.604-.99 1.37.404 1.52 1.39 2.627 2.68 3.411l.371.225c2.025 1.231 4.058 2.467 6.188 3.492a186.622 186.622 0 0010.38 4.588c2.586 1.058 5.199 1.762 8.148 1.568 1.632-.107 3.268-.152 4.906-.197h.003c2.387-.065 4.775-.131 7.156-.389.593-.065 1.202.04 1.814.146.413.072.828.143 1.241.163 2.08.1 4.164.154 6.248.183 2.136.03 4.274.034 6.41-.01.312-.006.624-.083.934-.159.354-.087.706-.174 1.055-.157 1.174.059 2.346.152 3.518.244h.002c1.217.096 2.433.192 3.651.25 1.412.068 2.828.045 4.243.022l.921-.014c.255-.003.511-.041.766-.078.315-.047.629-.093.94-.075.461.028.92.091 1.378.155.531.074 1.061.148 1.593.165.607.019 1.216-.032 1.825-.083.347-.028.693-.057 1.039-.073 1.605-.074 3.209-.144 4.814-.213l3.32-.145c1.248-.056 2.497-.117 3.745-.177l.003-.001c2.683-.13 5.367-.26 8.052-.342a401.27 401.27 0 017.279-.134c1.437-.018 2.874-.036 4.312-.063.629-.012 1.28-.025 1.881-.185 3.75-.999 7.421-2.224 10.977-3.796 3.914-1.73 7.726-3.636 11.342-5.936.779-.495.902-1.151.721-1.817-.136-.499-.618-1.184-1.048-1.269-1.101-.217-2.283-.306-3.387-.142-.6.089-1.172.35-1.747.612-.36.164-.721.329-1.092.453-1.467.488-2.939.962-4.411 1.435-1.277.41-2.554.821-3.828 1.241-1.017.336-2.031.686-3.044 1.036-1.793.618-3.585 1.237-5.401 1.779l-.021.007c-2.339.699-4.7 1.404-7.202 1.264-1.415-.079-2.83-.145-4.245-.21-1.059-.05-2.118-.099-3.176-.154-.305-.015-.608-.053-.912-.09h-.001a26.342 26.342 0 00-.613-.069.355.355 0 00-.171.048h-.001c-.027.012-.053.024-.08.033.005-.122.005-.246.004-.369-.001-.317-.002-.634.083-.926.039-.136.499-.211.767-.212 1.806-.007 3.613-.007 5.419-.008h.014c1.81-.001 3.62-.002 5.43-.009a4.576 4.576 0 001.259-.179 121.06 121.06 0 003.283-1.025l.262-.085c2.01-.648 4.019-1.298 6.028-1.948l.021-.007h.003l.003-.001.003-.001c3.607-1.167 7.214-2.333 10.823-3.492 2.085-.669 4.202-1.3 6.409-.7 2.073.563 3.196 2.276 2.615 4.497-.31 1.187-1.216 1.772-2.095 2.339l-.09.059c-4.755 3.076-9.891 5.407-15.174 7.406-3.932 1.488-7.942 2.733-12.22 2.75-.129 0-.257.088-.385.177-.06.041-.119.082-.179.114a2.1 2.1 0 01.171.142c.122.106.243.211.383.255 3.246 1.003 5.391 4.833 4.589 8.044-1.302 5.21-5.177 6.669-9.562 5.536-5.42-1.401-6.589-8.392-2.966-11.929.529-.516 1.204-.885 1.879-1.254.314-.171.628-.343.927-.529.105-.066.203-.143.305-.214-.034-.019-.067-.042-.101-.065-.072-.051-.145-.102-.219-.105-.356-.013-.712-.011-1.069-.009l-.173.001h-.213l-1.791-.003c-1.313-.003-2.626-.007-3.938.007-1.776.018-3.552.044-5.328.071-3.018.045-6.036.09-9.054.095-12.493.02-24.986.012-37.48.004h-.02l-5.509-.003c-.146 0-.292-.038-.439-.075-.157-.04-.314-.081-.469-.074-.226.009-.449.075-.672.141-.098.029-.195.058-.293.082.059.067.114.139.17.211.122.158.243.316.4.423.221.15.47.276.717.402.443.225.882.448 1.154.802 2.074 2.699 2.875 5.598.925 8.94-.803 1.376-1.891 2.393-3.407 2.944-1.734.629-3.529.615-5.248.168-1.09-.283-2.31-.822-3.01-1.639-.86-1.005-1.375-2.375-1.8-3.666-.865-2.629.55-6.132 3-7.416.322-.169.607-.419.88-.664.096-.086.161-.205.227-.325.03-.054.059-.108.091-.159a2.74 2.74 0 01-.186-.096c-.139-.077-.277-.153-.416-.153a2.283 2.283 0 00-.514.077 2.57 2.57 0 01-.48.077c-1.891.056-3.709-.064-5.524-.845-2.657-1.143-5.35-2.203-8.06-3.268zm21.288 6.913c-2.868-1.657-5.273-1.241-7.354 1.026-2.136 2.557-1.006 7.448 2.76 8.258 1.694.365 3.34.362 4.747-.835 1.174-.998 1.942-2.273 2.092-3.81.139-1.428-.588-3.681-2.245-4.639zm73.868 3.998v-.001a26.035 26.035 0 01-.006-.485c-.675-3.307-3.026-4.885-5.884-4.471-2.893.418-4.987 2.849-4.33 6.222.428 2.199 1.637 3.452 3.733 4.054 2.946.847 6.286-1.389 6.476-4.267.023-.35.017-.701.011-1.052zM86.951 174.26c-.156-.015-.883.098-1.78.238-1.228.191-2.772.431-3.6.458-.83.026-.042.915.095.921 1.83.078 5.796-1.131 5.285-1.617zm-2.673 7.01c.775-.293.404-2.669-.364-2.669-.76 0-.393 2.956.364 2.669zm11.165 217.794c-.67 1.521-.624 2.143.174 2.97.545.565 1.532.661 2.151.209.662-.482.968-1.623.649-2.414-.56-1.392-1.793-1.732-2.974-.765zm71.775.117c1.041-.964 2.078-.91 3.352.338.464 1.075.236 2.213-1.483 2.516-.926.164-1.475-.11-1.986-.665-.533-.577-.381-1.728.117-2.189z" fill="#080E2E"/><path fill-rule="evenodd" clip-rule="evenodd" d="M106.804 205.487c1.549-.455 1.916-2.804 3.478-3.209 1.545-.402 3.029 1.428 4.57 1.011 1.047-.285 1.537-1.442 2.117-2.359.564-.893 1.753-1.699 2.601-1.123l.07.052c1.178.928 2.944.342 4.13-.577 1.186-.918 2.191-2.156 3.615-2.629-.747-.738-2.043-.202-2.766.559-.724.762-1.313 1.765-2.319 2.07-1.54.466-3.275-.965-4.73-.274-.904.429-1.272 1.49-1.813 2.332-.541.842-1.72 1.548-2.488.907-1.866-1.556-5.2-.57-5.918 1.75-.209.674-1.13 1.661-.547 1.49zm92.355 176.364c-4.301 2.535-17.776 10.003-27.653 10.251l-81.7.257s-42.96-15.114-11.55-9.411c1.777.323 6.868 3.369 15.054 4.033 14.964 1.213 78.196.437 78.196.437s28.785-6.234 27.653-5.567z" fill="#ADB5BD"/><ellipse rx="3.121" ry="3.122" transform="matrix(-1 0 0 1 91.856 187.081)" fill="#3D5EB4"/><path fill-rule="evenodd" clip-rule="evenodd" d="M136.516 214.874l-.359.554-.119.179c-.752 1.104-1.895 2.189-3.166 1.867-3.382-.856-7.23.638-9.148 3.553-.948 1.441-3.054 1.158-4.775.789l-.227-.05c-1.727-.383-4.115-.202-4.551 1.471l-.023.097c-.201.963-1.414 1.256-2.412 1.231l-.309-.011c-2.51 0-2.839 1.381-2.839 1.239 0 0 5.518-.419 6.679-2.291l.071-.119c.74-1.296 2.608-1.085 4.069-.645l.402.126.202.059c1.426.399 3.157.544 3.873-.687 1.643-2.825 5.065-4.504 8.306-4.074.834.11 1.698.345 2.497.08 1.91-.633 2.16-3.583 4.039-4.303 2.372-.907 4.668 2.541 7.122 1.89a19.92 19.92 0 00-4.899-2.743c-.587-.226-1.21-.428-1.835-.353-1.158.141-1.934 1.136-2.598 2.141zm-30.133 3.404c.237.73.411 1.377.527 1.927.241-1.584 1.814-3.049 3.298-2.536l.085.032c.942.375 1.939-.404 2.548-1.214l.146-.197.22-.302c.492-.673 1.022-1.336 1.81-1.528 1.441-.35 2.713 1.085 4.186 1.257 3.409.396 5.113-5.709 8.46-4.951.732.165 1.365.667 2.108.768 2.053.281 3.154-2.33 4.883-3.47 1.302-.858 3.139-.806 4.39.124-.063-1.49-2.09-2.147-3.474-1.586-1.383.56-2.333 1.821-3.482 2.775-1.12.929-2.782 1.567-4.002.811l-.093-.061c-1.467-1.016-3.43.273-4.576 1.641l-.416.499c-1.046 1.245-2.241 2.539-3.809 2.42-1.441-.11-2.666-1.452-4.094-1.237-2.082.313-2.932 3.668-5.024 3.441a4.894 4.894 0 00-3.75 1.21l.059.177zm-1.081-7.02c.336.471.673.849 1.011 1.135l.112.091.282-.201c1.368-.972 2.863-1.919 4.526-1.879.608.014 1.231.161 1.814-.011 1.548-.454 1.916-2.803 3.477-3.209 1.545-.401 3.03 1.429 4.57 1.011 1.048-.284 1.537-1.441 2.117-2.359.564-.892 1.753-1.698 2.602-1.122l.07.051c1.177.929 2.943.342 4.129-.576 1.186-.919 2.192-2.157 3.616-2.629-.748-.738-2.043-.202-2.767.559-.724.761-1.312 1.765-2.318 2.069-1.541.467-3.276-.964-4.73-.274-.905.43-1.272 1.491-1.813 2.333-.542.842-1.72 1.547-2.489.906-1.865-1.556-5.199-.569-5.918 1.751-.208.673-1.104.83-1.796.695-.692-.136-1.403-.437-2.075-.225-.855.269-1.293 1.263-2.116 1.617-.857.368-1.882-.1-2.455-.84l-.058-.078c-.461-.646-.245.549.209 1.185zm17.953 17.697l-.258.076c-.346.105-.606.261-.909.518l-.15.132-.191.174a5.851 5.851 0 01-.238.207c-.506.415-1.078.672-2.033.824-.641.101-1.092-.001-1.871-.363l-.281-.134c-1.258-.608-1.989-.777-3.169-.506-1.008.232-1.471.622-1.847 1.356l-.095.195c-.18.376-.761.724-1.22.998-.344.206-.619.37-.604.475.033.244 2.16-.151 2.583-.995l.092-.19c.275-.567.526-.793 1.291-.969.897-.207 1.441-.099 2.442.372l.281.135c1.016.489 1.638.649 2.538.507 1.111-.177 1.83-.5 2.458-1.015.044-.036.086-.071.13-.11l.374-.337c.262-.233.44-.348.68-.421l.147-.045c.623-.182 2.047.291 3.085.636.652.216 1.151.382 1.205.304.117-.168-3.2-2.157-4.44-1.824zm.152 6.78l-.239.066c-.321.093-.562.23-.843.456l-.14.116-.176.152c-.086.074-.153.13-.221.183-.469.364-1 .59-1.886.723-.593.09-1.012 0-1.734-.319l-.26-.117c-1.167-.534-1.846-.683-2.94-.445-.934.204-1.364.547-1.713 1.192l-.088.171c-.167.331-.706.636-1.131.877-.319.181-.574.326-.561.418.031.214 2.004-.133 2.396-.875l.085-.167c.255-.498.488-.697 1.198-.852.831-.181 1.336-.086 2.265.328l.26.118c.942.43 1.519.571 2.353.446 1.031-.156 1.698-.439 2.28-.892l.121-.097.346-.296c.243-.205.408-.305.631-.37l.137-.039c.577-.16 1.898.256 2.861.559.603.19 1.066.335 1.117.267.108-.148-2.968-1.896-4.118-1.603zm-.442 7.203l.225-.066c1.086-.293 3.991 1.455 3.889 1.603-.048.068-.485-.077-1.055-.267-.909-.303-2.157-.719-2.702-.559l-.129.039c-.211.065-.367.165-.596.37l-.327.296a4.562 4.562 0 01-.114.097c-.55.452-1.18.736-2.153.892-.788.125-1.333-.016-2.223-.446l-.246-.118c-.877-.414-1.353-.509-2.139-.328-.67.155-.89.354-1.131.852l-.08.167c-.37.742-2.234 1.089-2.263.875-.012-.092.229-.237.53-.418.402-.241.91-.546 1.068-.877l.083-.171c.33-.645.736-.988 1.618-1.192 1.033-.238 1.674-.089 2.776.445l.246.117c.682.319 1.077.409 1.638.319.837-.133 1.338-.359 1.781-.723.064-.053.128-.109.208-.183l.167-.152.132-.116c.265-.226.494-.363.797-.456zm.225 8.409l-.225.066c-.303.093-.532.23-.797.456l-.132.116-.167.153c-.08.073-.144.129-.208.182-.443.364-.944.59-1.781.723-.561.09-.956 0-1.638-.319l-.246-.117c-1.102-.534-1.743-.683-2.776-.444-.882.203-1.288.546-1.618 1.191l-.083.172c-.158.33-.666.636-1.068.877-.301.18-.542.325-.53.417.029.214 1.893-.133 2.263-.875l.08-.166c.241-.499.461-.698 1.131-.852.786-.182 1.262-.087 2.139.327l.246.118c.89.43 1.435.571 2.223.446.973-.155 1.603-.439 2.153-.892.038-.031.075-.063.114-.097l.327-.296c.229-.205.385-.305.596-.37l.129-.039c.545-.16 1.793.256 2.702.559.57.19 1.007.336 1.055.267.102-.148-2.803-1.896-3.889-1.603zm-.914 8.542l.24-.067c1.149-.293 4.225 1.455 4.117 1.603-.05.069-.513-.077-1.117-.267-.963-.303-2.284-.719-2.861-.559l-.137.039c-.223.065-.388.166-.631.37l-.346.296c-.041.034-.08.066-.121.097-.582.453-1.249.737-2.28.892-.833.125-1.41-.016-2.353-.445l-.26-.119c-.929-.414-1.433-.509-2.265-.327-.71.154-.943.353-1.197.852l-.086.166c-.392.743-2.365 1.089-2.395.875-.013-.092.242-.237.56-.417.426-.241.965-.547 1.131-.877l.089-.171c.349-.646.778-.989 1.713-1.192 1.094-.239 1.772-.09 2.939.444l.26.118c.722.318 1.141.408 1.735.319.885-.134 1.416-.36 1.885-.724.068-.053.135-.109.221-.182l.177-.153.139-.116c.281-.226.523-.363.843-.455zm-2.191 7.775l-.247.024a2.293 2.293 0 00-.91.302l-.157.09-.201.12a4.678 4.678 0 01-.249.141c-.525.277-1.087.408-1.982.385-.601-.015-.998-.176-1.653-.615l-.236-.162c-1.057-.728-1.699-.992-2.818-.947-.955.038-1.438.301-1.893.876l-.117.153c-.222.296-.805.504-1.266.667-.345.123-.622.221-.625.314-.007.216 1.996.217 2.512-.446l.112-.149c.338-.446.602-.602 1.327-.631.851-.034 1.331.147 2.174.716l.236.162c.853.586 1.397.826 2.24.847 1.042.026 1.748-.137 2.4-.482l.136-.074.392-.232c.275-.159.455-.23.685-.254l.142-.015c.596-.058 1.825.581 2.721 1.047.561.292.992.516 1.053.457.133-.127-2.593-2.383-3.776-2.294zm-5.625 5.776l.198.019c.945.111 2.825 2.191 2.706 2.265-.056.034-.369-.196-.777-.496-.652-.479-1.545-1.136-2.023-1.183l-.114-.01c-.185-.016-.335.01-.572.087l-.338.113-.116.035c-.557.159-1.135.175-1.955 0-.663-.141-1.063-.4-1.667-.962l-.166-.155c-.597-.548-.955-.754-1.631-.855-.577-.087-.804-.011-1.125.27l-.107.094c-.487.415-2.069.116-2.038-.044.014-.068.244-.1.532-.139.383-.053.87-.12 1.081-.307l.11-.096c.43-.359.843-.482 1.603-.368.889.134 1.364.425 2.111 1.123l.166.155c.465.424.759.602 1.232.703.705.15 1.164.137 1.612.01.066-.019.131-.04.215-.068l.172-.059.135-.043a1.88 1.88 0 01.756-.089zm-4.707 4.034l-.198-.019a1.89 1.89 0 00-.755.088l-.135.044-.173.059a4.314 4.314 0 01-.214.067c-.449.128-.908.141-1.613-.01-.473-.1-.767-.279-1.232-.702l-.166-.155c-.747-.698-1.222-.99-2.111-1.123-.76-.114-1.173.009-1.602.368l-.111.096c-.211.187-.697.254-1.081.306-.288.04-.518.071-.531.14-.032.159 1.55.459 2.037.044l.107-.094c.321-.281.549-.357 1.125-.271.676.102 1.034.308 1.631.856l.166.154c.604.563 1.004.822 1.668.963.82.175 1.397.158 1.954 0l.116-.035.338-.113c.237-.078.387-.103.573-.087l.113.01c.478.046 1.371.703 2.023 1.182.408.301.721.531.777.496.12-.074-1.76-2.154-2.706-2.264zm-6.476 4.321l.156.043c.74.222 1.95 2.149 1.844 2.192-.049.02-.267-.209-.551-.506-.453-.475-1.075-1.126-1.451-1.231l-.089-.024a1.07 1.07 0 00-.47-.011l-.286.043-.098.011c-.467.049-.931-.02-1.562-.275-.51-.207-.794-.47-1.197-1.005l-.112-.147c-.4-.522-.656-.737-1.183-.914-.448-.15-.64-.122-.937.058l-.099.06c-.448.263-1.67-.199-1.623-.323.02-.052.21-.045.445-.036.314.012.712.027.907-.093l.102-.061c.394-.226.742-.266 1.333-.068.692.232 1.03.532 1.53 1.195l.111.147c.312.405.522.589.885.736.542.22.912.274 1.288.235.055-.005.11-.013.181-.024l.146-.022.114-.016c.228-.027.407-.02.616.036zm-4.8 3.647l-.156-.043a1.53 1.53 0 00-.616-.036l-.114.016-.146.022a2.87 2.87 0 01-.181.024c-.376.039-.746-.016-1.288-.235-.363-.147-.573-.331-.885-.736l-.112-.147c-.498-.663-.837-.963-1.529-1.195-.591-.198-.939-.158-1.333.068l-.102.061c-.195.12-.593.105-.907.093-.236-.009-.424-.016-.445.036-.047.123 1.175.586 1.623.323l.1-.06c.295-.18.488-.208.936-.058.527.177.783.392 1.183.914l.112.147c.403.535.687.798 1.197 1.005.63.255 1.095.323 1.562.275l.098-.011.286-.043c.2-.029.324-.028.47.011l.09.024c.375.104.997.756 1.45 1.231.284.297.502.526.551.506.106-.043-1.104-1.97-1.844-2.192zm-5.952 3.525l.155.043c.74.222 1.95 2.15 1.844 2.192-.049.02-.267-.208-.551-.506-.453-.475-1.075-1.126-1.45-1.23l-.09-.024a1.082 1.082 0 00-.47-.012l-.285.043-.098.012c-.468.048-.932-.02-1.563-.276-.51-.206-.794-.47-1.197-1.004l-.111-.148c-.4-.522-.657-.737-1.183-.913-.449-.151-.641-.122-.938.057l-.098.06c-.448.263-1.671-.199-1.623-.322.02-.053.209-.046.444-.037.314.012.712.028.908-.092l.102-.062c.394-.226.741-.266 1.332-.068.692.232 1.031.533 1.53 1.196l.111.147c.312.404.522.588.885.736.543.219.912.273 1.288.235a3.87 3.87 0 00.18-.024l.147-.023.114-.015a1.53 1.53 0 01.617.035z" fill="#3D5EB4"/><path d="M250.842 50.538s-8.253-15.91-29.188-13.921c-20.905 1.988-18.435 17.929-28.375 16.422-9.97-1.507-23.887 0-26.899 9.974-2.982 9.974-16.417 4.49-16.929 12.957-.512 8.468 15.423 14.434 33.858 6.96 18.434-7.472 27.381 5.817 53.286 3.406 25.875-2.41 29.098-5.394 44.43-3.887 15.332 1.506 14.971-9.01 7.982-15.97-6.958-6.992-35.182-6.329-38.165-15.941zm-95 64.092s-2.829-5.515-9.972-4.832c-7.142.684-6.307 6.222-9.716 5.704-3.409-.519-8.163 0-9.207 3.464-1.02 3.465-5.611 1.556-5.797 4.502-.139 2.923 5.311 5.02 11.595 2.404 6.308-2.592 9.369 2.027 18.227 1.179 8.858-.825 9.948-1.862 15.189-1.344 5.241.519 5.125-3.134 2.737-5.562-2.389-2.404-12.036-2.168-13.056-5.515z" fill="#E9ECEF"/><path d="M247.767 209.902s-5.121-9.853-18.073-8.618c-12.953 1.236-11.417 11.089-17.562 10.185-6.175-.934-14.79 0-16.657 6.177-1.838 6.178-10.181 2.773-10.483 8.016-.301 5.243 9.549 8.949 20.965 4.309 11.417-4.641 16.959 3.586 32.984 2.109 16.025-1.476 18.013-3.345 27.502-2.41 9.488.934 9.277-5.575 4.94-9.884-4.308-4.339-21.779-3.917-23.616-9.884z" fill="#fff"/><path d="M195.894 127.231s-3.012-5.816-10.663-5.092c-7.651.723-6.747 6.569-10.362 5.996-3.645-.542-8.736 0-9.82 3.646-1.084 3.646-5.994 1.627-6.175 4.731-.181 3.104 5.633 5.273 12.38 2.561 6.748-2.742 10.001 2.11 19.489 1.236 9.459-.874 10.633-1.959 16.236-1.416 5.603.542 5.482-3.285 2.922-5.846-2.591-2.531-12.892-2.29-14.007-5.816z" fill="#E9ECEF"/></g><defs><clipPath id="clip0_105_7"><path fill="#fff" d="M0 0h251v418H0z"/></clipPath></defs></svg>