<svg width="28" height="18" viewBox="0 0 28 18" fill="none" xmlns="http://www.w3.org/2000/svg"><path d="M27.246 8.41c-.188-.187-2.606-3.218-3.014-3.718-.44-.5-.628-.406-.911-.375-.283.031-3.329.562-3.674.594-.346.062-.566.187-.346.5.189.28 2.199 3.093 2.638 3.75l-8.008 1.905L7.588.473c-.251-.375-.314-.5-.88-.468-.565.03-4.993.406-5.307.406-.314.031-.66.156-.345.906.314.75 5.339 11.5 5.464 11.812.126.312.503.812 1.35.625.88-.219 3.894-1 5.559-1.438.88 1.563 2.638 4.75 2.983 5.219.44.625.754.5 1.413.312.534-.156 8.228-2.906 8.573-3.062.346-.156.566-.25.314-.594-.188-.25-2.198-2.968-3.265-4.374.722-.188 3.328-.875 3.61-.97.315-.093.378-.25.19-.437zm-14.54 2.969c-.094.031-4.584 1.094-4.804 1.156-.251.063-.251.031-.251-.062-.063-.094-5.339-10.968-5.433-11.093-.063-.125-.063-.25 0-.25S6.458.755 6.583.755c.157 0 .126.03.188.125 0 0 5.873 10.093 5.967 10.249.126.156.063.219-.031.25zm12.625 2.344c.063.125.157.187-.095.25-.22.093-7.568 2.562-7.725 2.624-.157.063-.25.094-.44-.187-.188-.281-2.574-4.375-2.574-4.375l7.819-2.03c.189-.063.251-.095.377.093.125.218 2.575 3.53 2.638 3.625zm.502-5.5c-.188.031-3.046.75-3.046.75l-2.355-3.187c-.063-.094-.126-.188.031-.22.157-.03 2.826-.5 2.952-.53.126-.032.22-.063.377.156.157.187 2.167 2.75 2.261 2.843.094.094-.031.157-.22.188z" fill="#FB503B"/></svg>