<svg width="21" height="18" viewBox="0 0 21 18" fill="none" xmlns="http://www.w3.org/2000/svg"><path d="M17.02 5.834a13.837 13.837 0 00-.659-.205c.037-.148.07-.296.102-.444.498-2.393.172-4.321-.94-4.956-1.067-.609-2.811.026-4.573 1.543-.174.15-.343.304-.51.462a12.348 12.348 0 00-.338-.31C8.255.303 6.405-.38 5.293.256c-1.065.61-1.381 2.423-.933 4.691.045.225.095.448.152.67-.262.074-.515.152-.757.236C1.59 6.599.207 7.769.207 8.982c0 1.255 1.484 2.512 3.74 3.275.182.061.367.118.552.17-.06.24-.114.481-.16.723-.428 2.229-.094 3.998.969 4.605 1.098.626 2.94-.018 4.734-1.57.142-.122.284-.252.427-.388.18.171.364.337.553.499 1.738 1.48 3.454 2.077 4.516 1.468 1.097-.628 1.453-2.529.99-4.841a11.408 11.408 0 00-.122-.541c.129-.038.256-.077.38-.118 2.344-.768 3.87-2.01 3.87-3.281 0-1.218-1.428-2.397-3.636-3.149z" fill="#53C1DE"/><path d="M16.511 11.444c-.112.036-.226.072-.343.106a20.158 20.158 0 00-1.036-2.563c.408-.87.744-1.72.995-2.525.21.06.413.123.608.19 1.892.644 3.047 1.597 3.047 2.33 0 .783-1.247 1.798-3.27 2.462h-.001zm-.84 1.646c.205 1.023.234 1.948.099 2.67-.122.65-.367 1.083-.67 1.256-.644.37-2.022-.11-3.509-1.376-.17-.145-.342-.3-.514-.463a20.357 20.357 0 001.714-2.154 20.61 20.61 0 002.77-.422c.041.166.078.33.11.49zm-8.493 3.863c-.63.22-1.13.226-1.434.053-.645-.368-.913-1.789-.547-3.695.043-.225.093-.449.15-.671a20.69 20.69 0 002.755.394 21.068 21.068 0 001.755 2.146c-.127.121-.257.24-.39.355-.793.686-1.588 1.173-2.288 1.418zM4.23 11.439c-.997-.337-1.82-.775-2.385-1.254-.507-.43-.763-.856-.763-1.202 0-.737 1.11-1.676 2.961-2.315.233-.08.467-.153.704-.22.256.824.592 1.685.997 2.556-.41.884-.751 1.758-1.01 2.591a11.27 11.27 0 01-.504-.156zm.989-6.659c-.385-1.943-.13-3.409.513-3.777.684-.391 2.197.167 3.79 1.568.103.09.205.183.308.28a20.754 20.754 0 00-1.742 2.133c-.962.088-1.882.23-2.729.42a12.554 12.554 0 01-.14-.624zm8.82 2.155c-.2-.341-.407-.679-.622-1.012.652.082 1.278.19 1.864.323a18.322 18.322 0 01-.654 1.742 29.973 29.973 0 00-.588-1.053zM10.44 3.47c.403.432.806.914 1.203 1.437a25.997 25.997 0 00-2.416 0c.397-.519.804-1 1.213-1.437zM6.821 6.94c-.2.344-.393.693-.577 1.046a18.943 18.943 0 01-.65-1.75 19.9 19.9 0 011.854-.315c-.217.335-.426.674-.627 1.019zm.646 5.165a18.773 18.773 0 01-1.885-.3c.18-.577.403-1.176.663-1.786a25.296 25.296 0 001.222 2.086zm2.998 2.452c-.414-.442-.827-.93-1.23-1.457a30.85 30.85 0 002.43-.004c-.398.536-.8 1.025-1.2 1.461zm4.17-4.57c.273.617.503 1.213.686 1.78-.593.134-1.233.242-1.907.322a29.133 29.133 0 001.22-2.101zm-1.35.641a28.49 28.49 0 01-.981 1.566c-.607.043-1.234.065-1.873.065-.636 0-1.255-.02-1.851-.058a24.519 24.519 0 01-1.872-3.198A24.247 24.247 0 018.57 5.812a25.014 25.014 0 013.728 0c.346.507.675 1.026.985 1.556.311.532.605 1.073.881 1.623a26 26 0 01-.878 1.638zm1.802-9.65c.684.39.95 1.966.52 4.032-.028.135-.058.269-.091.402a21.133 21.133 0 00-2.735-.427 20.347 20.347 0 00-1.728-2.134c.153-.146.31-.289.47-.427 1.51-1.3 2.92-1.813 3.564-1.446z" fill="#fff"/><path d="M10.431 7.176c1.009 0 1.826.81 1.826 1.807 0 .998-.817 1.807-1.826 1.807a1.816 1.816 0 01-1.826-1.807c0-.998.818-1.807 1.826-1.807z" fill="#53C1DE"/></svg>