<svg width="18" height="19" viewBox="0 0 18 19" fill="none" xmlns="http://www.w3.org/2000/svg"><path d="M8.545 0L.072 3.003 1.41 14.185l7.143 3.954 7.18-4.008 1.338-11.18L8.545 0z" fill="#B3B3B3"/><path d="M16.227 3.596L8.525.951v16.243l6.454-3.598 1.248-10z" fill="#A6120D"/><path d="M1.023 3.644l1.147 10 6.355 3.55V.951L1.023 3.644z" fill="#DD1B16"/><path d="M10.645 9.598l-2.12.999H6.29l-1.05 2.646-1.954.036L8.525 1.541l2.12 8.057zm-.205-.503l-1.9-3.79L6.98 9.03h1.545l1.915.065z" fill="#F2F2F2"/><path d="M8.525 1.54l.014 3.764 1.77 3.729h-1.78l-.004 1.561 2.46.003 1.15 2.683 1.87.035L8.525 1.54z" fill="#B3B3B3"/></svg>