<svg width="614" height="447" viewBox="0 0 614 447" fill="none" xmlns="http://www.w3.org/2000/svg"><g filter="url(#filter0_d_3105_16485)"><rect x="128" y="26" width="456" height="269.492" rx="16" fill="#18223B"/><rect x="128.5" y="26.5" width="455" height="268.492" rx="15.5" stroke="url(#paint0_linear_3105_16485)"/></g><path d="M425.105 49.827v234.984M128.821 79.727h296.606m-296.606 30.4h296.606m-296.606 30.4h296.606m-296.606 30.4h296.606m-296.606 30.4h296.606m-296.606 30.4h296.606m-296.606 30.4h296.606m-52.084-212.3v234.984M321.581 49.827v234.984M269.818 49.827v234.984M218.057 49.827v234.984M166.294 49.827v234.984" opacity=".05" stroke="#EAECEF"/><path d="M128 42c0-8.837 7.163-16 16-16h424c8.837 0 16 7.163 16 16v7.827H128V42z" fill="#fff" fill-opacity=".07"/><path stroke="#fff" stroke-opacity=".05" stroke-width="3" d="M465.543 49.832l-.827 244.843"/><path fill-rule="evenodd" clip-rule="evenodd" d="M472.269 59.922a2 2 0 012-2h99.747a2 2 0 012 2v3.99a2 2 0 01-2 2h-99.747a2 2 0 01-2-2v-3.99zm-.009 12.446a2 2 0 012-2h92.951a2 2 0 012 2v3.394a2 2 0 01-2 2H474.26a2 2 0 01-2-2v-3.394zm2 9.502a2 2 0 00-2 2v4.216a2 2 0 002 2h85.557a2 2 0 002-2V83.87a2 2 0 00-2-2H474.26zm-2 14.325a2 2 0 012-2h72.411a2 2 0 012 2v4.216a2 2 0 01-2 2H474.26a2 2 0 01-2-2v-4.216zm2 10.324a2 2 0 00-2 2v3.395a2 2 0 002 2h63.373a2 2 0 002-2v-3.395a2 2 0 00-2-2H474.26zm-2 14.324a2 2 0 012-2h50.227a2 2 0 012 2v3.395a2 2 0 01-2 2H474.26a2 2 0 01-2-2v-3.395zm2.009 9.587a2 2 0 00-2 2v3.99a2 2 0 002 2h35.903a2 2 0 002-2v-3.99a2 2 0 00-2-2h-35.903zm-2 13.985a2 2 0 012-2h15.952a2 2 0 012 2v3.99a2 2 0 01-2 2h-15.952a2 2 0 01-2-2v-3.99zm2 9.984a2 2 0 00-2 2v3.99a2 2 0 002 2h5.976a2 2 0 002-2v-3.99a2 2 0 00-2-2h-5.976z" fill="#FF6A6A" fill-opacity=".12"/><path fill-rule="evenodd" clip-rule="evenodd" d="M472.269 284.575a2 2 0 002 2h99.747a2 2 0 002-2v-3.99a2 2 0 00-2-2h-99.747a2 2 0 00-2 2v3.99zm-.009-12.445a2 2 0 002 2h92.951a2 2 0 002-2v-3.395a2 2 0 00-2-2H474.26a2 2 0 00-2 2v3.395zm2-9.503a2 2 0 01-2-2v-4.216a2 2 0 012-2h85.557a2 2 0 012 2v4.216a2 2 0 01-2 2H474.26zm-2-14.324a2 2 0 002 2h72.411a2 2 0 002-2v-4.216a2 2 0 00-2-2H474.26a2 2 0 00-2 2v4.216zm2-10.325a2 2 0 01-2-2v-3.394a2 2 0 012-2h63.373a2 2 0 012 2v3.394a2 2 0 01-2 2H474.26zm-2-14.324a2 2 0 002 2h50.227a2 2 0 002-2v-3.395a2 2 0 00-2-2H474.26a2 2 0 00-2 2v3.395zm2.009-9.587a2 2 0 01-2-2v-3.989a2 2 0 012-2h35.903a2 2 0 012 2v3.989a2 2 0 01-2 2h-35.903zm-2-13.984a2 2 0 002 2h15.952a2 2 0 002-2v-3.99a2 2 0 00-2-2h-15.952a2 2 0 00-2 2v3.99zm2-9.985a2 2 0 01-2-2v-3.99a2 2 0 012-2h5.976a2 2 0 012 2v3.99a2 2 0 01-2 2h-5.976z" fill="#0ECB81" fill-opacity=".15"/><rect x="472.272" y="34.978" width="24.939" height="5.985" rx="2.993" fill="#E7E7E7" fill-opacity=".2"/><rect x="139.503" y="34.978" width="24.939" height="5.985" rx="2.993" fill="#E7E7E7" fill-opacity=".2"/><path d="M444.472 278.41h3.482v5.96h-3.482v-5.96zm-16.721 0h3.483v5.96h-3.483v-5.96zm-4.176 4.172h3.483v1.788h-3.483v-1.788zm-12.54-10.131h3.483v11.919h-3.483v-11.919zm-4.179 8.343h3.483v3.576h-3.483v-3.576zm-4.181-2.98h3.483v6.556h-3.483v-6.556zM390.139 265.3h3.482v19.07h-3.482V265.3zm-16.718 10.727h3.483v8.343h-3.483v-8.343zm-12.537 2.979h3.483v5.364h-3.483v-5.364zm-12.535-12.515h3.482v17.879h-3.482v-17.879zm-8.361 3.576h3.483v14.303h-3.483v-14.303zm-4.182-23.242h3.482v37.545h-3.482v-37.545zm-12.534 12.515h3.483v25.03h-3.483v-25.03zm-4.181 10.727h3.483v14.303h-3.483v-14.303zm-4.179-7.151h3.483v21.454h-3.483v-21.454zm-20.896 12.515h3.482v8.939h-3.482v-8.939zm-4.18 1.788h3.483v7.151h-3.483v-7.151zm-12.545-10.728h3.483v17.879h-3.483v-17.879zm-4.172-12.515h3.483v30.394h-3.483v-30.394zm-8.357 19.667h3.483v10.727h-3.483v-10.727zm-4.183-1.192h3.483v11.919h-3.483v-11.919zm-4.179 2.98h3.483v8.939H256.4v-8.939zm-4.184-.596h3.483v9.535h-3.483v-9.535zm-4.173-2.98h3.483v12.515h-3.483v-12.515zm-8.36 3.576h3.482v8.939h-3.482v-8.939zm-8.358-5.96h3.483v14.898h-3.483v-14.898zm-4.179 5.96h3.483v8.939h-3.483v-8.939zm-25.082 3.575h3.483v5.364h-3.483v-5.364zm-4.171-2.979h3.482v8.343h-3.482v-8.343zm-8.362 2.979h3.483v5.364h-3.483v-5.364zm-16.531 0h3.483v5.364H173v-5.364zm-3.989 1.374h2.992v3.99h-2.992v-3.99zm-3.99-2.993h2.993v6.983h-2.993v-6.983zm-3.99 1.995h2.993v4.988h-2.993v-4.988zm-3.992 2.993h2.993v1.995h-2.993v-1.995zm-3.989-.998h2.993v2.993h-2.993v-2.993zm299.776.013h3.483v2.98h-3.483v-2.98zm-4.176-.596h3.483v3.576h-3.483v-3.576zm-8.357-4.767h3.483v8.343h-3.483v-8.343zm-4.179 2.383h3.483v5.96h-3.483v-5.96zm-4.184.596h3.482v5.364h-3.482v-5.364zm-12.534 1.788h3.483v3.576h-3.483v-3.576zm-4.178-2.98h3.483v6.556h-3.483v-6.556zm-16.719 2.384h3.483v4.172h-3.483v-4.172zm-4.182-1.192h3.483v5.364h-3.483v-5.364zm-8.357-40.524h3.483v45.888h-3.483v-45.888zm-4.179 32.777h3.483v13.111h-3.483v-13.111zm-4.178 1.192h3.482v11.919h-3.482v-11.919zm-8.361-16.09h3.483v28.009h-3.483v-28.009zm-4.18 20.262h3.483v7.747h-3.483v-7.747zm-8.359 1.191h3.483v6.556h-3.483v-6.556zm-4.179-13.11h3.483v19.666h-3.483v-19.666zm-8.357-16.091h3.483v35.757h-3.483v-35.757zm-12.54-3.576h3.483v39.333h-3.483v-39.333zm-4.179-4.767h3.483v44.1h-3.483v-44.1zm-16.718 3.575h3.483v40.525h-3.483v-40.525zm-4.178 4.768h3.483v35.757h-3.483v-35.757zm-4.179 21.454h3.483v14.303h-3.483v-14.303zm-4.179 5.364h3.483v8.939h-3.483v-8.939zm-12.537 1.192h3.483v7.747h-3.483v-7.747zm-4.187 1.191h3.483v6.556h-3.483v-6.556zm-12.53-5.363h3.483v11.919h-3.483v-11.919zm-25.076-1.788h3.483v13.707h-3.483v-13.707zm-8.36 6.556h3.483v7.151h-3.483v-7.151zm-12.536-2.384h3.483v9.535h-3.483v-9.535zm-4.182-4.172h3.483v13.707h-3.483v-13.707zm-4.179-7.151h3.483v20.858h-3.483v-20.858zm-4.178 8.343h3.483v12.515h-3.483v-12.515zm-4.179 7.747h3.483v4.768h-3.483v-4.768zm-12.536-2.979h3.483v7.747h-3.483v-7.747zm-8.367 0h3.482v7.747h-3.482v-7.747zm-4.179-1.192h3.483v8.939h-3.483v-8.939zm-4.179 2.383h3.483v6.556h-3.483v-6.556z" fill="#58667E"/><path stroke="#58667E" stroke-dasharray="3 3" d="M132.93 100.268h331.113"/><rect x="431.374" y="71.888" width="24.939" height="5.985" rx="2" fill="#F7F7F7"/><rect x="472.272" y="168.962" width="32.92" height="5.985" rx="2" fill="#35CA77"/><rect x="564.05" y="168.962" width="11.971" height="5.985" rx="2" fill="#58667E"/><rect x="554.068" y="168.962" width="5.985" height="5.985" rx="2" fill="#58667E"/><path fill="#35CA77" d="M404.726 100.261h5.912v6.465h-5.912z"/><path fill="#35CA77" d="M407.354 94.335h.657v18.319h-.657zm-26.279 31.249h5.912v11.315h-5.912z"/><path fill="#35CA77" d="M383.703 123.429h.657v19.935h-.657zm-42.04.539h5.912v14.009h-5.912z"/><path fill="#35CA77" d="M344.291 119.658h.657v19.935h-.657zm-10.512 17.78h5.912v2.694h-5.912z"/><path fill="#35CA77" d="M336.407 131.511h.657v13.47h-.657zm-18.394 7.543h5.912v3.233h-5.912z"/><path fill="#35CA77" d="M320.641 134.205h.657v19.396h-.657zm-10.511 7.543h5.912v2.155h-5.912z"/><path fill="#35CA77" d="M312.758 136.899h.657v17.241h-.657zm-18.393 5.926h5.912v5.388h-5.912z"/><path fill="#35CA77" d="M296.993 133.127h.657v25.323h-.657z"/><path fill="#EA5759" d="M286.481 139.593h5.912v8.621h-5.912z"/><path fill="#EA5759" d="M289.109 130.433h.657v26.401h-.657z"/><path fill="#35CA77" d="M278.597 139.593h5.912v17.78h-5.912z"/><path fill="#35CA77" d="M281.225 133.666h.657V163.3h-.657zm-42.043 1.617h5.912v21.013h-5.912z"/><path fill="#35CA77" d="M241.81 120.735h.657v47.414h-.657zm-18.393 61.961h5.912v33.944h-5.912z"/><path fill="#35CA77" d="M226.045 179.463h.657v56.573h-.657zm-10.511 36.638h5.912v17.241h-5.912z"/><path fill="#35CA77" d="M218.162 209.097h.657v38.793h-.657zm-10.51 23.707h5.912v10.776h-5.912z"/><path fill="#35CA77" d="M210.28 229.571h.657v21.552h-.657z"/><path fill="#EA5759" d="M176.119 200.477h5.912v5.388h-5.912z"/><path fill="#EA5759" d="M178.747 184.851h.657v23.168h-.657z"/><path fill="#35CA77" d="M168.235 200.477h5.912v11.853h-5.912z"/><path fill="#35CA77" d="M170.863 194.55h.657v23.707h-.657z"/><path fill="#EA5759" d="M160.353 199.938h5.912v12.392h-5.912z"/><path fill="#EA5759" d="M162.98 196.166h.657v27.478h-.657zm-10.51-9.698h5.912v14.009h-5.912z"/><path fill="#EA5759" d="M155.098 185.39h.657v16.164h-.657z"/><path fill="#35CA77" d="M144.586 186.468h5.912v9.698h-5.912z"/><path fill="#35CA77" d="M147.214 175.692h.657v30.172h-.657zm-10.51 20.474h5.912v10.237h-5.912z"/><path fill="#35CA77" d="M139.332 192.394h.657v14.547h-.657z"/><path fill="#EA5759" d="M128.821 205.326h5.912v1.078h-5.912z"/><path fill="#EA5759" d="M131.449 188.623h.657v26.401h-.657z"/><path fill="#35CA77" d="M199.77 243.041h5.912v15.086h-5.912z"/><path fill="#35CA77" d="M202.397 232.265h.657v39.332h-.657z"/><path fill="#EA5759" d="M191.886 245.196h5.912v12.931h-5.912z"/><path fill="#EA5759" d="M194.514 237.114h.657v46.875h-.657zm-10.511-31.789h5.912v40.409h-5.912z"/><path fill="#EA5759" d="M186.631 195.088h.657v60.883h-.657z"/><path fill="#35CA77" d="M231.3 155.757h5.912v26.94H231.3z"/><path fill="#35CA77" d="M233.928 133.666h.657v51.185h-.657zm36.787 23.168h5.912v5.388h-5.912z"/><path fill="#35CA77" d="M273.343 148.213H274v32.328h-.657z"/><path fill="#EA5759" d="M262.832 147.675h5.912v14.547h-5.912z"/><path fill="#EA5759" d="M265.461 148.213h.657v31.789h-.657z"/><path fill="#35CA77" d="M254.95 147.675h5.912v4.849h-5.912z"/><path fill="#35CA77" d="M257.578 143.903h.657v22.09h-.657z"/><path fill="#EA5759" d="M247.065 135.283h5.912v17.241h-5.912z"/><path fill="#EA5759" d="M249.693 129.356h.657v24.246h-.657z"/><path fill="#35CA77" d="M302.248 142.826h5.912v.539h-5.912z"/><path fill="#35CA77" d="M304.876 114.27h.657v33.944h-.657zm60.435 16.164h5.912v33.405h-5.912z"/><path fill="#35CA77" d="M367.938 127.74h.657v43.103h-.657z"/><path fill="#EA5759" d="M373.192 130.972h5.912v6.465h-5.912z"/><path fill="#EA5759" d="M375.82 125.046h.657v19.396h-.657zm-49.925 14.008h5.912v1.616h-5.912z"/><path fill="#EA5759" d="M328.522 125.584h.657v23.707h-.657zm28.906 25.862h5.912v12.392h-5.912z"/><path fill="#EA5759" d="M360.056 149.83h.657v17.241h-.657zm-10.51-25.862h5.912v28.017h-5.912z"/><path fill="#EA5759" d="M352.174 120.735h.657v43.642h-.657zm44.669-22.629h5.912v8.621h-5.912z"/><path fill="#EA5759" d="M399.471 91.102h.657v19.935h-.657z"/><path fill="#35CA77" d="M388.961 98.644h5.912v27.478h-5.912z"/><path fill="#35CA77" d="M391.589 82.481h.657v32.866h-.657z"/><rect x="431.374" y="57.922" width="24.939" height="5.985" rx="2" fill="#58667E"/><rect x="431.374" y="71.888" width="24.939" height="5.985" rx="2" fill="#58667E"/><rect x="431.374" y="85.854" width="24.939" height="5.985" rx="2" fill="#58667E"/><rect x="431.374" y="99.82" width="24.939" height="5.985" rx="2" fill="#58667E"/><rect x="431.374" y="97.481" width="24.939" height="5.985" rx="2" fill="#35CA77"/><rect x="431.374" y="113.786" width="24.939" height="5.985" rx="2" fill="#58667E"/><rect x="431.374" y="127.752" width="24.939" height="5.985" rx="2" fill="#58667E"/><rect x="431.374" y="141.718" width="24.939" height="5.985" rx="2" fill="#58667E"/><rect x="431.374" y="155.684" width="24.939" height="5.985" rx="2" fill="#58667E"/><rect x="431.374" y="169.65" width="24.939" height="5.985" rx="2" fill="#58667E"/><rect x="431.374" y="183.616" width="24.939" height="5.985" rx="2" fill="#58667E"/><rect x="431.374" y="197.582" width="24.939" height="5.985" rx="2" fill="#58667E"/><rect x="431.374" y="211.548" width="24.939" height="5.985" rx="2" fill="#58667E"/><rect x="431.374" y="225.514" width="24.939" height="5.985" rx="2" fill="#58667E"/><rect x="431.374" y="239.479" width="24.939" height="5.985" rx="2" fill="#58667E"/><g filter="url(#filter1_d_3105_16485)"><rect x="30" y="129" width="240" height="284" rx="16" fill="#18223B"/><rect x="30.5" y="129.5" width="239" height="283" rx="15.5" stroke="url(#paint1_linear_3105_16485)"/></g><path d="M30 145c0-8.837 7.163-16 16-16h208c8.837 0 16 7.163 16 16v8H30v-8z" fill="#fff" fill-opacity=".1"/><rect x="50" y="137.978" width="24.939" height="5.985" rx="2.993" fill="#E7E7E7" fill-opacity=".2"/><rect x="50" y="362" width="94" height="30" rx="8" fill="#0ECB81" fill-opacity=".5"/><rect x="155" y="362" width="94" height="30" rx="8" fill="#EA5759" fill-opacity=".5"/><rect x="50" y="251" width="199" height="30" rx="4" fill="#F7F7F7" fill-opacity=".2"/><rect x="50" y="316" width="199" height="30" rx="4" fill="#F7F7F7" fill-opacity=".2"/><rect x="50" y="212" width="199" height="31" rx="4" fill="#F7F7F7" fill-opacity=".2"/><rect x="50" y="174" width="199" height="31" rx="4" fill="#F7F7F7" fill-opacity=".2"/><path fill="#E7E7E7" fill-opacity=".2" d="M204 295h27v7h-27zm-46 0h29v7h-29zm-46 0h29v7h-29zm-44 0h27v7H68z"/><circle cx="59.575" cy="298.379" r="8.567" fill="#E7E7E7" fill-opacity=".2" stroke="#A6B0C3" stroke-width="2"/><circle cx="239.43" cy="298.379" r="8.567" fill="#E7E7E7" fill-opacity=".2" stroke="#A6B0C3" stroke-width="2"/><circle cx="149.504" cy="298.379" r="8.567" fill="#E7E7E7" fill-opacity=".2" stroke="#A6B0C3" stroke-width="2"/><circle cx="195.422" cy="298.379" r="8.567" fill="#E7E7E7" fill-opacity=".2" stroke="#A6B0C3" stroke-width="2"/><circle cx="103.583" cy="298.379" r="8.567" fill="#35CA77" stroke="#EAECEF" stroke-width="2"/><circle cx="103.501" cy="298.5" r="3.5" fill="#fff"/><path d="M65.912 193h-.996v-7.116h-2.532v-.888h6.072v.888h-2.544V193zm2.84 2.268l.144-.816a1.2 1.2 0 00.492.096c.208 0 .38-.044.516-.132.136-.088.252-.248.348-.48l.384-.876-2.424-5.856h.972l1.932 4.752 1.92-4.752h.984l-2.904 6.972c-.32.768-.888 1.16-1.704 1.176-.24 0-.46-.028-.66-.084zm9.063-2.124c-.816 0-1.468-.34-1.956-1.02v3.084h-.9v-8.004h.9v.864c.216-.304.496-.548.84-.732a2.33 2.33 0 011.116-.276c.768 0 1.388.276 1.86.828.48.544.72 1.28.72 2.208 0 .928-.24 1.668-.72 2.22-.472.552-1.092.828-1.86.828zm-.228-.804c.568 0 1.02-.208 1.356-.624.336-.424.504-.964.504-1.62 0-.656-.168-1.192-.504-1.608-.336-.416-.788-.624-1.356-.624-.344 0-.68.092-1.008.276-.32.176-.56.392-.72.648v2.616c.16.264.4.488.72.672.328.176.664.264 1.008.264zm6.855.804c-.864 0-1.572-.28-2.124-.84-.552-.568-.828-1.304-.828-2.208 0-.848.272-1.564.816-2.148.544-.592 1.224-.888 2.04-.888.856 0 1.532.296 2.028.888.504.584.756 1.324.756 2.22v.228h-4.692c.04.568.248 1.044.624 1.428.376.384.864.576 1.464.576.72 0 1.316-.244 1.788-.732l.432.588c-.592.592-1.36.888-2.304.888zm1.8-3.408a2.074 2.074 0 00-.504-1.332c-.328-.4-.796-.6-1.404-.6-.576 0-1.032.196-1.368.588-.328.392-.504.84-.528 1.344h3.804zM63.932 231h-.996v-8.004h3.216c.776 0 1.388.232 1.836.696.448.464.672 1.036.672 1.716 0 .68-.228 1.252-.684 1.716-.448.464-1.056.696-1.824.696h-2.22V231zm2.1-4.068c.472 0 .856-.14 1.152-.42.296-.288.444-.656.444-1.104 0-.448-.148-.812-.444-1.092-.296-.288-.68-.432-1.152-.432h-2.1v3.048h2.1zM70.843 231h-.9v-5.796h.9v.936c.536-.704 1.18-1.056 1.932-1.056v.924a1.716 1.716 0 00-.36-.036c-.272 0-.568.096-.888.288-.32.192-.548.404-.684.636V231zm3.505-6.624a.596.596 0 01-.6-.6.59.59 0 01.18-.432c.12-.12.26-.18.42-.18a.59.59 0 01.432.18c.12.12.18.264.18.432a.59.59 0 01-.18.432.61.61 0 01-.432.168zm.456 6.624h-.9v-5.796h.9V231zm4.351.144c-.856 0-1.552-.288-2.088-.864-.536-.584-.804-1.312-.804-2.184 0-.872.268-1.596.804-2.172.536-.576 1.232-.864 2.088-.864.896 0 1.604.336 2.124 1.008l-.6.552c-.368-.504-.86-.756-1.476-.756-.608 0-1.096.208-1.464.624-.36.416-.54.952-.54 1.608 0 .656.18 1.196.54 1.62.368.416.856.624 1.464.624s1.1-.252 1.476-.756l.6.552c-.52.672-1.228 1.008-2.124 1.008zm6.002 0c-.864 0-1.572-.28-2.124-.84-.552-.568-.828-1.304-.828-2.208 0-.848.272-1.564.816-2.148.544-.592 1.224-.888 2.04-.888.856 0 1.532.296 2.028.888.504.584.756 1.324.756 2.22v.228h-4.692c.04.568.248 1.044.624 1.428.376.384.864.576 1.464.576.72 0 1.316-.244 1.788-.732l.432.588c-.592.592-1.36.888-2.304.888zm1.8-3.408a2.074 2.074 0 00-.504-1.332c-.328-.4-.796-.6-1.404-.6-.576 0-1.032.196-1.368.588-.328.392-.504.84-.528 1.344h3.804zm-20.373 42.408c-1.176 0-2.132-.392-2.868-1.176-.736-.784-1.104-1.772-1.104-2.964s.368-2.18 1.104-2.964c.736-.784 1.692-1.176 2.868-1.176 1.168 0 2.12.392 2.856 1.176.744.784 1.116 1.772 1.116 2.964s-.368 2.176-1.104 2.952l.768.816-.696.6-.78-.828c-.624.4-1.344.6-2.16.6zm0-.888c.568 0 1.076-.136 1.524-.408l-1.14-1.236.696-.588 1.128 1.224c.488-.6.732-1.348.732-2.244 0-.952-.272-1.732-.816-2.34-.536-.608-1.244-.912-2.124-.912-.888 0-1.6.304-2.136.912-.536.608-.804 1.388-.804 2.34 0 .944.268 1.724.804 2.34.536.608 1.248.912 2.136.912zm6.956.888c-.424 0-.744-.116-.96-.348-.216-.232-.324-.568-.324-1.008v-3.792h-.96v-.792h.96v-1.584h.9v1.584h1.176v.792h-1.176v3.6c0 .224.048.404.144.54a.526.526 0 00.444.204c.264 0 .468-.08.612-.24l.264.672c-.264.248-.624.372-1.08.372zm1.74 2.124l.143-.816a1.2 1.2 0 00.492.096c.208 0 .38-.044.516-.132.136-.088.252-.248.348-.48l.384-.876-2.424-5.856h.972l1.932 4.752 1.92-4.752h.984l-2.904 6.972c-.32.768-.888 1.16-1.704 1.176-.24 0-.46-.028-.66-.084zM65.912 335h-.996v-7.116h-2.532v-.888h6.072v.888h-2.544V335zm7.057-.732c-.52.584-1.212.876-2.076.876-.864 0-1.56-.292-2.088-.876-.52-.584-.78-1.308-.78-2.172 0-.864.26-1.584.78-2.16.528-.584 1.224-.876 2.088-.876.864 0 1.556.292 2.076.876.528.576.792 1.296.792 2.16 0 .864-.264 1.588-.792 2.172zm-3.492-.576c.352.432.824.648 1.416.648s1.06-.216 1.404-.648c.344-.44.516-.972.516-1.596 0-.624-.172-1.152-.516-1.584-.344-.432-.812-.648-1.404-.648-.592 0-1.064.22-1.416.66-.344.432-.516.956-.516 1.572 0 .624.172 1.156.516 1.596zm7.215 1.452c-.424 0-.744-.116-.96-.348-.216-.232-.324-.568-.324-1.008v-3.792h-.96v-.792h.96v-1.584h.9v1.584h1.176v.792h-1.176v3.6c0 .224.048.404.144.54a.526.526 0 00.444.204c.264 0 .468-.08.612-.24l.264.672c-.264.248-.624.372-1.08.372zM83.28 335h-.9v-.66c-.489.536-1.129.804-1.92.804a2.132 2.132 0 01-1.416-.516c-.409-.344-.612-.812-.612-1.404 0-.608.2-1.076.6-1.404a2.179 2.179 0 011.428-.504c.824 0 1.464.264 1.92.792v-1.044c0-.384-.136-.684-.408-.9-.272-.216-.624-.324-1.056-.324-.68 0-1.272.268-1.776.804l-.42-.624c.615-.64 1.388-.96 2.316-.96.663 0 1.204.16 1.62.48.415.32.623.812.623 1.476V335zm-2.496-.504c.72 0 1.251-.24 1.595-.72v-1.092c-.344-.48-.876-.72-1.596-.72-.415 0-.76.12-1.032.36-.264.232-.395.536-.395.912 0 .368.132.672.395.912.272.232.617.348 1.032.348zm5.2.504h-.9v-8.004h.9V335zm91.668-142h-4.716v-8.004h.996v7.116h3.72V193zm1.809-6.624a.596.596 0 01-.6-.6.59.59 0 01.18-.432c.12-.12.26-.18.42-.18a.59.59 0 01.432.18c.12.12.18.264.18.432a.59.59 0 01-.18.432.61.61 0 01-.432.168zm.456 6.624h-.9v-5.796h.9V193zm9.692 0h-.9v-3.936c0-.8-.356-1.2-1.068-1.2-.288 0-.576.088-.864.264a2.114 2.114 0 00-.672.624V193h-.9v-3.936c0-.8-.356-1.2-1.068-1.2-.28 0-.564.088-.852.264a2.23 2.23 0 00-.672.636V193h-.9v-5.796h.9v.84c.144-.224.396-.444.756-.66.36-.216.732-.324 1.116-.324.424 0 .768.1 1.032.3.264.2.44.46.528.78.176-.288.444-.54.804-.756.36-.216.74-.324 1.14-.324 1.08 0 1.62.584 1.62 1.752V193zm2.239-6.624a.596.596 0 01-.6-.6.59.59 0 01.18-.432c.12-.12.26-.18.42-.18a.59.59 0 01.432.18c.12.12.18.264.18.432a.59.59 0 01-.18.432.61.61 0 01-.432.168zm.456 6.624h-.9v-5.796h.9V193zm3.259.144c-.424 0-.744-.116-.96-.348-.216-.232-.324-.568-.324-1.008v-3.792h-.96v-.792h.96v-1.584h.9v1.584h1.176v.792h-1.176v3.6c0 .224.048.404.144.54a.526.526 0 00.444.204c.264 0 .468-.08.612-.24l.264.672c-.264.248-.624.372-1.08.372zm13.029-.144h-.996v-6.588L204.872 193h-.408l-2.712-6.588V193h-.996v-8.004h1.428l2.484 6.024 2.496-6.024h1.428V193zm6.355 0h-.9v-.66c-.488.536-1.128.804-1.92.804a2.132 2.132 0 01-1.416-.516c-.408-.344-.612-.812-.612-1.404 0-.608.2-1.076.6-1.404a2.179 2.179 0 011.428-.504c.824 0 1.464.264 1.92.792v-1.044c0-.384-.136-.684-.408-.9-.272-.216-.624-.324-1.056-.324-.68 0-1.272.268-1.776.804l-.42-.624c.616-.64 1.388-.96 2.316-.96.664 0 1.204.16 1.62.48.416.32.624.812.624 1.476V193zm-2.496-.504c.72 0 1.252-.24 1.596-.72v-1.092c-.344-.48-.876-.72-1.596-.72-.416 0-.76.12-1.032.36-.264.232-.396.536-.396.912 0 .368.132.672.396.912.272.232.616.348 1.032.348zm5.201.504h-.9v-5.796h.9v.936c.536-.704 1.18-1.056 1.932-1.056v.924a1.716 1.716 0 00-.36-.036c-.272 0-.568.096-.888.288-.32.192-.548.404-.684.636V193zm5.389 2.352c-.512 0-.948-.064-1.308-.192-.36-.12-.704-.344-1.032-.672l.456-.672c.44.528 1.068.792 1.884.792.536 0 .98-.144 1.332-.432.352-.28.528-.716.528-1.308v-.828a2.519 2.519 0 01-.84.744 2.23 2.23 0 01-1.104.288c-.768 0-1.392-.268-1.872-.804-.472-.544-.708-1.276-.708-2.196 0-.92.236-1.652.708-2.196.48-.544 1.104-.816 1.872-.816.792 0 1.44.34 1.944 1.02v-.876h.9v5.628c0 .888-.26 1.528-.78 1.92-.52.4-1.18.6-1.98.6zm.132-3.072c.344 0 .676-.092.996-.276.328-.184.572-.408.732-.672V188.8c-.16-.264-.4-.484-.72-.66a1.993 1.993 0 00-1.008-.276c-.576 0-1.032.204-1.368.612-.328.408-.493.94-.493 1.596 0 .648.169 1.18.505 1.596.336.408.788.612 1.356.612zm4.874-5.904a.596.596 0 01-.6-.6.59.59 0 01.18-.432c.12-.12.26-.18.42-.18a.59.59 0 01.432.18c.12.12.18.264.18.432a.59.59 0 01-.18.432.61.61 0 01-.432.168zm.456 6.624h-.9v-5.796h.9V193zm6.607 0h-.9v-3.792c0-.488-.112-.832-.336-1.032-.224-.208-.544-.312-.96-.312-.336 0-.664.088-.984.264a2.206 2.206 0 00-.732.636V193h-.9v-5.796h.9v.84c.224-.264.524-.492.9-.684.376-.2.764-.3 1.164-.3 1.232 0 1.848.624 1.848 1.872V193zm-73.882 38.132c-.92 0-1.66-.32-2.22-.96l.504-.744c.464.544 1.036.816 1.716.816.512 0 .944-.16 1.296-.48.352-.32.6-.708.744-1.164.144-.456.216-.952.216-1.488 0-.144-.004-.252-.012-.324-.2.32-.508.608-.924.864-.416.256-.86.384-1.332.384-.76 0-1.388-.22-1.884-.66-.496-.448-.744-1.08-.744-1.896 0-.72.256-1.336.768-1.848s1.188-.768 2.028-.768c.544 0 1.02.112 1.428.336.408.224.728.532.96.924a4.4 4.4 0 01.528 1.308c.12.48.18 1.004.18 1.572 0 .752-.112 1.432-.336 2.04a3.4 3.4 0 01-1.092 1.5c-.496.392-1.104.588-1.824.588zm.216-3.96c.392 0 .768-.108 1.128-.324.368-.216.656-.504.864-.864a2.995 2.995 0 00-.564-1.56c-.328-.448-.808-.672-1.44-.672-.568 0-1.016.176-1.344.528-.328.352-.492.74-.492 1.164 0 .56.172.988.516 1.284.344.296.788.444 1.332.444zm6.838 3.972c-.64 0-1.208-.124-1.704-.372s-.876-.564-1.14-.948l.588-.624c.24.32.556.576.948.768.392.192.82.288 1.284.288.584 0 1.04-.132 1.368-.396.336-.272.504-.64.504-1.104 0-.48-.18-.836-.54-1.068-.352-.232-.836-.348-1.452-.348-.472 0-.748.004-.828.012v-.912c.088.008.364.012.828.012.544 0 .988-.108 1.332-.324.352-.224.528-.556.528-.996 0-.424-.172-.756-.516-.996-.336-.248-.76-.372-1.272-.372-.808 0-1.512.324-2.112.972l-.552-.624c.68-.824 1.592-1.236 2.736-1.236.792 0 1.44.192 1.944.576.512.376.768.896.768 1.56 0 .528-.176.952-.528 1.272a2.422 2.422 0 01-1.2.588c.44.04.856.232 1.248.576.4.344.6.808.6 1.392 0 .68-.256 1.236-.768 1.668-.512.424-1.2.636-2.064.636zm7.1 0c-1.232 0-2.172-.428-2.82-1.284l.612-.66c.552.704 1.288 1.056 2.208 1.056.544 0 .988-.164 1.332-.492.344-.328.516-.736.516-1.224 0-.52-.172-.936-.516-1.248-.336-.32-.776-.48-1.32-.48a2.54 2.54 0 00-1.848.756l-.732-.252v-4.32h4.896v.888h-3.9v2.784c.48-.48 1.104-.72 1.872-.72.704 0 1.304.232 1.8.696.496.456.744 1.076.744 1.86 0 .8-.268 1.44-.804 1.92s-1.216.72-2.04.72zm6.598-.144h-.996v-6.684l-1.284 1.356-.6-.612 2.004-2.064h.876V231zm2.782-.072a.637.637 0 01-.468.192.637.637 0 01-.468-.192.637.637 0 01-.192-.468c0-.184.064-.34.192-.468a.637.637 0 01.468-.192c.184 0 .34.064.468.192a.637.637 0 01.192.468c0 .184-.064.34-.192.468zm7.062.072h-5.496v-.792a81.962 81.962 0 001.932-1.56 19.48 19.48 0 001.332-1.236c.432-.44.736-.828.912-1.164.176-.344.264-.684.264-1.02 0-.48-.164-.844-.492-1.092-.328-.248-.72-.372-1.176-.372-.92 0-1.644.336-2.172 1.008l-.612-.636c.304-.4.7-.708 1.188-.924a3.832 3.832 0 011.596-.336c.728 0 1.356.204 1.884.612.536.408.804.988.804 1.74 0 .744-.32 1.488-.96 2.232-.64.736-1.616 1.62-2.928 2.652h3.924V231zm4.582.144c-.528 0-.996-.12-1.404-.36-.4-.248-.72-.576-.96-.984a5.297 5.297 0 01-.528-1.32 6.373 6.373 0 01-.168-1.476c0-.512.056-1.004.168-1.476.12-.472.296-.908.528-1.308.24-.408.56-.732.96-.972a2.649 2.649 0 011.404-.372c.52 0 .984.124 1.392.372.408.24.728.564.96.972.24.4.416.836.528 1.308.12.472.18.964.18 1.476s-.06 1.004-.18 1.476a4.75 4.75 0 01-.528 1.32 2.695 2.695 0 01-.96.984c-.408.24-.872.36-1.392.36zm-1.2-1.38c.32.328.72.492 1.2.492s.88-.164 1.2-.492c.32-.336.54-.736.66-1.2.12-.464.18-.984.18-1.56 0-.576-.06-1.096-.18-1.56a2.6 2.6 0 00-.66-1.188 1.608 1.608 0 00-1.2-.492c-.48 0-.88.164-1.2.492a2.6 2.6 0 00-.66 1.188c-.12.464-.18.984-.18 1.56 0 .576.06 1.096.18 1.56.12.464.34.864.66 1.2zm-49.534 40.38c-.528 0-.996-.12-1.404-.36-.4-.248-.72-.576-.96-.984a5.297 5.297 0 01-.528-1.32 6.373 6.373 0 01-.168-1.476c0-.512.056-1.004.168-1.476.12-.472.296-.908.528-1.308.24-.408.56-.732.96-.972a2.649 2.649 0 011.404-.372c.52 0 .984.124 1.392.372.408.24.728.564.96.972.24.4.416.836.528 1.308.12.472.18.964.18 1.476s-.06 1.004-.18 1.476a4.75 4.75 0 01-.528 1.32 2.695 2.695 0 01-.96.984c-.408.24-.872.36-1.392.36zm-1.2-1.38c.32.328.72.492 1.2.492s.88-.164 1.2-.492c.32-.336.54-.736.66-1.2.12-.464.18-.984.18-1.56 0-.576-.06-1.096-.18-1.56a2.6 2.6 0 00-.66-1.188 1.608 1.608 0 00-1.2-.492c-.48 0-.88.164-1.2.492a2.6 2.6 0 00-.66 1.188c-.12.464-.18.984-.18 1.56 0 .576.06 1.096.18 1.56.12.464.34.864.66 1.2zm6.349 1.164a.637.637 0 01-.468.192.637.637 0 01-.468-.192.637.637 0 01-.192-.468c0-.184.064-.34.192-.468a.637.637 0 01.468-.192c.184 0 .34.064.468.192a.637.637 0 01.192.468c0 .184-.064.34-.192.468zm4.529.216c-1.232 0-2.172-.428-2.82-1.284l.612-.66c.552.704 1.288 1.056 2.208 1.056.544 0 .988-.164 1.332-.492.344-.328.516-.736.516-1.224 0-.52-.172-.936-.516-1.248-.336-.32-.776-.48-1.32-.48a2.54 2.54 0 00-1.848.756l-.732-.252v-4.32h4.896v.888h-3.9v2.784c.48-.48 1.104-.72 1.872-.72.704 0 1.304.232 1.8.696.496.456.744 1.076.744 1.86 0 .8-.268 1.44-.804 1.92s-1.216.72-2.04.72zm6.022-.144h-1.104l3.228-7.116h-4.308v-.888h5.46v.684l-3.276 7.32zm9.764 0h-5.496v-.792a81.962 81.962 0 001.932-1.56 19.48 19.48 0 001.332-1.236c.432-.44.736-.828.912-1.164.176-.344.264-.684.264-1.02 0-.48-.164-.844-.492-1.092-.328-.248-.72-.372-1.176-.372-.92 0-1.644.336-2.172 1.008l-.612-.636c.304-.4.7-.708 1.188-.924a3.832 3.832 0 011.596-.336c.728 0 1.356.204 1.884.612.536.408.804.988.804 1.74 0 .744-.32 1.488-.96 2.232-.64.736-1.616 1.62-2.928 2.652h3.924V270zm4.607.144c-.536 0-1.008-.112-1.416-.336a2.6 2.6 0 01-.972-.912 4.872 4.872 0 01-.528-1.308 7.017 7.017 0 01-.168-1.572c0-.752.112-1.432.336-2.04a3.347 3.347 0 011.08-1.5c.504-.4 1.116-.6 1.836-.6.92 0 1.66.32 2.22.96l-.504.744c-.464-.544-1.036-.816-1.716-.816-.496 0-.92.156-1.272.468-.344.312-.596.7-.756 1.164a4.76 4.76 0 00-.228 1.512c0 .136.004.24.012.312.2-.32.508-.608.924-.864a2.56 2.56 0 011.344-.384c.76 0 1.384.224 1.872.672.496.44.744 1.068.744 1.884 0 .728-.256 1.348-.768 1.86-.512.504-1.192.756-2.04.756zm-.036-.888c.576 0 1.024-.172 1.344-.516.328-.352.492-.744.492-1.176 0-.56-.172-.988-.516-1.284-.344-.296-.788-.444-1.332-.444-.392 0-.768.112-1.128.336-.36.216-.652.504-.876.864.056.592.248 1.112.576 1.56.328.44.808.66 1.44.66zm7.102.888c-.528 0-.996-.12-1.404-.36-.4-.248-.72-.576-.96-.984a5.297 5.297 0 01-.528-1.32 6.373 6.373 0 01-.168-1.476c0-.512.056-1.004.168-1.476.12-.472.296-.908.528-1.308.24-.408.56-.732.96-.972a2.649 2.649 0 011.404-.372c.52 0 .984.124 1.392.372.408.24.728.564.96.972.24.4.416.836.528 1.308.12.472.18.964.18 1.476s-.06 1.004-.18 1.476a4.75 4.75 0 01-.528 1.32 2.695 2.695 0 01-.96.984c-.408.24-.872.36-1.392.36zm-1.2-1.38c.32.328.72.492 1.2.492s.88-.164 1.2-.492c.32-.336.54-.736.66-1.2.12-.464.18-.984.18-1.56 0-.576-.06-1.096-.18-1.56a2.6 2.6 0 00-.66-1.188 1.608 1.608 0 00-1.2-.492c-.48 0-.88.164-1.2.492a2.6 2.6 0 00-.66 1.188c-.12.464-.18.984-.18 1.56 0 .576.06 1.096.18 1.56.12.464.34.864.66 1.2zm10.407.792c-.544.392-1.224.588-2.04.588-.816 0-1.5-.196-2.052-.588-.544-.392-.816-.92-.816-1.584 0-.504.18-.94.54-1.308a3.154 3.154 0 011.368-.792c-.512-.144-.936-.376-1.272-.696a1.641 1.641 0 01-.504-1.224c0-.672.272-1.184.816-1.536.544-.36 1.184-.54 1.92-.54s1.376.18 1.92.54c.552.352.828.864.828 1.536 0 .488-.168.896-.504 1.224-.336.32-.764.552-1.284.696.544.16.996.424 1.356.792.368.368.552.804.552 1.308 0 .656-.276 1.184-.828 1.584zm-2.04-4.092c.16-.024.32-.064.48-.12.168-.056.356-.132.564-.228.208-.104.376-.244.504-.42.128-.184.192-.388.192-.612 0-.4-.168-.72-.504-.96-.328-.24-.74-.36-1.236-.36-.504 0-.92.12-1.248.36-.328.24-.492.56-.492.96 0 .224.064.428.192.612.128.176.296.316.504.42.208.096.392.172.552.228.168.048.332.088.492.12zm0 3.792c.512 0 .948-.128 1.308-.384.368-.256.552-.592.552-1.008 0-.32-.128-.6-.384-.84a2.13 2.13 0 00-.768-.516 2.69 2.69 0 00-.708-.192 2.85 2.85 0 00-.72.192c-.256.096-.512.268-.768.516-.256.24-.384.52-.384.84 0 .416.18.752.54 1.008.368.256.812.384 1.332.384zm6.673.888c-.64 0-1.208-.124-1.704-.372s-.876-.564-1.14-.948l.588-.624c.24.32.556.576.948.768.392.192.82.288 1.284.288.584 0 1.04-.132 1.368-.396.336-.272.504-.64.504-1.104 0-.48-.18-.836-.54-1.068-.352-.232-.836-.348-1.452-.348-.472 0-.748.004-.828.012v-.912c.088.008.364.012.828.012.544 0 .988-.108 1.332-.324.352-.224.528-.556.528-.996 0-.424-.172-.756-.516-.996-.336-.248-.76-.372-1.272-.372-.808 0-1.512.324-2.112.972l-.552-.624c.68-.824 1.592-1.236 2.736-1.236.792 0 1.44.192 1.944.576.512.376.768.896.768 1.56 0 .528-.176.952-.528 1.272a2.422 2.422 0 01-1.2.588c.44.04.856.232 1.248.576.4.344.6.808.6 1.392 0 .68-.256 1.236-.768 1.668-.512.424-1.2.636-2.064.636zm-36.037 65c-1.232 0-2.172-.428-2.82-1.284l.612-.66c.552.704 1.288 1.056 2.208 1.056.544 0 .988-.164 1.332-.492.344-.328.516-.736.516-1.224 0-.52-.172-.936-.516-1.248-.336-.32-.776-.48-1.32-.48a2.54 2.54 0 00-1.848.756l-.732-.252v-4.32h4.896v.888h-3.9v2.784c.48-.48 1.104-.72 1.872-.72.704 0 1.304.232 1.8.696.496.456.744 1.076.744 1.86 0 .8-.268 1.44-.804 1.92s-1.216.72-2.04.72zm6.658 0c-.64 0-1.208-.124-1.704-.372s-.876-.564-1.14-.948l.588-.624c.24.32.556.576.948.768.392.192.82.288 1.284.288.584 0 1.04-.132 1.368-.396.336-.272.504-.64.504-1.104 0-.48-.18-.836-.54-1.068-.352-.232-.836-.348-1.452-.348-.472 0-.748.004-.828.012v-.912c.088.008.364.012.828.012.544 0 .988-.108 1.332-.324.352-.224.528-.556.528-.996 0-.424-.172-.756-.516-.996-.336-.248-.76-.372-1.272-.372-.808 0-1.512.324-2.112.972l-.552-.624c.68-.824 1.592-1.236 2.736-1.236.792 0 1.44.192 1.944.576.512.376.768.896.768 1.56 0 .528-.176.952-.528 1.272a2.422 2.422 0 01-1.2.588c.44.04.856.232 1.248.576.4.344.6.808.6 1.392 0 .68-.256 1.236-.768 1.668-.512.424-1.2.636-2.064.636zm7.1 0c-1.232 0-2.172-.428-2.82-1.284l.612-.66c.552.704 1.288 1.056 2.208 1.056.544 0 .988-.164 1.332-.492.344-.328.516-.736.516-1.224 0-.52-.172-.936-.516-1.248-.336-.32-.776-.48-1.32-.48a2.54 2.54 0 00-1.848.756l-.732-.252v-4.32h4.896v.888h-3.9v2.784c.48-.48 1.104-.72 1.872-.72.704 0 1.304.232 1.8.696.496.456.744 1.076.744 1.86 0 .8-.268 1.44-.804 1.92s-1.216.72-2.04.72zm8.65-.144h-.996v-2.028h-3.804v-.828l3.432-5.148h1.368v5.1h1.128v.876h-1.128V335zm-.996-2.904v-4.176l-2.808 4.176h2.808zm4.351 2.832a.637.637 0 01-.468.192.637.637 0 01-.468-.192.637.637 0 01-.192-.468c0-.184.064-.34.192-.468a.637.637 0 01.468-.192c.184 0 .34.064.468.192a.637.637 0 01.192.468c0 .184-.064.34-.192.468zm4.53.216c-1.232 0-2.172-.428-2.82-1.284l.612-.66c.552.704 1.288 1.056 2.208 1.056.544 0 .988-.164 1.332-.492.344-.328.516-.736.516-1.224 0-.52-.172-.936-.516-1.248-.336-.32-.776-.48-1.32-.48a2.54 2.54 0 00-1.848.756l-.732-.252v-4.32h4.896v.888h-3.9v2.784c.48-.48 1.104-.72 1.872-.72.704 0 1.304.232 1.8.696.496.456.744 1.076.744 1.86 0 .8-.268 1.44-.804 1.92s-1.216.72-2.04.72zm6.022-.144h-1.104l3.228-7.116h-4.308v-.888h5.46v.684l-3.276 7.32zm22.697-104.72c-.552.576-1.36.864-2.424.864-1.064 0-1.876-.288-2.436-.864-.552-.584-.828-1.38-.828-2.388v-4.896h.996v4.872c0 .744.196 1.328.588 1.752.392.424.952.636 1.68.636s1.288-.212 1.68-.636c.392-.424.588-1.008.588-1.752v-4.872h.996v4.884c0 1.016-.28 1.816-.84 2.4zm5.306.864c-1.296 0-2.32-.424-3.072-1.272l.588-.756c.68.76 1.52 1.14 2.52 1.14.648 0 1.124-.136 1.428-.408.304-.28.456-.604.456-.972 0-.28-.088-.516-.264-.708a1.722 1.722 0 00-.684-.444 6.974 6.974 0 00-.924-.3 23.815 23.815 0 01-1.008-.288 5.733 5.733 0 01-.924-.396 1.833 1.833 0 01-.936-1.644c0-.656.26-1.188.78-1.596.52-.416 1.176-.624 1.968-.624 1.192 0 2.14.372 2.844 1.116l-.6.732c-.584-.64-1.356-.96-2.316-.96-.48 0-.876.12-1.188.36a1.094 1.094 0 00-.456.912c0 .28.116.512.348.696.24.184.532.32.876.408.352.088.732.2 1.14.336.416.128.796.268 1.14.42.352.144.644.38.876.708.24.328.36.724.36 1.188 0 .656-.244 1.212-.732 1.668-.48.456-1.22.684-2.22.684zm7.176-.144h-2.736v-8.004h2.736c1.224 0 2.212.38 2.964 1.14.76.76 1.14 1.716 1.14 2.868 0 1.16-.38 2.116-1.14 2.868-.752.752-1.74 1.128-2.964 1.128zm0-.888c.944 0 1.692-.296 2.244-.888.552-.592.828-1.332.828-2.22 0-.896-.272-1.64-.816-2.232-.544-.592-1.296-.888-2.256-.888h-1.74v6.228h1.74zm-12.482 39.168c-.552.576-1.36.864-2.424.864-1.064 0-1.876-.288-2.436-.864-.552-.584-.828-1.38-.828-2.388v-4.896h.996v4.872c0 .744.196 1.328.588 1.752.392.424.952.636 1.68.636s1.288-.212 1.68-.636c.392-.424.588-1.008.588-1.752v-4.872h.996v4.884c0 1.016-.28 1.816-.84 2.4zm5.306.864c-1.296 0-2.32-.424-3.072-1.272l.588-.756c.68.76 1.52 1.14 2.52 1.14.648 0 1.124-.136 1.428-.408.304-.28.456-.604.456-.972 0-.28-.088-.516-.264-.708a1.722 1.722 0 00-.684-.444 6.974 6.974 0 00-.924-.3 23.815 23.815 0 01-1.008-.288 5.733 5.733 0 01-.924-.396 1.833 1.833 0 01-.936-1.644c0-.656.26-1.188.78-1.596.52-.416 1.176-.624 1.968-.624 1.192 0 2.14.372 2.844 1.116l-.6.732c-.584-.64-1.356-.96-2.316-.96-.48 0-.876.12-1.188.36a1.094 1.094 0 00-.456.912c0 .28.116.512.348.696.24.184.532.32.876.408.352.088.732.2 1.14.336.416.128.796.268 1.14.42.352.144.644.38.876.708.24.328.36.724.36 1.188 0 .656-.244 1.212-.732 1.668-.48.456-1.22.684-2.22.684zm7.176-.144h-2.736v-8.004h2.736c1.224 0 2.212.38 2.964 1.14.76.76 1.14 1.716 1.14 2.868 0 1.16-.38 2.116-1.14 2.868-.752.752-1.74 1.128-2.964 1.128zm0-.888c.944 0 1.692-.296 2.244-.888.552-.592.828-1.332.828-2.22 0-.896-.272-1.64-.816-2.232-.544-.592-1.296-.888-2.256-.888h-1.74v6.228h1.74zm-12.482 65.168c-.552.576-1.36.864-2.424.864-1.064 0-1.876-.288-2.436-.864-.552-.584-.828-1.38-.828-2.388v-4.896h.996v4.872c0 .744.196 1.328.588 1.752.392.424.952.636 1.68.636s1.288-.212 1.68-.636c.392-.424.588-1.008.588-1.752v-4.872h.996v4.884c0 1.016-.28 1.816-.84 2.4zm5.306.864c-1.296 0-2.32-.424-3.072-1.272l.588-.756c.68.76 1.52 1.14 2.52 1.14.648 0 1.124-.136 1.428-.408.304-.28.456-.604.456-.972 0-.28-.088-.516-.264-.708a1.722 1.722 0 00-.684-.444 6.974 6.974 0 00-.924-.3 23.815 23.815 0 01-1.008-.288 5.733 5.733 0 01-.924-.396 1.833 1.833 0 01-.936-1.644c0-.656.26-1.188.78-1.596.52-.416 1.176-.624 1.968-.624 1.192 0 2.14.372 2.844 1.116l-.6.732c-.584-.64-1.356-.96-2.316-.96-.48 0-.876.12-1.188.36a1.094 1.094 0 00-.456.912c0 .28.116.512.348.696.24.184.532.32.876.408.352.088.732.2 1.14.336.416.128.796.268 1.14.42.352.144.644.38.876.708.24.328.36.724.36 1.188 0 .656-.244 1.212-.732 1.668-.48.456-1.22.684-2.22.684zm7.176-.144h-2.736v-8.004h2.736c1.224 0 2.212.38 2.964 1.14.76.76 1.14 1.716 1.14 2.868 0 1.16-.38 2.116-1.14 2.868-.752.752-1.74 1.128-2.964 1.128zm0-.888c.944 0 1.692-.296 2.244-.888.552-.592.828-1.332.828-2.22 0-.896-.272-1.64-.816-2.232-.544-.592-1.296-.888-2.256-.888h-1.74v6.228h1.74z" fill="#A6B0C3"/><defs><linearGradient id="paint0_linear_3105_16485" x1="123.07" y1="46.541" x2="609.106" y2="111.152" gradientUnits="userSpaceOnUse"><stop stop-color="#fff" stop-opacity=".05"/><stop offset="1" stop-color="#fff" stop-opacity="0"/></linearGradient><linearGradient id="paint1_linear_3105_16485" x1="27.405" y1="150.646" x2="286.592" y2="167.854" gradientUnits="userSpaceOnUse"><stop stop-color="#fff" stop-opacity=".05"/><stop offset="1" stop-color="#fff" stop-opacity="0"/></linearGradient><filter id="filter0_d_3105_16485" x="98" y="0" width="516" height="329.492" filterUnits="userSpaceOnUse" color-interpolation-filters="sRGB"><feFlood flood-opacity="0" result="BackgroundImageFix"/><feColorMatrix in="SourceAlpha" values="0 0 0 0 0 0 0 0 0 0 0 0 0 0 0 0 0 0 127 0" result="hardAlpha"/><feOffset dy="4"/><feGaussianBlur stdDeviation="15"/><feComposite in2="hardAlpha" operator="out"/><feColorMatrix values="0 0 0 0 0 0 0 0 0 0 0 0 0 0 0 0 0 0 0.1 0"/><feBlend in2="BackgroundImageFix" result="effect1_dropShadow_3105_16485"/><feBlend in="SourceGraphic" in2="effect1_dropShadow_3105_16485" result="shape"/></filter><filter id="filter1_d_3105_16485" x="0" y="103" width="300" height="344" filterUnits="userSpaceOnUse" color-interpolation-filters="sRGB"><feFlood flood-opacity="0" result="BackgroundImageFix"/><feColorMatrix in="SourceAlpha" values="0 0 0 0 0 0 0 0 0 0 0 0 0 0 0 0 0 0 127 0" result="hardAlpha"/><feOffset dy="4"/><feGaussianBlur stdDeviation="15"/><feComposite in2="hardAlpha" operator="out"/><feColorMatrix values="0 0 0 0 0 0 0 0 0 0 0 0 0 0 0 0 0 0 0.1 0"/><feBlend in2="BackgroundImageFix" result="effect1_dropShadow_3105_16485"/><feBlend in="SourceGraphic" in2="effect1_dropShadow_3105_16485" result="shape"/></filter></defs></svg>